<?xml version="1.0" encoding="utf-8"?>
<!-- Generator: Adobe Illustrator 17.0.0, SVG Export Plug-In . SVG Version: 6.00 Build 0)  -->
<!DOCTYPE svg PUBLIC "-//W3C//DTD SVG 1.1//EN" "http://www.w3.org/Graphics/SVG/1.1/DTD/svg11.dtd">
<svg version="1.1" id="Layer_1" xmlns="http://www.w3.org/2000/svg" xmlns:xlink="http://www.w3.org/1999/xlink" x="0px" y="0px"
	 width="1264.719px" height="1095.279px" viewBox="0 0 1264.719 1095.279" enable-background="new 0 0 1264.719 1095.279"
	 xml:space="preserve">
<g>
	<path d="M928.332,35l295.972,512.64l-295.972,512.639H336.387L40.415,547.639L336.387,35H928.332 M948.539,0H316.18L0,547.639
		l316.18,547.639h632.359l316.18-547.639L948.539,0L948.539,0z"/>
</g>
<path d="M938.17,785.953c-5.42-29.536-25.429-69.573-28.784-75.616c-24.856-44.762-39.847-108.348-98.958-116.127
	c-7.515-0.989-15.017-2.119-22.497-3.35c-6.581-1.083-13.144-2.691-19.808-3.146c-2.813-0.192-6.745,0.04-8.848-2.272
	c-5.815-6.396,9.562-14.702,13.398-17.701c11.312-8.841,32.342-10.293,42.698-20.235c17.521-16.82,29.614-35.616,30.769-60.476
	c0.735-15.823-1.708-32.071-4.629-47.588c-3.61-19.185-7.644-39.011-14.418-57.343c-2.873-7.776-7.42-19.253-16.901-20.646
	c-10.922-1.605-18.116,10.679-21.151,19.291c-6.982,19.805-3.195,42.459-0.463,62.687c3.954,29.274-0.141,60.382-23.376,81.1
	c-8.057,7.185-36.789,6.843-46.022-2.119c-9.752-9.466-0.611-25.798,2.099-36.355c5-19.478-2.962-26.591-14.381-41.629
	c-10.727-14.127-12.984-34.934-6.616-51.336c5.048-13.004,14.674-23.559,23.652-33.978c14.641-16.993,30.902-32.51,45.433-49.563
	c14.378-16.872,26.842-35.241,39.64-53.307c7.269-10.261,14.643-20.457,22.543-30.245c4.662-5.777,13.005-12.252,12.201-20.582
	c-0.845-8.759-12.298-13.695-18.999-17.324c-8.583-4.648-16.901-9.773-24.954-15.287c-16.506-11.303-31.871-24.263-46.046-38.369
	c-7.687-7.65-15.031-15.642-21.996-23.956c-7.804-9.316-15.003-19.158-21.238-29.595c-4.392-7.351-8.555-17.09-17.506-19.727
	c-11.457-3.375-14.937,11.026-18.014,18.932c-3.758,9.654-8.773,18.982-15.57,26.85c-5.451,6.309-29.101,22.262-15.201,31.258
	c4.684,3.032,12.07,1.693,17.364,2.871c6.764,1.506,13.635,3.55,20.014,6.252c19.441,8.236,35.036,24.178,21.816,45.458
	c-4.267,6.869-6.388,10.9,0.783,16.789c6.635,5.448,23.23,9.193,22.999,20.3c-0.177,8.504-12.712,13.281-19.039,16.379
	c-4.778,2.339-11.07,7.054-9.157,13.501c1.924,6.485,12.956,10.232,17.697,13.962c9.269,7.293,11.866,17.168,5.501,27.508
	c-4.546,7.385-11.964,12.054-19.76,15.431c-13.702,5.935-33.599,3.743-42.238-9.98c-6.023-9.568,1.2-23.825-6.846-32.354
	c-6.954-7.372-19.068-4.694-27.773-3.322c-14.779,2.33-51.953-13.52-51.868,12.053c0.041,12.357,0.799,22.883-12.754,28.238
	c-9.794,3.87-23.979,4.009-33.398-1.287c-6.309-3.548-13.044-9.85-13.149-17.577c-0.209-15.387,23.516-19.174,24.013-32.388
	c0.633-16.894-36.714-15.961-29.566-35.799c3.788-10.513,18.366-9.018,26.454-12.861c12.25-5.819,4.435-16.946-2.016-23.757
	c-7.775-8.21-15.404-17.702-7.739-28.883c11.102-16.194,38.376-16.876,55.593-20.989c6.129-1.464,17.344-1.255,20.784-7.78
	c6.968-13.218-21.835-21.52-28.916-27.442c-9.201-7.694-15.807-17.179-21.032-27.873c-2.824-5.78-7.135-14.506-15.071-11.524
	c-7.17,2.694-9.423,11.614-12.177,17.904c-16.574,37.853-50.995,63.009-79.497,91.327c-9.322,9.261-18.698,18.027-29.083,26.087
	c-9.094,7.058-13.827,15.084-7.795,26.169c9.752,17.92,27.016,31.829,39.487,47.897c13.283,17.115,25.714,34.78,40.683,50.506
	c13.096,13.758,26.366,28.019,29.676,47.47c4.829,28.379-11.663,54.59-19.552,80.787c-3.025,10.044-6.761,20.421-6.246,31.073
	c0.436,9.029,9.041,17.668,7.684,26.265c-1.935,12.226-23.724,6.535-29.341,4.167c-13.136-5.536-22.711-10.122-35.221-17.365
	c-13.891-8.042-13.415-26.301-8.958-39.763c9.295-28.08,38.542-47.951,37.739-79.542c-0.209-8.217-4.51-20.264-11.486-25.321
	c-15.083-10.928-26.165,6.483-32.406,18.323c-11.411,21.648-21.354,44.044-31.483,66.31c-9.368,20.593-18.208,42.189-10.869,64.922
	c8.844,27.396,35.434,40.266,53.931,60.102c6.137,6.58,17.744,14.092,20.263,22.993c3.557,12.566-30.49,10.192-37.383,11.153
	c-11.87,1.654-25.203,4.578-35.938,10.132c-11.39,5.893-18.888,15.24-25.252,26.085c-18.575,31.658-33.582,65.067-53.148,96.211
	c-7.951,12.656-15.287,24.918-24.73,36.514c-7.106,8.726-16.615,22.23-4.377,31.121c16.9,12.276,40.578-3.833,54.153-13.834
	c16.954-12.491,32.286-28.469,41.204-47.737c9.088-19.636,12.044-42.899,24.518-60.881c4.113-5.913,26.164-32.659,28.821-13.657
	c1.756,12.555-1.489,29.548-4.02,41.859c-2.783,13.535-6.29,27.014-8.352,40.682c-2.561,16.981-6.676,29.442-19.8,41.309
	c-11.574,10.466-25.544,17.777-37.963,27.118c-31.464,23.668-21.391,62.014-13.051,94.59c7.899,30.85,8.557,64.488,20.896,94.064
	c3.46,8.294,10.793,14.139,20.297,11.524c7.555-2.078,14.459-11.262,11.862-19.367c0.231-1.146,0.331-2.33,0.252-3.544
	c-0.955-14.586,0.19-29.157-0.041-43.752c-0.242-15.275-2.734-30.701-8.392-44.939c-8.748-22.013-26.117-41.057-3.072-61.07
	c8.837-7.674,24.062-16.716,31.682-2.637c6.506,12.022,5.418,26.786,8.061,39.85c2.613,12.918,6.538,25.766,11.141,38.108
	c18.827,50.482,59.298,89.494,108.783,110.33c8.027,3.38,19.377,6.525,26.698,0.223c8.891-7.653,9.866-24.188,11.329-34.862
	c3.619-26.403,5.898-52.912,8.112-79.458c0.622-7.462-0.595-18.154,3.569-24.723c7.555-11.914,18.864-4.028,23.414,5.658
	c5.823,12.397,3.783,28.664,6.168,41.959c3.011,16.786,5.089,33.71,6.7,50.675c1.243,13.083,1.989,29.711,13.582,38.31
	c20.89,15.491,41.041-10,57.105-20.558c23.131-15.202,42.58-33.858,57.985-56.912c21.965-32.87,29.874-66.372,32.144-105.217
	c0.644-11.027,4.846-31.618,21.29-27.518c6.14,1.531,10.274,9.373,13.149,14.369c8.791,15.273,12.485,32.702,15.63,49.862
	c3.129,17.078,2.482,34.432,7.579,51.155c5.783,18.974,16.505,35.543,24.637,53.472c2.876,6.341,13.722,8.939,19.655,7.299
	c9.608-2.656,13.055-11.953,13.158-21.062c0.315-27.805-11.822-58.314-21.239-84.02c-4.99-13.623-10.195-27.166-14.792-40.93
	c-8.251-24.705-16.453-48.617-34.698-67.992c-8.436-8.959-20.143-15.633-26.545-26.401c-6.264-10.536-5.544-23.901-6.933-35.642
	c-1.445-12.206-5.282-22.348-10.015-33.532c-3.811-9.005-5.027-22.396,7.061-24.717c17.681-3.394,30.867,14.987,39.88,27.309
	c17.99,24.594,28.669,49.677,37.591,78.598c7.598,24.628,19.781,54.016,48.11,59.559
	C938.753,821.482,941.882,806.179,938.17,785.953z M543.241,439.003c3.01-3.85,7.736-5.455,12.514-3.947
	c14.788,4.669,30.624,3.013,45.863,2.706c4.446-0.089,8.897-0.081,13.336,0.21c13.162,0.864,26.759,3.628,39.96,2.637
	c3.587-0.269,8.127-1.107,11.211,1.303c2.588,2.022,3.206,5.117,4.173,8.088c0.632,1.944,1.147,4,1.057,6.061
	c-0.174,3.967-2.749,6.688-6.303,8.15c-10.156,4.181-23.129,1.104-33.618-0.022c-9.381-1.007-18.865-1.841-28.308-1.746
	c-17.157,0.174-34.437,1.417-51.386-2.019c-3.449-0.699-7.3-2.171-9.553-5.061C538.758,450.968,539.987,443.165,543.241,439.003z
	 M684.422,517.978c-1.131,3.414-3.458,6.556-6.498,7.793c-6.66,2.709-14.435,0.214-21.22-0.541
	c-20.141-2.241-40.529-3.09-60.735-1.202c-6.969,0.651-13.98,1.392-20.981,0.785c-12.119-1.05-25.612-1.065-36.656-6.821
	c-6.449-3.361-7.806-12.459-3.449-17.809c6.096-7.486,19.733-4.104,27.932-3.872c11.84,0.336,23.691,0.082,35.533,0.319
	c6.748,0.135,13.489,0.351,20.22,0.864c17.131,1.307,34.758,1.813,51.742,4.344c6.318,0.941,13.659,2.598,14.757,10.103
	C685.344,513.82,685.095,515.947,684.422,517.978z"/>
</svg>
