<?xml version="1.0" encoding="utf-8"?>
<!-- Generator: Adobe Illustrator 17.0.0, SVG Export Plug-In . SVG Version: 6.00 Build 0)  -->
<!DOCTYPE svg PUBLIC "-//W3C//DTD SVG 1.1//EN" "http://www.w3.org/Graphics/SVG/1.1/DTD/svg11.dtd">
<svg version="1.1" id="Layer_1" xmlns="http://www.w3.org/2000/svg" xmlns:xlink="http://www.w3.org/1999/xlink" x="0px" y="0px"
	 width="1264.719px" height="1095.279px" viewBox="0 0 1264.719 1095.279" enable-background="new 0 0 1264.719 1095.279"
	 xml:space="preserve">
<g>
	<path d="M948.539,0H316.18L0,547.639l316.18,547.639h632.359l316.18-547.639L948.539,0z M928.332,1060.279H336.387L40.415,547.639
		L336.387,35h591.945l295.972,512.64L928.332,1060.279z"/>
	<path d="M413.335,357.6c0.867-0.508,1.631-1.102,2.313-1.753c1.383-1.123,2.423-2.693,3.03-4.669
		c0.023-0.065,0.043-0.13,0.07-0.214c0.326-0.977,0.526-1.995,0.606-3.03c0.536-3.19,0.859-6.424,1.398-9.616
		c4.589-27.171,10.643-53.957,22.779-78.913c6.752-13.885,14.721-26.922,29.41-34.134c12.127-5.954,25.643-6.706,38.882-5.377
		c6.249,0.627,7.382,3.769,9.501,9.167c2.961,7.543,6.984,14.658,12.204,20.873c4.604,5.482,10.56,8.221,17.568,8.91
		c9.86,0.97,18.864-1.878,27.572-6.141c11.217-5.491,22.562-10.731,33.662-16.448c5.361-2.761,10.703-5.869,15.305-9.716
		c5.573-4.659,8.758-11.135,6.618-18.534c-3.223-11.145-7.924-22.005-14.776-31.422c-3.292-4.524-7.064-8.932-11.358-12.537
		c-3.403-2.857-9.215-5.238-10.484-9.899c-1.512-5.565,3.405-13.143,5.949-17.845c3.515-6.495,7.999-12.419,12.896-17.929
		c17.981-20.23,39.257-30.789,67.119-24.904c4.87,1.029,9.651,2.261,14.361,3.659c1.971,0.873,3.932,1.773,5.888,2.697
		c5.438,3.289,10.657,6.901,15.827,10.858c7.083,5.422,19.026,13.899,28.382,10.885c5.308-1.71,7.978-5.74,8.564-10.063
		c1.6-4.107,0.31-8.681-4.378-12.315c-9.862-7.645-19.697-15.515-30.396-21.851c-18.492-10.952-38.782-16.835-60.44-14.891
		c-33.969,3.049-67.31,23.603-83.619,53.862c-3.371,6.255-5.692,12.964-8.057,19.642c-1.939,5.476-2.679,12.348-9.383,13.239
		c-10.213,1.357-20.122,5.162-27.721,12.274c-6.63,6.205-8.875,18.176-18.848,18.589c-33.209,1.373-64.438,15.253-85.383,41.558
		c-5.702,7.162-10.813,15.125-15.149,23.187c-7.191,13.37-10.957,28.229-13.581,43.091c-2.035,11.527-4.256,23.031-5.683,34.654
		c-1.235,10.061-2.595,21.21,2.249,30.571C399.361,359.161,407.687,360.908,413.335,357.6z"/>
	<path d="M886.06,779.841c-6.958-4.555-15.559-7.157-22.888-10.602c-7.754-3.645-15.809-6.126-23.74-1.415
		c-6.607,3.925-12.983,10.661-18.234,16.237c-3.032,3.219-6.011,7.297-7.535,11.495c-3.416,9.41,3.193,17.172,8.922,23.764
		c6.993,8.048,14.057,16.031,21.18,23.964c7.795,8.681,19.555,6.469,27.849,0.478c8.907-6.433,17.359-15.156,21.692-25.375
		c2.358-5.56,3.865-12.397,3.622-18.473c-0.194-4.848-2.268-12.628-5.887-16.136C889.521,782.306,887.844,781.009,886.06,779.841z"
		/>
	<path d="M907.033,474.331c-2.335,1.884-4.491,4.007-6.484,6.042c-6.564,6.7-12.801,13.707-19.083,20.669
		c-8.19,9.075-15.414,20.005-7.284,31.825c4.728,6.873,12.466,7.872,20.134,7.303c11.545-0.857,23.088-2.131,34.618-3.19
		c7.661-0.704,17.472-1.824,23.403-7.278c3.268-3.006,5.397-8.328,5.744-12.725c1.316-16.713-6.735-35.17-21.558-43.663
		c-5.841-3.347-12.974-6.142-19.735-4.322C913.223,469.95,909.984,471.95,907.033,474.331z"/>
	<path d="M322.823,561.714c2.854-10.246,4.86-21.04,6.157-31.605c1.575-12.827-2.037-26.922-16.43-30.002
		c-8.471-1.812-16.537,2.604-24.14,5.697c-7.808,3.177-16.323,3.59-24.41,5.722c-5.794,1.527-13.068,4.362-13.672,11.288
		c-0.374,4.285,2.074,7.946,4.033,11.535c2.017,3.694,3.609,7.582,4.947,11.57c2.636,7.859,4.691,16.391,10.743,22.462
		c6.454,6.475,15.328,7.101,23.923,7.92c7.095,0.676,15.367,0.874,21.529-3.27C319.568,570.298,321.58,566.176,322.823,561.714z"/>
	<path d="M864.445,481.363c5.984-6.017,12.025-12.034,18.519-17.503c5.211-4.389,11.383-9.418,12.195-16.673
		c0.908-8.124-7.222-13.894-13.226-17.48c-8.613-5.145-23.049-9.999-32.503-4.521c-3.976,2.304-6.397,6.482-8.686,10.311
		c-6.749,11.289-12.805,23.57-21.603,33.457c-3.573,4.015-7.161,9.754-5.017,15.296c3.179,8.214,17.627,15.046,25.89,15.337
		c9.13,0.321,15.469-9.029,21.141-14.874C862.243,483.588,863.341,482.472,864.445,481.363z"/>
	<path d="M752.585,882.861c-2.079-5.852-4.284-11.668-6.139-17.562c-2.15-6.831-3.106-14.614-9.143-19.356
		c-5.944-4.668-15.101-3.254-20.875,1.211c-13.431,10.386-12.774,30.662-16.096,45.719c-1.238,5.613-2.24,11.934-0.145,17.511
		c3.328,8.86,12.657,10.32,20.798,10.236c7.858-0.081,17.034,1.591,24.522-1.311c7.738-2.999,14.24-11.232,12.197-19.839
		C756.366,893.841,754.53,888.335,752.585,882.861z"/>
	<path d="M653.228,257.156c-1.063-1.561-2.289-2.956-3.635-4.099c-6.426-5.456-15.122-4.67-22.333-1.019
		c-9.83,4.977-19.574,10.123-29.405,15.098c-13.433,6.797-29.688,14.349-22.952,32.729c3.427,9.35,11.418,19.245,22.266,16.546
		c8.958-2.228,16.646-7.759,24.018-13.087c7.424-5.366,15.042-10.208,22.917-14.888
		C655.988,281.374,661.855,269.823,653.228,257.156z"/>
	<path d="M161.918,442.598c6.776,7.32,14.936,13.146,22.881,19.105c7.816,5.862,15.326,12.099,23.72,17.147
		c10.971,6.598,24.735,9.487,37.171,12.004c8.696,1.76,21.321,2.422,27.109-5.89c3.263-4.687,2.139-11.908-2.623-15.29
		c-3.381-2.401-7.847-3.057-11.626-4.664c-4.68-1.991-9.323-4.076-13.983-6.113c-10.806-4.722-21.582-9.551-31.979-15.128
		c-10.535-5.651-20.346-12.332-30.169-19.118c-3.626-2.504-7.205-5.24-11.78-5.516c-6.437-0.389-12.692,4.42-13.535,11.011
		C156.473,435.083,158.715,439.137,161.918,442.598z"/>
	<path d="M464.978,770.615c1.337,2.581,3.017,5.04,4.822,7.257c4.285,5.262,9.698,9.508,16.822,9.522
		c8.718,0.017,16.593-4.718,23.811-9.14c13.075-8.01,44.721-22.23,28.651-42.367c-13.425-16.821-33.42-3.318-49.257,1.123
		c-7.954,2.23-16.349,5.379-22.522,11.065C460.129,754.685,461.119,763.161,464.978,770.615z"/>
	<path d="M595.757,889.794c8.175-12.086,22.841-27.175,22.046-42.807c-0.222-4.372-2.638-8.719-5.759-11.749
		c-3.85-3.737-8.543-6.801-13.94-7.515c-4.325-0.572-10.889,0.569-14.513,3.145c-8.344,5.929-16.835,11.721-24.578,18.437
		c-5.584,4.844-13.375,11.19-13.917,19.16c-0.293,4.305,1.921,9.961,4.673,13.255c5.108,6.114,12.623,9.802,19.349,13.803
		C578.432,901.064,589.715,898.726,595.757,889.794z"/>
	<path d="M659.101,847.746c-7.32,0.001-13.475,3.272-17.09,9.797c-4.981,8.99-9.918,18.004-14.693,27.105
		c-3.851,7.339-10.02,16.589-4.983,24.811c3.389,5.532,9.348,10.416,15.349,12.787c12.5,4.939,27.104,3.674,31.499-11.204
		c3.067-10.381,6.187-20.753,8.751-31.274c1.684-6.909,2.672-14.767-0.467-21.419C674.339,851.724,666.336,847.744,659.101,847.746z
		"/>
	<path d="M513.718,839.323c6.848,3.84,13.978,3.492,20.558-0.925c7.567-5.081,15.026-10.338,22.668-15.304
		c6.29-4.087,12.686-8.449,15.101-15.945c2.134-6.626,0.79-14.191-4.245-19.146c-2.426-2.387-6.632-5.406-10.007-6.166
		c-7.501-1.689-14.375,2.338-20.798,5.638c-7.495,3.851-14.955,7.768-22.388,11.739c-6.852,3.66-13.549,8.745-14.78,16.935
		C498.319,826.182,505.496,834.713,513.718,839.323z"/>
	<path d="M361.094,577.789c8.276,2.988,16.566,0.788,22.088-6.308c8.442-10.848,30.174-30.267,20.042-45.579
		c-2.872-4.34-9.133-8.996-14.068-10.627c-6.813-2.252-15.607-5.278-22.797-3.429c-3.903,1.004-8.35,4.082-10.654,7.428
		c-3.658,5.312-4.732,12.018-5.418,18.294c-0.657,6.015-1.799,12.48-1.893,18.513C348.216,567.61,353.063,574.889,361.094,577.789z"
		/>
	<path d="M757.418,474.549c5.773,3.347,13.679,4.422,19.547,2.729c12.391-3.575,20.754-17.43,26.468-28.046
		c3.633-6.75,10.323-15.963,9.688-24.002c-0.554-7.004-6.026-11.235-12.285-13.013c-5.784-1.643-12.316-1.888-17.465,1.552
		c-4.633,3.095-7.59,7.895-10.967,12.184c-7.888,10.019-16.73,19.643-21.522,31.65C747.816,465.287,751.495,471.114,757.418,474.549
		z"/>
	<path d="M660.193,411.072c7.734,1.859,14.727-3.039,21.422-7.091c8.737-5.288,17.603-10.547,24.692-18.022
		c4.519-4.766,10.439-10.249,12.425-16.722c2.091-6.813-2.911-14.788-8.941-17.947c-8.539-4.473-17.029,0.94-23.995,5.717
		c-8.501,5.829-17.235,11.312-25.751,17.119c-5.98,4.077-15.239,7.797-17.418,15.399c-2.585,9.02,7.139,16.819,14.221,20.322
		C657.978,410.406,659.093,410.807,660.193,411.072z"/>
	<path d="M623.35,326.686c-5.981,5.576-10.092,12.339-8.22,20.309c2.302,9.802,12.561,16.082,22.157,13.84
		c5.895-1.377,11.118-5.107,16.186-8.242c13.677-8.461,33.632-14.262,31.29-33.944c-1.078-9.059-7.478-16.575-17.094-16.481
		c-9.37,0.092-17.146,6.881-24.88,11.328C637.18,316.721,629.33,321.11,623.35,326.686z"/>
	<path d="M448.973,661.792c2.372-0.785,4.728-1.81,7.031-2.857c6.466-2.939,12.861-6.024,19.298-9.024
		c5.241-2.442,11.186-4.575,14.425-9.7c2.17-3.433,2.659-10.542,2.121-14.475c-0.558-4.082-2.676-7.634-5.871-10.21
		c-5.779-4.658-13.603-5.525-20.592-3.549c-9.15,2.586-16.339,9.058-24.169,14.11c-5.433,3.506-11.904,6.716-14.84,12.824
		c-3.463,7.202-0.902,16.129,5.143,20.919C437.056,664.216,443.065,663.748,448.973,661.792z"/>
	<path d="M537.558,915.381c-4.924-1.899-10.74-1.472-15.307,1.623c-6.298,4.268-10.695,10.662-16.375,15.631
		c-5.435,4.755-11.621,8.727-15.507,14.993c-2.494,4.021-3.312,9.707-1.96,14.307c1.895,6.452,7.937,18.012,16.135,16.609
		c10.547-1.805,18.487-14.733,25.811-21.517c7.726-7.156,17.182-15.608,17.612-26.957
		C548.206,923.71,543.318,917.603,537.558,915.381z"/>
	<path d="M636.648,958.798c-1.209-5.127-5.411-9.987-10.522-11.018c-8.781-1.771-14.963,5.553-19.147,12.141
		c-5.551,8.741-9.26,18.802-13.369,28.266c-3.996,9.203-14.155,26.206-2.444,33.684c3.889,2.483,9.14,2.673,13.347,1.058
		c5.584-2.143,7.495-6.813,9.649-12.032c3.749-9.085,9.985-17.347,14.58-26.023c3.536-6.675,8.268-15.406,8.256-23.177
		C636.997,960.736,636.876,959.762,636.648,958.798z"/>
	<path d="M700.701,274.13c-1.486,2.334-2.648,4.843-3.26,7.589c-1.588,7.121,0.543,14.579,8.722,15.88
		c7.857,1.251,13.387-3.863,18.518-8.999c6.643-6.65,12.685-13.88,18.635-21.148c3.399-4.152,7.516-9.951,6.808-15.629
		c-0.749-6.016-6.443-11.487-12.754-10.732c-11.835,1.416-19.395,14.425-27.103,22.065
		C706.888,266.503,703.299,270.05,700.701,274.13z"/>
	<path d="M986.112,487.108c3.771,1.144,8.221,0.67,12.76-0.047c13.015-2.056,25.311-6.297,37.147-12.014
		c5.4-2.609,13.315-4.751,14.492-11.619c1.246-7.27-4.935-12.682-11.115-14.179c-6.496-1.573-12.955-0.856-19.41,0.535
		c-11.147,2.401-22.583,5.073-33.268,9.081c-9.382,3.519-12.443,12.304-8.243,21.277
		C980.327,484.099,982.986,486.16,986.112,487.108z"/>
	<path d="M482.077,849.04c-2.456-1.633-5.446-2.633-8.422-2.78c-7.839-0.386-15.518,2.489-22.323,6.138
		c-8.956,4.803-16.443,11.376-22.517,19.513c-3.591,4.811-8.495,12.601-6.167,18.879c2.032,5.48,8.418,9.073,14.058,7.979
		c6.318-1.226,11.103-5.981,15.776-10.048c6.309-5.49,12.908-11.192,20.572-14.697c5.251-2.401,11.076-5.053,13.605-10.635
		C489.393,857.358,486.669,852.094,482.077,849.04z"/>
	<path d="M1083.874,578.624c-1.939-4.502-5.937-8.216-10.701-9.023c-6.289-1.064-12.585-0.794-18.93-0.776
		c-7.514,0.022-15.026,0.074-22.539,0.031c-6.392-0.036-13.457,0.225-18.724,4.334c-4.706,3.672-6.22,11.05-5.257,16.749
		c1.354,8.016,9.726,12.793,16.958,13.792c10.406,1.436,21.235-0.87,31.398-2.94c8.538-1.739,21.72-1.476,27.144-9.736
		C1085.694,587.29,1085.604,582.643,1083.874,578.624z"/>
	<path d="M341.019,613.46c4.966-3.463,11.567-9.19,11.868-15.724c0.476-10.335-15.355-7.478-21.378-6.635
		c-14.218,1.989-25.417,12.795-37.6,19.456c-5.481,2.996-13.246,6.881-12.817,14.309c0.336,5.798,6.268,11.802,12.044,12.072
		c6.319,0.295,11.326-5.036,16.836-7.27c8.223-3.334,16.239-7.305,23.933-11.733C335.665,616.922,338.281,615.369,341.019,613.46z"
		/>
	<path d="M953.365,857.689c-6.444-7.914-13.597-15.292-23.068-19.314c-5.927-2.517-13.82-2.292-19.337,1.204
		c-9.992,6.332-7.473,19.251-0.689,26.958c4.474,5.081,10.309,7.998,16.029,11.381c7.386,4.368,13.211,10.068,19.983,15.219
		c4.66,3.544,10.579,6.832,16.464,4.182c5.209-2.346,8.846-9.678,8.585-15.323c-0.273-5.891-6.056-9.103-9.347-13.294
		C959.157,865.1,956.336,861.337,953.365,857.689z"/>
	<path d="M541.689,302.448c-6.727-0.62-14.008,2.854-20.035,6.218c-7.231,4.035-14.747,7.509-22.052,11.401
		c-5.835,3.109-13.269,7.353-14.814,14.376c-1.611,7.319,3.909,13.666,10.959,14.583c17.815,2.316,32.79-9.476,48.685-15.082
		c4.299-1.516,9.434-7.985,10.753-12.198c1.574-5.026-0.057-10.468-3.573-14.278C548.635,304.242,545.24,302.775,541.689,302.448z"
		/>
	<path d="M941.198,366.631c-2.657-5.5-9.319-11.753-15.862-10.908c-7.601,0.981-9.396,10.08-12.506,15.609
		c-3.599,6.398-8.334,12.073-12.299,18.237c-2.954,4.592-7.324,11.255-4.731,16.914c3.476,7.586,18.644,7.035,24.496,3.363
		c7.601-4.77,12.753-13.497,16.329-21.493C939.23,382.528,944.324,373.102,941.198,366.631z"/>
	<path d="M444.373,798.956c3.036-3.231,4.829-7.135,3.733-11.874c-0.923-3.993-6.183-9.413-10.022-10.73
		c-5.943-2.038-10.961,1.531-15.683,4.705c-6.326,4.252-12.659,8.494-18.899,12.872c-8.062,5.655-22.013,7.835-19.439,20.726
		c1.221,6.117,5.793,11.909,12.741,11.535c5.979-0.322,10.687-4.074,15.438-7.301C422.369,812.01,435.71,808.175,444.373,798.956z"
		/>
	<path d="M1026.29,778.659c-2.93-2.215-6.427-3.776-9.686-5.325c-8.042-3.825-14.065-9.457-21.217-14.548
		c-9.109-6.483-25.15-9.981-34.503-2.063c-5.412,4.582-6.805,13.398-3.712,19.807c9.073,18.792,32.064,15.586,48.952,20.369
		c7.037,1.993,13.915,7.056,20.948,2.108c5.208-3.664,6.836-10.85,3.36-16.06C1029.305,781.256,1027.881,779.861,1026.29,778.659z"
		/>
	<path d="M400.345,688.531c2.249-1.23,4.435-2.543,6.497-4.005c6.895-4.889,10.829-13.83,1.55-18.348
		c-3.571-1.739-9.671-3.098-13.63-2.484c-15.551,2.414-25.647,17.023-40.944,20.143c-7.442,1.518-15.157,5.713-14.573,14.387
		c0.505,7.508,6.688,11.655,13.801,11.244c11.443-0.662,20.775-6.92,30.43-12.339C388.894,694.088,394.813,691.558,400.345,688.531z
		"/>
	<path d="M752.064,498.712c-0.263-0.51-0.602-1.024-1.025-1.54c-3.711-4.526-9.9-5.445-15.079-7.265
		c-5.085-1.787-7.482,0.496-11.038,3.869c-4.842,4.593-9.887,9.086-15.453,12.791c-5.851,3.894-10.049,8.677-5.418,15.495
		c2.831,4.169,7.966,7.951,12.892,9.039c5.575,1.232,9.887-1.998,13.457-5.968c4.289-4.771,9.314-8.332,14.346-12.23
		C748.788,509.77,755.035,504.483,752.064,498.712z"/>
	<path d="M341.683,665.19c0.13-0.092,0.259-0.184,0.387-0.275c8.591-6.119,18.744-10.329,27.795-15.755
		c5.716-3.426,14.024-5.345,16.374-12.488c2.219-6.744-4.042-11.82-9.771-13.232c-6.638-1.636-14.329-0.487-20.367,2.657
		c-7.276,3.788-13.504,9.195-20.855,12.958c-6.805,3.483-13.883,7.362-17.872,14.164c-3.741,6.381-0.267,15.582,6.655,17.611
		C330.254,672.656,336.728,668.69,341.683,665.19z"/>
	<path d="M743.94,950.936c-4.523-5.316-14.212-6.226-20.116-2.546c-6.548,4.082-7.322,12.102-7.043,19.131
		c0.37,9.338,1.621,18.637,1.452,27.995c-0.193,10.674-1.902,24.442,5.041,33.515c4.099,5.358,13.899,7.114,18.343,1.217
		c3.191-4.234,4.542-9.851,5.087-15.024c1.08-10.249,0.639-20.648,1.057-30.935c0.236-5.818,0.24-11.651,0.173-17.474
		c-0.063-5.444-0.248-11.303-3.861-15.721C744.028,951.041,743.984,950.988,743.94,950.936z"/>
	<path d="M461.183,518.349c-3.765,4.624-6.81,9.622-8.036,15.215c-1.741,7.948,4.202,16.328,11.805,17.962
		c10.443,2.244,13.849-6.719,18.408-14.049c7.823-12.577,25.204-20.183,26.547-36.371c0.717-8.645-7.337-14.381-15.156-12.542
		c-7.099,1.669-12.228,7.251-16.965,12.416C472.773,506.447,466.311,512.051,461.183,518.349z"/>
	<path d="M744.504,302.993c-2.486,2.397-4.924,4.821-7.144,7.378c-3.976,4.58-10.242,12.286-7.733,18.842
		c1.325,3.464,5.807,6.242,9.231,7.258c3.94,1.169,8.589,1.343,11.882-1.488c3.499-3.008,3.856-8.81,6.087-12.725
		c6.049-10.614,16.823-17.042,25.872-24.78c6.828-5.84,2.574-12.049-2.594-16.677c-9.047-8.104-16.398,0.399-21.647,7.486
		C754.492,293.64,749.406,298.266,744.504,302.993z"/>
	<path d="M566.489,361.949c-2.863,0.947-5.717,1.919-8.517,3.049c-10.422,4.205-21.286,10.301-25.596,21.3
		c-2.431,6.204-2.024,16.275,6.096,18.147c6.257,1.442,12.338-3.436,17.498-6.259c6.219-3.403,12.554-6.591,18.958-9.63
		c7.504-3.562,17.36-6.639,21.028-14.878c2.145-4.818,0.593-11.066-3.427-14.405c-5.361-4.453-12.353-2.054-18.172,0.027
		C571.75,360.231,569.116,361.08,566.489,361.949z"/>
	<path d="M1054.531,681.619c-2.009-0.663-4.045-1.211-5.898-1.788c-9.766-3.043-17.962-9.591-27.711-12.654
		c-11.631-3.654-28.056,0.468-28.097,15.395c-0.032,11.82,11.439,16.516,21.401,17.887c7.756,1.067,15.359,3.103,22.974,4.876
		c6.974,1.623,14.888,3.344,21.728,0.3c5.445-2.423,8.082-8.121,7.019-13.826C1064.842,685.879,1059.78,683.352,1054.531,681.619z"
		/>
	<path d="M794.698,366.478c1.497-1.638,2.976-3.292,4.447-4.956c5.475-6.194,10.236-13.238,15.437-19.679
		c3.376-4.181,5.886-8.98,8.991-13.356c2.817-3.97,6.102-8.081,6.469-13.138c0.418-5.765-5.032-7.533-9.811-7.277
		c-6.437,0.345-11.246,6.076-15.538,10.252c-6.62,6.442-12.673,13.438-18.738,20.396c-4.408,5.057-10.522,9.51-11.896,16.501
		c-1.283,6.528,3.054,14.334,10.088,15.023C787.323,370.556,792.493,368.891,794.698,366.478z"/>
	<path d="M882.478,948.02c-3.777-4.204-8.536-8.025-11.536-11.465c-6.842-7.844-11.996-17.234-20.071-23.951
		c-6.88-5.723-17.049-12.193-26.328-8.086c-5.249,2.323-10.991,7.587-10.58,13.807c0.212,3.2,2.19,7.95,4.432,10.265
		c3.76,3.883,8.732,6.315,12.854,9.77c4.878,4.089,9.167,8.827,13.504,13.469c4.835,5.175,10.307,9.688,16.086,13.766
		c6.853,4.836,17.927,10.375,24.497,1.997C891.026,960.335,887.683,953.814,882.478,948.02z"/>
	<path d="M414.595,742.774c3.424-1.576,6.637-3.448,9.186-6.045c7.321-7.461,1.352-17.336-7.71-19.311
		c-5.997-1.307-12.456,0.571-18.038,2.73c-6.823,2.639-13.788,5.68-20.071,9.431c-7.672,4.58-16.902,11.249-18.306,20.796
		c-0.624,4.242,2.322,10.916,6.326,12.953c6.482,3.299,11.613-0.638,16.594-4.571c5.682-4.487,12.208-7.373,18.706-10.453
		C405.423,746.341,410.184,744.804,414.595,742.774z"/>
	<path d="M674.061,458.435c-4.904,2.096-9.65,5.662-12.961,8.365c-3.443,2.811-7.102,5.629-10.243,8.778
		c-4.312,4.322-4.757,9.025-1.625,14.371c3.75,6.402,10.847,7.186,17.102,4.484c6.629-2.863,10.915-8.606,16.606-12.758
		c2.014-1.47,4.281-2.65,6.142-4.32c5.091-4.568,4.428-13.709-0.584-18.117C684.36,455.596,678.769,456.422,674.061,458.435z"/>
	<path d="M633.367,429.065c1.275-4.839-1.992-9.279-5.835-13.267c-7.387-7.665-13.713-6.999-21.719-0.352
		c-8.62,7.158-38.546,18.642-24.376,33.67c9.508,10.083,25.198-1.6,34.334-6.064c5.339-2.609,11.736-5.233,15.517-10.013
		C632.358,431.687,633.026,430.362,633.367,429.065z"/>
	<path d="M537.266,654.663c1.903,7.163,8.646,14.471,16.627,11.8c7.237-2.422,10.282-10.826,16.29-14.96
		c8.54-5.876,21.565-8.306,25.306-19.275c1.2-3.518-0.681-10.269-3.052-12.992c-2.518-2.893-6.395-3.772-10.082-3.359
		c-7.524,0.844-14.571,5.891-20.605,10.123c-2.706,1.898-5.43,3.762-8.216,5.543c-5.321,3.401-13.179,8.69-15.901,14.52
		C536.473,648.545,536.459,651.625,537.266,654.663z"/>
	<path d="M572.196,720.662c4.509-1.972,8.254-5.495,12.072-8.62c7.47-6.115,28.87-23.475,21.1-34.992
		c-4.794-7.106-17.326-2.692-22.614,1.52c-6.374,5.078-13.014,9.816-19.385,14.892c-5.426,4.324-10.758,10.25-9.631,17.728
		c0.956,6.347,6.823,11.631,13.176,10.918C568.803,721.895,570.551,721.382,572.196,720.662z"/>
	<path d="M851.02,662.567c1.635-1.341,2.85-3.293,3.403-6.05c0.674-3.364-0.791-9.794-3.581-12.077
		c-4.983-4.077-12.873-2.824-18.843-3.893c-5.246-0.939-10.401-2.231-15.498-3.774c-5.34-1.616-11.587-3.763-16.732-0.46
		c-5.908,3.793-5.954,12.779-1.247,17.553c4.329,4.392,10.218,6.128,16.144,7.083c7.247,1.169,14.507,2.198,21.722,3.57
		C841.552,665.503,847.346,665.578,851.02,662.567z"/>
	<path d="M578.872,767.846c8.425,3.578,18.186-2.467,22.147-9.939c5.214-9.836,32.969-18.644,20.885-33.694
		c-4.291-5.344-11.496-5.292-17.086-1.999c-8.169,4.814-16.143,11.387-23.034,17.869c-4.991,4.695-9.829,10.714-9.485,17.978
		C572.537,763.071,575.258,766.311,578.872,767.846z"/>
	<path d="M838.209,710.7c5.496-4.382,5.515-12.547,0.042-17.562c-6.5-5.957-15.006-7.431-23.335-9.056
		c-6.769-1.321-19.854-7.528-26.118-2.058c-6.819,5.955-1.173,13.492,3.974,17.939c6.382,5.513,14.492,8.068,22.398,10.551
		c7.089,2.226,14.564,5.314,21.641,1.147C837.311,711.366,837.777,711.045,838.209,710.7z"/>
	<path d="M620.187,809.56c9.637,1.216,13.024-4.789,14.986-12.954c1.725-7.18,7.804-12.716,9.564-19.894
		c1.868-7.621-3.925-14.879-11.919-14.384c-8.867,0.551-13.942,8.786-18.029,15.585c-4.055,6.745-9.284,14.828-6.533,23.021
		C609.881,805.773,614.909,808.895,620.187,809.56z"/>
	<path d="M716.19,818.636c3.37,0.798,7.513-0.317,11.156-1.828c8.206-3.406,7.047-12.179,5.291-19.2
		c-2.136-8.541-5.299-18.337-11.1-25.11c-2.942-3.434-9.188-2.688-12.341,0.21c-5.01,4.604-3.617,16.303-2.617,22.257
		c0.988,5.881,2.046,11.928,3.758,17.647C711.423,816.245,713.574,818.016,716.19,818.636z"/>
	<path d="M679.561,780.422c-3.271-1.468-7.249-1.183-10.194,1.605c-5.763,5.456-7.691,14.8-9.931,22.149
		c-1.852,6.076-1.644,14.463,3.552,18.927c5.203,4.47,12.729,4.279,17.21-0.701c5.682-6.314,6.812-15.792,6.95-23.898
		C687.259,792.061,686.332,783.462,679.561,780.422z"/>
	<path d="M859.464,606.496c3.215-5.52,3.075-12.797-2.376-17.069c-8.287-6.493-18.797,0.84-27.74,1.307
		c-5.655,0.295-11.751-0.207-17.041,2.158c-5.923,2.649-10.712,9.418-7.134,16.082c1.45,2.7,4.931,5.707,7.804,6.792
		c4.7,1.775,10.044,0.832,14.937,0.683c5.725-0.174,11.47-0.216,17.157-0.97C851.071,614.683,856.363,611.811,859.464,606.496z"/>
	<path d="M450.118,706.184c0.793,1.834,1.952,3.506,3.522,4.899c6.054,5.37,15.553,4.149,22.818,2.587
		c10.499-2.258,20.532-6.153,30.522-10.015c7.602-2.939,14.872-7.87,15.244-16.767c0.273-6.533-1.947-14.602-6.711-19.218
		c-6.292-6.097-15.933-4.271-23.308-1.254c-4.458,1.823-9.041,4.325-13.719,5.509c-9.362,2.37-19.947,6.586-25.755,14.716
		C448.916,691.981,447.443,700.001,450.118,706.184z"/>
	<path d="M445.11,559.277c-17.608-14.397-30.453,6.124-40.05,18.846c-3.651,4.84-7.408,10.058-6.992,16.436
		c0.832,12.747,15.107,19.284,25.854,13.503c6.871-3.696,13.791-7.312,20.446-11.391c11.99-7.349,16.608-19.615,6.74-31.376
		C449.367,563.221,447.35,561.108,445.11,559.277z"/>
	<path d="M391.229,497.039c10.635-4.286,14.345-15.517,17.817-25.38c3.538-10.052,13.776-29.091,2.913-38.019
		c-7.14-5.868-16.279-2.386-20.709,4.657c-4.089,6.501-6.102,14.172-8.168,21.478c-1.239,4.381-2.912,8.61-4.755,12.773
		c-2.213,4.998-5.145,10.18-4.56,15.843C374.573,496.2,384.896,499.592,391.229,497.039z"/>
	<path d="M228.911,537.626c-4.099-2.115-8.829-3.479-12.604-5.057c-8.808-3.682-17.54-7.627-26.794-10.088
		c-9.838-2.616-20.034-2.853-30.15-2.581c-9.904,0.267-19.901,0.335-29.788,0.906c-5.245,0.302-10.559,1.094-15.275,3.54
		c-6.862,3.559-8.534,15.479-2.295,20.427c3.803,3.016,9.518,3.088,14.122,3.309c16.643,0.799,33.108,1.211,49.65,3.58
		c9.624,1.378,19.171,3.295,28.757,4.914c8.452,1.428,17.988,9.214,26.577,4.465c4.675-2.585,7.992-7.644,6.783-13.182
		C236.809,542.883,233.206,539.842,228.911,537.626z"/>
	<path d="M702.533,199.115c-8.382-0.022-15.613,7.458-22.15,11.834c-6.809,4.558-15.701,12.229-17.067,20.876
		c-0.786,4.978,2.273,9.72,5.967,12.867c8.502,7.241,16.481,1.963,21.583-5.801c2.583-3.93,5.322-6.929,9.061-9.8
		c4.996-3.837,11.721-7.767,13.799-14.092c2.311-7.032-2.759-15.516-10.601-15.87C702.928,199.12,702.73,199.116,702.533,199.115z"
		/>
	<path d="M947.539,641.639c-6.237-1.684-12.66-2.058-19.113-2.002c-5.234,0.046-10.457,0.45-15.691,0.155
		c-12.142-0.685-26.638-0.002-31.557,13.321c-2.747,7.439-4.15,18.181,1.408,24.706c2.805,3.293,8.338,6.563,12.601,7.389
		c11.422,2.213,22.863,4.319,34.313,6.381c9.324,1.679,19.596,4.628,27.737-1.974c3.355-2.721,6.258-8.449,7.937-12.344
		c6.644-15.412-0.462-30.417-16.172-35.211C948.516,641.911,948.028,641.771,947.539,641.639z"/>
	<path d="M771.163,732.82c3.777,6.808,11.209,11.883,16.594,17.445c6.233,6.439,17.388,17.232,26.797,9.953
		c4.761-3.683,5.454-11.779,4.035-17.121c-1.853-6.973-8.049-12.029-13.954-15.623c-6.003-3.653-12.174-4.708-18.773-6.733
		c-3.474-1.066-7.979-3.52-11.56-1.544c-2.927,1.615-4.285,5.639-4.414,8.761C769.815,729.693,770.327,731.312,771.163,732.82z"/>
	<path d="M705.666,449.996c2.762,1.491,5.702,2.416,8.525,2.561c6.658,0.342,12.367-2.107,16.409-7.464
		c7.832-10.381,15.499-20.893,23.554-31.098c3.919-4.964,6.143-10.311,6.985-16.527c1.131-8.354-2.109-15.047-9.073-17.669
		c-7.153-2.693-14.571-0.465-18.466,7.058c-6.345,12.254-16.54,20.306-27.594,28.065c-3.288,2.308-6.476,4.796-9.097,7.862
		c-1.908,2.232-3.817,4.847-3.982,7.887C692.504,438.42,698.483,446.12,705.666,449.996z"/>
	<path d="M776.439,776.78c-3.905-9.946-15.776-16.255-22.65-23.885c-5.259-5.837-15.223,1.003-14.87,7.945
		c0.422,8.306,6.922,16.05,11.423,22.637c3.723,5.449,7.86,13.024,15.58,12.252c8.258-0.826,13.229-10.026,11.055-17.387
		C776.819,777.812,776.64,777.291,776.439,776.78z"/>
	<path d="M825.802,861.474c-0.133-1.231-0.406-2.495-0.837-3.793c-2.132-6.416-7.02-11.633-11.655-16.374
		c-5.082-5.197-8.142-11.286-14.514-15.352c-5.764-3.678-12.959-5.628-19.747-4.143c-15.067,3.296-15.372,19.655-11.538,31.65
		c2.211,6.916,5.679,13.191,8.726,19.741c2.297,4.937,3.326,10.832,6.146,15.455c4.659,7.638,16.386,5.366,22.48,1.006
		C813.989,883.137,827.152,873.995,825.802,861.474z"/>
	<path d="M916.405,761.497c8.945-4.277,15.773-13.906,17.616-23.321c2.909-14.861-7.035-24.885-20.675-27.774
		c-8.364-1.771-16.707-3.688-25.188-4.832c-6.721-0.906-13.983-1.016-19.29,3.904c-6.185,5.734-11.201,17.542-8.079,25.747
		c2.798,7.353,10.036,12.274,16.681,15.853c5.645,3.04,11.621,5.375,17.457,8.009c5.407,2.441,10.874,5.591,17.016,4.038
		C913.477,762.732,914.969,762.184,916.405,761.497z"/>
	<path d="M954.413,556.948c-7.189,0.276-14.831,2.292-21.83,3.704c-16.794,3.386-42.171,3.513-43.344,26.207
		c-0.201,3.894,0.238,9.099,1.876,12.697c3.499,7.689,10.948,15.189,19.767,16.132c9.053,0.968,18.166,1.494,27.178,2.798
		c8.725,1.263,17.749,3.118,26.548,1.447c10.52-1.997,15.805-10.879,16.641-20.816c0.803-9.552,0.713-21.573-3.977-30.163
		C971.851,559.026,963.494,556.599,954.413,556.948z"/>
	<path d="M548.274,583.983c6.831-6.098,14.419-13.242,13.166-21.709c-0.851-5.75-6.906-10.958-12.983-10.43
		c-6.818,0.592-12.22,6.301-16.914,10.728c-2.581,2.434-4.989,5.116-7.648,7.46c-3.954,3.485-8.112,6.745-12.01,10.294
		c-4.113,3.745-8.01,8.214-7.225,14.201c1.495,11.398,15.05,15.671,23.97,9.488c5.142-3.564,8.659-9.144,12.88-13.701
		C543.341,588.337,545.756,586.231,548.274,583.983z"/>
	<path d="M833.769,533.03c-8.846-0.479-18.172,8.6-25.109,13.278c-6.074,4.096-12.467,9.594-11.149,17.742
		c1.064,6.574,8.151,7.857,13.63,7.76c7.886-0.14,14.439-4.01,20.458-8.777c4.374-3.464,10.354-5.327,13.673-10.024
		c3.926-5.558,0.931-12.324-3.662-16.514C839.093,534.201,836.453,533.175,833.769,533.03z"/>
	<path d="M754.865,539.626c0.385,1.845,1.314,3.729,2.946,5.633c2.587,3.018,6.295,4.343,10.213,3.81
		c4.415-0.602,8.112-3.093,11.612-5.684c3.503-2.593,7.453-4.791,10.736-7.646c3.668-3.19,7.284-6.642,10.369-10.404
		c2.854-3.481,7.387-9.057,4.833-13.836c-2.71-5.072-9.769-5.566-14.764-5.053c-7.105,0.729-10.708,4.403-16.026,8.742
		c-5.541,4.522-12.557,7.639-17.101,13.323C755.336,531.448,754.08,535.858,754.865,539.626z"/>
	<path d="M824.864,384.346c0.013,0.037,0.027,0.074,0.041,0.112c2.343,6.3,12.266,10.602,18.499,8.127
		c8.516-3.381,11.609-14.301,17.098-20.746c5.522-6.484,12.197-13.043,14.881-21.379c1.944-6.037-1.956-13.738-7.392-16.394
		c-7.633-3.73-12.851,3.528-16.918,8.954c-3.785,5.051-7.475,10.213-11.53,15.054C834.007,364.683,821.266,374.317,824.864,384.346z
		"/>
</g>
</svg>
