<?xml version="1.0" encoding="utf-8"?>
<!-- Generator: Adobe Illustrator 17.0.0, SVG Export Plug-In . SVG Version: 6.00 Build 0)  -->
<!DOCTYPE svg PUBLIC "-//W3C//DTD SVG 1.1//EN" "http://www.w3.org/Graphics/SVG/1.1/DTD/svg11.dtd">
<svg version="1.1" id="Layer_1" xmlns="http://www.w3.org/2000/svg" xmlns:xlink="http://www.w3.org/1999/xlink" x="0px" y="0px"
	 width="1264.719px" height="1095.279px" viewBox="0 0 1264.719 1095.279" enable-background="new 0 0 1264.719 1095.279"
	 xml:space="preserve">
<g>
	<path d="M928.332,35l295.972,512.64l-295.972,512.639H336.387L40.415,547.639L336.387,35H928.332 M948.539,0H316.18L0,547.639
		l316.18,547.639h632.359l316.18-547.639L948.539,0L948.539,0z"/>
</g>
<g>
	<path d="M674.673,427.449c7.815,1.183,15.622,2.601,23.488,3.229c24.607,1.964,49.256,3.402,73.858,5.417
		c35.569,2.912,70.879,1.364,105.76-6.233c28.107-6.121,54.459-17.465,80.556-29.201c25.324-11.388,49.747-24.465,69.941-44.044
		c12.071-11.703,22.111-24.963,22.322-42.587c0.267-22.328-6.308-32.505-23.593-40.297c-9.932-4.477-20.406-6.807-31.223-7.381
		c-17.51-0.929-34.756,1.586-51.886,4.793c-23.836,4.462-47.167,10.529-69.111,21.331c-7.594,3.738-15.675,6.864-23.872,8.931
		c-25.725,6.485-52.233,7.581-78.467,10.609c-17.733,2.047-35.7,3.633-52.938,7.93c-14.424,3.596-27.944,10.821-41.861,16.447
		c-4.186,1.692-8.361,3.41-13.125,5.354c0.652-5.713,1.38-10.691,1.736-15.695c0.245-3.444,1.645-5.674,4.553-7.666
		c21.019-14.404,41.923-28.977,62.836-43.535c6.152-4.283,7.104-7.568,4.281-14.592c-6.013-14.96-12.219-29.844-18.009-44.889
		c-1.032-2.683-1.12-6.147-0.465-8.978c1.564-6.762,3.874-13.35,5.803-20.031c1.804-6.246-0.633-11.457-5.98-13.01
		c-5.435-1.579-10.309,1.375-12.202,7.535c-2.6,8.461-5.441,16.872-7.489,25.469c-0.817,3.428-0.684,7.628,0.545,10.904
		c5.161,13.76,10.797,27.346,16.502,40.895c1.375,3.266,0.806,4.912-2.119,6.884c-13.121,8.846-26.059,17.962-39.069,26.973
		c-3.347,2.318-6.716,4.607-10.017,6.869c-8.209-8.963-8.065-8.926-5.322-19.838c0.799-3.178,2.288-4.518,5.333-5.642
		c10.921-4.032,17.358-12.018,18.279-23.727c0.931-11.839-3.879-21.149-14.398-26.749c-10.441-5.559-20.744-4.499-30.345,2.526
		c-2.749,2.011-4.815,4.325-6.401,6.843c-1.586-2.518-3.652-4.831-6.401-6.843c-9.601-7.025-19.904-8.085-30.345-2.526
		c-10.519,5.6-15.328,14.91-14.398,26.749c0.921,11.709,7.358,19.695,18.279,23.727c3.044,1.124,4.534,2.464,5.333,5.642
		c2.743,10.912,2.887,10.876-5.322,19.838c-3.301-2.263-6.669-4.551-10.017-6.869c-13.01-9.01-25.948-18.127-39.069-26.973
		c-2.926-1.972-3.494-3.619-2.119-6.884c5.704-13.548,11.341-27.135,16.502-40.895c1.229-3.276,1.362-7.476,0.545-10.904
		c-2.048-8.597-4.889-17.007-7.489-25.469c-1.893-6.16-6.767-9.113-12.202-7.535c-5.346,1.553-7.784,6.764-5.98,13.01
		c1.93,6.681,4.239,13.269,5.803,20.031c0.655,2.831,0.568,6.295-0.465,8.978c-5.79,15.045-11.996,29.929-18.009,44.889
		c-2.823,7.023-1.871,10.309,4.281,14.592c20.913,14.559,41.816,29.131,62.836,43.535c2.908,1.993,4.309,4.222,4.553,7.666
		c0.356,5.004,1.084,9.982,1.736,15.695c-4.764-1.944-8.939-3.662-13.125-5.354c-13.917-5.626-27.437-12.851-41.861-16.447
		c-17.238-4.298-35.205-5.883-52.938-7.93c-26.234-3.028-52.743-4.124-78.467-10.609c-8.196-2.066-16.278-5.193-23.872-8.931
		c-21.944-10.802-45.275-16.868-69.11-21.331c-17.13-3.207-34.377-5.722-51.886-4.793c-10.818,0.574-21.291,2.904-31.223,7.381
		c-17.285,7.791-23.86,17.968-23.593,40.297c0.211,17.624,10.251,30.883,22.322,42.587c20.194,19.579,44.617,32.657,69.941,44.044
		c26.097,11.736,52.449,23.079,80.556,29.201c34.88,7.596,70.19,9.145,105.76,6.233c24.602-2.014,49.251-3.453,73.858-5.417
		c7.865-0.628,15.673-2.046,23.488-3.229c7.34-1.112,9.886,0.9,9.773,8.146c-0.054,3.455-0.316,6.908-0.528,11.275
		c-8.881,0.898-17.626,2.006-26.405,2.633c-47.196,3.367-94.47,5.847-141.584,10.104c-53.609,4.844-106.158,15.26-155.483,37.839
		c-10.803,4.945-20.96,11.845-30.363,19.191c-17.31,13.522-22.838,31.871-19.13,53.354c5.482,31.765,23.176,49.095,57.608,54.413
		c15.592,2.408,31.47,2.98,47.224,4.318c20.332,1.727,40.641,4.126,61.012,4.932c51.792,2.047,103.199-0.643,153.012-16.779
		c16.669-5.4,32.287-12.925,44.885-25.69c3.251-3.294,4.631-6.592,4.214-11.327c-0.97-11.027-1.353-22.106-1.921-33.166
		c-0.304-5.915,3.166-10.18,8.486-10.588c5.914-0.453,10.007,2.803,10.4,9.104c1.27,20.371,2.273,40.758,3.389,61.139
		c0.189,3.45,0.429,6.896,0.664,10.632c5.749,0,11.331,0.134,16.847,0.11c5.515,0.024,11.097-0.11,16.846-0.11
		c0.235-3.735,0.475-7.182,0.664-10.632c1.116-20.38,2.12-40.768,3.389-61.139c0.393-6.301,4.486-9.557,10.4-9.104
		c5.321,0.408,8.79,4.673,8.486,10.588c-0.568,11.061-0.951,22.14-1.921,33.166c-0.417,4.736,0.963,8.033,4.214,11.327
		c12.598,12.764,28.216,20.29,44.885,25.69c49.813,16.136,101.22,18.826,153.012,16.779c20.37-0.805,40.679-3.205,61.012-4.932
		c15.754-1.338,31.632-1.91,47.224-4.318c34.432-5.318,52.126-22.648,57.608-54.413c3.708-21.483-1.82-39.831-19.13-53.354
		c-9.403-7.345-19.559-14.246-30.363-19.191c-49.325-22.578-101.875-32.995-155.483-37.839
		c-47.114-4.257-94.388-6.738-141.584-10.104c-8.779-0.626-17.524-1.734-26.405-2.633c-0.212-4.367-0.474-7.82-0.528-11.275
		C664.788,428.349,667.333,426.337,674.673,427.449z M668.159,368.939c0.5-4.652,3.864-7.529,9.424-8.449
		c18.875-3.123,37.831-5.862,56.569-9.67c13.44-2.731,26.701-6.544,39.827-10.575c20.115-6.177,40.844-6.314,61.522-7.438
		c18.305-0.996,36.606-2.155,54.873-3.681c3.59-0.3,7.286-2.15,10.467-4.062c18.48-11.108,37.171-21.682,58.405-26.759
		c14.677-3.509,29.392-4.37,44.166-0.655c6.402,1.61,9.557,6.208,8.158,11.695c-1.452,5.693-6.2,8.309-12.521,6.789
		c-19.454-4.677-37.672-0.101-55.37,7.622c-6.942,3.03-13.65,6.632-20.323,10.235c-8.961,4.839-17.786,9.931-26.305,14.71
		c5.133,3.79,11.114,8.082,16.95,12.563c3.418,2.625,4.539,6.731,2.806,10.221c-1.351,2.72-4.53,5.164-7.449,6.255
		c-1.988,0.743-5.526-0.333-7.351-1.835c-23.602-19.42-50.781-25.051-80.769-23.681c-22.668,1.035-43.663,8.117-65.334,13.117
		c-24.625,5.682-49.693,9.45-74.591,13.926c-2.269,0.408-4.82,0.355-7.03-0.25C670.052,377.858,667.665,373.543,668.159,368.939z
		 M590.865,379.017c-2.21,0.605-4.761,0.658-7.03,0.25c-24.898-4.476-49.966-8.244-74.591-13.926
		c-21.671-5.001-42.667-12.082-65.334-13.117c-29.987-1.369-57.167,4.262-80.769,23.681c-1.825,1.502-5.363,2.578-7.351,1.835
		c-2.918-1.091-6.098-3.535-7.448-6.255c-1.733-3.49-0.612-7.596,2.806-10.221c5.835-4.481,11.816-8.773,16.949-12.563
		c-8.519-4.779-17.344-9.872-26.305-14.71c-6.673-3.603-13.381-7.206-20.323-10.235c-17.698-7.723-35.916-12.298-55.37-7.622
		c-6.321,1.52-11.069-1.096-12.521-6.789c-1.399-5.487,1.756-10.085,8.158-11.695c14.773-3.715,29.489-2.855,44.166,0.655
		c21.234,5.077,39.924,15.652,58.405,26.759c3.181,1.912,6.877,3.762,10.467,4.062c18.266,1.526,36.568,2.686,54.873,3.681
		c20.678,1.125,41.407,1.261,61.522,7.438c13.126,4.031,26.387,7.844,39.827,10.575c18.738,3.808,37.694,6.547,56.569,9.67
		c5.56,0.92,8.924,3.797,9.424,8.449C597.482,373.543,595.095,377.858,590.865,379.017z M509.678,602.03
		c-5.727,2.292-11.064,0.494-13.254-4.466c-2.237-5.067-0.059-9.777,5.358-12.969c1.944-1.146,3.757-3.23,4.641-5.307
		c1.767-4.149,4.711-6.148,8.96-6.681c5.12-0.095,9.311,3.934,9.534,9.167C525.275,590.112,519.164,598.234,509.678,602.03z
		 M577.414,489.375c-6.406,2.259-12.847,4.417-19.24,6.71c-1.285,0.461-2.829,1.029-3.572,2.046
		c-11.137,15.248-22.163,30.548-23.262,50.47c-0.28,5.079-4.675,8.668-9.67,8.541c-4.995-0.127-8.93-3.871-9.198-9.034
		c-0.122-2.354-0.256-4.889,0.45-7.073c3.192-9.879,6.663-19.668,10.088-29.471c0.482-1.38,1.262-2.657,2.593-5.402
		c-28.348,11.339-56.853,15.619-85.377,18.938c-13.036,1.517-21.265,7.649-28.294,17.597c-6.58,9.312-13.537,18.258-16.083,29.795
		c-1.098,4.974-6.42,7.503-11.234,6.251c-4.796-1.247-8.035-5.796-6.981-10.868c0.924-4.451,2.119-9.025,4.202-13.019
		c4.004-7.677,8.721-14.983,13.3-22.709c-6.204,0-12.65,0.882-18.754-0.186c-12.239-2.141-24.29-1.656-36.338,0.547
		c-20.929,3.827-41.394,9.072-59.676,20.649c-5.038,3.19-10.876,1.858-13.671-2.767c-2.876-4.758-1.729-10.635,3.766-13.377
		c11.136-5.558,22.324-11.282,34.045-15.338c20.585-7.123,42.02-11.903,63.829-9.684c14.571,1.482,28.696,0.871,42.925-1.394
		c2.412-0.384,4.964-1.825,6.811-3.488c8.112-7.304,15.866-15.007,24.001-22.284c4.38-3.918,9.927-3.359,13.551,0.719
		c3.584,4.033,3.208,9.498-1.001,13.564c-1.654,1.598-3.424,3.077-5.141,4.609c0.175,0.408,0.351,0.815,0.526,1.223
		c13.018-2.447,26.339-3.855,38.991-7.556c27.598-8.072,54.865-17.279,82.245-26.093c7.096-2.284,12.278-0.604,14.223,4.921
		C587.529,482.075,584.649,486.824,577.414,489.375z M768.722,597.564c-2.19,4.96-7.526,6.758-13.254,4.466
		c-9.485-3.796-15.597-11.919-15.24-20.256c0.224-5.233,4.414-9.262,9.534-9.167c4.25,0.533,7.193,2.532,8.96,6.681
		c0.885,2.077,2.697,4.161,4.641,5.307C768.78,587.788,770.959,592.497,768.722,597.564z M679.68,476.216
		c1.945-5.525,7.127-7.206,14.223-4.921c27.38,8.813,54.647,18.021,82.245,26.093c12.651,3.7,25.973,5.108,38.991,7.556
		c0.175-0.408,0.351-0.815,0.526-1.223c-1.717-1.533-3.487-3.011-5.141-4.609c-4.209-4.066-4.585-9.531-1.001-13.564
		c3.624-4.078,9.172-4.637,13.551-0.719c8.135,7.277,15.889,14.98,24.001,22.284c1.847,1.663,4.399,3.104,6.811,3.488
		c14.229,2.265,28.354,2.876,42.925,1.394c21.809-2.219,43.244,2.561,63.829,9.684c11.721,4.056,22.909,9.78,34.045,15.338
		c5.495,2.742,6.642,8.618,3.766,13.377c-2.796,4.626-8.633,5.958-13.672,2.767c-18.282-11.577-38.746-16.822-59.676-20.649
		c-12.048-2.203-24.099-2.688-36.338-0.547c-6.104,1.068-12.55,0.186-18.754,0.186c4.579,7.726,9.296,15.032,13.3,22.709
		c2.083,3.994,3.278,8.568,4.202,13.019c1.053,5.072-2.185,9.621-6.981,10.868c-4.814,1.252-10.136-1.277-11.234-6.251
		c-2.546-11.538-9.503-20.483-16.083-29.795c-7.029-9.948-15.258-16.081-28.294-17.597c-28.525-3.319-57.03-7.599-85.377-18.938
		c1.331,2.745,2.11,4.021,2.593,5.402c3.425,9.803,6.896,19.592,10.088,29.471c0.706,2.184,0.572,4.719,0.45,7.073
		c-0.268,5.163-4.203,8.907-9.198,9.034c-4.996,0.127-9.39-3.462-9.67-8.541c-1.099-19.922-12.124-35.222-23.262-50.47
		c-0.743-1.017-2.287-1.586-3.572-2.046c-6.393-2.292-12.834-4.451-19.24-6.71C680.497,486.824,677.617,482.075,679.68,476.216z"/>
	<path d="M640.301,957.226c-1.563-4.542-4.811-7.329-9.773-7.807c-4.091-0.394-8.182-0.786-12.267-1.238
		c-6.761-0.747-11.306,1.911-13.655,8.301c-3.377,9.187-6.617,18.425-9.928,27.636c-2.723,7.575-5.669,15.077-8.137,22.734
		c-2.087,6.477,1.09,12.442,7.175,14.491c5.765,1.941,11.762-0.927,14.318-6.878c0.436-1.014,0.748-2.081,1.122-3.121
		c4.224-11.724,8.448-23.447,12.988-36.045c0.927,2.545,1.596,4.276,2.19,6.033c3.848,11.368,7.607,22.767,11.545,34.103
		c2.331,6.71,8.429,9.856,14.548,7.79c6.289-2.123,9.4-8.108,7.181-14.844C651.975,991.284,646.158,974.247,640.301,957.226z"/>
	<path d="M621.074,693.513c4.899,0.125,9.804,0.025,14.706,0.026c4.902,0.001,9.806,0.078,14.707-0.018
		c6.75-0.131,10.602-4.247,9.93-10.958c-1.149-11.476-2.475-22.937-3.879-34.385c-0.69-5.628-4.091-8.849-9.821-9.048
		c-7.108-0.247-14.236-0.241-21.344-0.004c-5.449,0.182-8.925,3.097-9.568,8.097c-1.55,12.065-2.985,24.15-4.121,36.259
		C611.121,689.492,614.992,693.357,621.074,693.513z"/>
	<path d="M656.532,725.357c-0.704-5.711-4.153-8.618-9.945-8.675c-6.799-0.067-13.6-0.043-20.4-0.009
		c-6.791,0.035-9.781,2.508-10.654,9.397c-1.43,11.284-2.708,22.591-3.838,33.909c-0.665,6.657,3.277,10.858,10,10.999
		c4.742,0.099,9.488,0.019,14.232,0.019s9.49,0.07,14.232-0.016c6.932-0.127,10.949-4.386,10.263-11.243
		C659.274,748.262,657.944,736.803,656.532,725.357z"/>
	<path d="M610.594,926.361c4.745,0.157,9.5,0.029,14.25,0.033c4.75,0.003,9.501,0.004,14.251,0.003c0.317,0,0.634,0.006,0.95-0.015
		c6.177-0.421,9.931-4.506,9.354-10.697c-1.161-12.444-2.474-24.874-3.87-37.294c-0.643-5.721-3.465-8.528-9.055-9.235
		c-4.236-0.536-8.5-0.903-12.764-1.147c-5.404-0.309-8.939,1.961-10.532,6.951c-4.084,12.796-8.122,25.609-11.983,38.474
		C599.033,920.64,603.09,926.113,610.594,926.361z"/>
	<path d="M633.08,846.561c4.752,0.002,9.505,0.051,14.256-0.009c7.693-0.099,11.482-4.248,10.279-11.872
		c-1.799-11.405-3.885-22.767-6.04-34.111c-1.035-5.451-4.374-8.249-9.917-8.445c-5.537-0.196-11.094-0.212-16.628,0.019
		c-4.689,0.196-8.42,2.429-9.363,7.267c-2.361,12.106-4.642,24.238-6.454,36.435c-0.97,6.53,2.992,10.529,9.612,10.693
		C623.573,846.654,628.328,846.559,633.08,846.561z"/>
</g>
</svg>
