<?xml version="1.0" encoding="utf-8"?>
<!-- Generator: Adobe Illustrator 17.0.0, SVG Export Plug-In . SVG Version: 6.00 Build 0)  -->
<!DOCTYPE svg PUBLIC "-//W3C//DTD SVG 1.1//EN" "http://www.w3.org/Graphics/SVG/1.1/DTD/svg11.dtd">
<svg version="1.1" id="Layer_2" xmlns="http://www.w3.org/2000/svg" xmlns:xlink="http://www.w3.org/1999/xlink" x="0px" y="0px"
	 width="1264.719px" height="1095.279px" viewBox="0 0 1264.719 1095.279" enable-background="new 0 0 1264.719 1095.279"
	 xml:space="preserve">
<g>
	<path d="M427.237,751.857c-11.291,3.481-21.413,6.699-31.603,9.682c-2.992,0.876-6.177,1.498-9.278,1.515
		c-5.923,0.034-10.586-3.712-12.275-9.208c-1.832-5.965,0.087-12.106,5.279-15.375c2.489-1.567,5.393-2.583,8.225-3.479
		c15.542-4.918,31.1-9.786,46.698-14.52c4.13-1.253,6.824-3.512,8.519-7.591c23.482-56.527,47.087-113.003,70.604-169.515
		c2.553-6.135,4.747-12.419,7.283-19.097c-11.48-3.41-21.917-9.384-34.611-3.533c-9.588,4.419-20.191,6.637-30.346,9.821
		c-1.585,0.497-3.171,1.018-4.791,1.369c-9.625,2.083-16.089-1.143-18.283-9.074c-2.25-8.135,1.821-14.652,11.116-17.607
		c15.368-4.886,30.805-9.562,46.109-14.64c5.647-1.874,11.06-2.021,16.613-0.237c7.283,2.34,14.618,4.546,21.798,7.173
		c5.525,2.022,10.015,1.149,13.984-3.19c5.15-5.629,11.079-8.729,19.257-8.39c9.778,0.405,19.621-0.633,29.43-1.166
		c7.29-0.396,12.832-6.064,12.758-12.817c-0.073-6.593-5.965-11.977-13.474-11.946c-12.993,0.052-25.984,0.381-38.977,0.454
		c-15.255,0.085-25.582-7.086-31.402-21.291c-4.183-10.211-2.936-20.584-1.414-31.008c0.55-3.769,1.118-7.535,1.758-11.849
		c-2.915-0.421-5.514-1.184-8.084-1.098c-9.725,0.325-15.341-4.85-19.125-13.192c-9.275-20.452-19.319-40.578-27.896-61.315
		c-5.065-12.247-12.319-20.859-25.182-24.607c-3.634-1.059-7.079-2.906-10.452-4.692c-7.11-3.765-9.758-10.658-7.014-17.667
		c2.61-6.665,9.478-10.455,16.77-7.677c11.941,4.55,23.647,9.815,35.089,15.507c3.059,1.522,5.484,5.368,7.041,8.69
		c10.516,22.438,20.78,44.996,30.99,67.576c3.036,6.715,7.066,11.508,15.248,11.389c3.651-0.053,5.724-1.308,7.42-4.549
		c3.62-6.918,6.946-14.192,11.759-20.23c5.311-6.663,11.6-12.865,18.48-17.871c7.048-5.128,10.791-10.907,10.275-19.614
		c-0.433-7.311-0.699-14.646-0.655-21.967c0.095-15.635,7.415-24.59,22.381-29.031c4.447-1.32,8.358-4.41,12.56-6.602
		c3.029-1.581,6.084-4.188,9.21-4.315c12.446-0.506,24.925-0.327,37.388-0.13c2.383,0.038,4.95,0.927,7.081,2.075
		c7.148,3.851,14.152,7.973,21.185,12.035c10.492,6.06,14.848,15.895,16.078,27.297c0.694,6.433,0.862,12.987,0.543,19.45
		c-0.408,8.261,1.807,15.281,8.397,20.328c13.547,10.376,23.349,23.574,30.543,38.904c2.026,4.317,6.578,5.468,12.501,3.524
		c4.844-1.59,7.407-5.337,9.408-9.724c10.215-22.396,20.592-44.72,30.655-67.184c2.833-6.324,7.023-10.596,13.463-13.176
		c8.487-3.4,16.702-7.475,25.181-10.898c3.15-1.272,6.748-2.243,10.08-2.081c6.142,0.297,10.468,4.697,11.657,10.59
		c1.276,6.325-1.124,11.963-7.17,15.039c-6.958,3.541-14.148,6.643-21.316,9.754c-4.676,2.029-7.781,5.228-9.918,9.925
		c-10.469,23.015-21.376,45.833-31.678,68.922c-4.333,9.71-10.078,16.345-21.666,15.585c-1.92-0.126-3.898,0.644-6.547,1.126
		c0.898,6.595,1.826,13.095,2.661,19.606c2.143,16.705-2.651,30.659-16.677,40.664c-2.005,1.43-4.844,2.31-7.319,2.361
		c-15.489,0.319-30.991,0.122-46.473,0.596c-3.742,0.114-7.905,1.374-11.027,3.407c-4.743,3.09-5.745,8.147-3.977,13.264
		c1.534,4.442,5.927,7.692,11.181,7.783c8.663,0.149,17.345,0.351,25.994-0.033c9.018-0.4,16.411,2.892,22.296,9.242
		c5.05,5.449,10.199,6.188,17,3.607c26.107-9.909,26.162-9.779,52.704-1.278c10.611,3.398,21.238,6.75,31.799,10.298
		c7.42,2.493,11.019,8.693,9.589,15.916c-1.468,7.415-7.749,12.234-15.561,10.401c-11.145-2.616-22.031-6.335-33.026-9.589
		c-0.317-0.094-0.624-0.238-0.918-0.392c-13.102-6.867-25.704-3.992-38.628,2.514c2.868,7.505,5.667,15.429,8.893,23.176
		c22.894,54.972,45.902,109.896,68.772,164.878c1.697,4.079,4.372,6.346,8.502,7.607c16.545,5.053,33.039,10.268,49.549,15.435
		c5.988,1.874,10.457,5.295,11.198,11.976c1.196,10.789-7.896,17.739-19.166,14.532c-9.593-2.729-19.088-5.8-28.631-8.707
		c-1.578-0.481-3.177-0.897-5.788-1.631c1.024,2.922,1.785,5.178,2.601,7.414c12.6,34.531,25.477,68.972,34.086,104.799
		c7.507,31.239,10.441,62.711,4.408,94.571c-1.112,5.874-2.442,11.738-4.145,17.465c-7.002,23.549-24.418,34.083-48.991,30.397
		c-12.722-1.909-22.128-8.57-29.657-18.497c-14.643-19.306-24.083-41.317-33.096-63.564c-8.679-21.422-17.333-42.858-26.399-64.117
		c-2.103-4.931-5.346-9.609-8.95-13.603c-3.712-4.114-8.584-4.475-13.104-1.376c-20.265,13.892-42.071,13.777-64.044,6.164
		c-18.356-6.36-36.139-5.58-54.407-0.447c-8.105,2.277-16.539,3.697-24.922,4.59c-8.528,0.908-15.935-2.619-22.319-8.237
		c-1.25-1.1-2.553-2.147-3.728-3.321c-9.698-9.692-17.461-5.888-22.493,3.546c-5.301,9.938-9.495,20.501-13.703,30.98
		c-9.854,24.534-18.762,49.472-29.385,73.662c-5.57,12.683-13.263,24.609-21.214,36.03c-11.977,17.201-29.335,21.873-51.029,17.07
		c-13.109-2.902-21.072-12.315-25.461-24.6c-7.031-19.679-9.325-40.125-8.99-60.922c0.58-35.932,10.253-70.003,21.555-103.688
		c6.399-19.074,13.386-37.95,20.107-56.916C425.333,757.294,426.09,755.122,427.237,751.857z M419.604,924.929
		c0.939,4.535,1.339,9.269,2.92,13.568c4.364,11.866,17.19,14.794,25.285,5.182c6.236-7.404,11.856-15.772,15.803-24.583
		c19.942-44.519,34.518-91.074,51.006-136.908c25.825-71.789,55.015-142.399,75.722-215.972c2.237-7.95,3.43-16.262,4.363-24.49
		c0.864-7.619-2.844-12.719-10.011-15.42c-7.564-2.851-14.905-2.193-20.081,4.188c-6.361,7.842-12.51,16.053-17.41,24.851
		c-22.393,40.207-40.468,82.461-55.139,125.97c-20.868,61.886-40.166,124.301-60.136,186.49
		C425.96,886.387,421.192,905.216,419.604,924.929z M855.633,924.817c-2.037-11.377-3.173-23.421-6.438-34.857
		c-8.94-31.321-18.694-62.411-28.272-93.548c-18.333-59.596-37.036-119.072-61.917-176.366
		c-11.462-26.394-22.827-52.875-38.684-77.044c-3.518-5.362-7.753-10.501-12.564-14.706c-6.3-5.506-13.682-4.233-20.546-0.471
		c-6.268,3.436-7.736,9.294-6.825,15.858c0.913,6.579,1.513,13.308,3.406,19.624c6.968,23.248,13.697,46.609,21.833,69.458
		c16.73,46.98,34.38,93.632,51.519,140.467c17.824,48.706,32.932,98.435,54.232,145.822c4.023,8.951,9.791,17.423,16.144,24.942
		c7.68,9.09,19.846,6.505,24.474-4.579C853.818,935.056,854.35,930.156,855.633,924.817z M637.511,425.963c0-0.041,0-0.082,0-0.124
		c4.66,0,9.352-0.354,13.972,0.07c11.274,1.034,18.711-4.225,23.879-13.677c6.468-11.83,9.08-24.555,8.679-37.932
		c-0.482-16.081-9.345-26.414-25.216-29.358c-13.198-2.448-26.498-2.563-39.733-0.536c-16.345,2.503-25.607,10.327-27.527,24.476
		c-2.332,17.188,1.149,33.475,11.091,47.953c4.447,6.476,10.911,9.449,18.886,9.164C626.858,425.81,632.187,425.963,637.511,425.963
		z M689.087,832.85c19.138-0.101,28.91-10.988,25.772-24.243c-3.056-12.908-14.216-20.374-27.335-18.149
		c-9.354,1.586-18.684,3.66-28.174,1.148c-10.477-2.774-21.089-2.712-31.691-1.349c-14.101,1.812-28.147,2.226-42.292,0.429
		c-4.216-0.536-8.64-0.181-12.883,0.393c-7.633,1.033-11.909,6.194-14.19,13.11c-2.09,6.338-0.207,11.81,4.461,16.38
		c9.569,9.369,20.376,14.294,33.903,9.292c1.714-0.634,3.49-1.1,5.212-1.716c21.242-7.593,42.375-8.486,63.932-0.599
		C674.438,830.707,683.865,831.708,689.087,832.85z M637.925,719.563c-0.665,0-1.342-0.083-1.993,0.012
		c-17.766,2.591-35.591,4.853-53.269,7.951c-9.132,1.6-14.603,9.676-14.814,19.443c-0.2,9.251,4.283,16.298,13.962,17.922
		c9.871,1.656,20.161,1.963,30.172,1.337c11.051-0.69,21.855-4.609,33.175-2.508c7.522,1.396,15.039,3.064,22.635,3.757
		c12.67,1.155,24.314-1.43,32.612-12.184c6.356-8.237,4.77-16.568-4.035-22.07c-1.961-1.225-4.086-2.323-6.283-3.013
		C673.073,724.868,655.97,719.9,637.925,719.563z M635.748,658.967c-0.656,0.01-1.312,0.028-1.968,0.033
		c-0.598,0.004-1.195-0.004-1.793-0.014c-1.44-0.025-2.881-0.045-4.322-0.016c-0.799,0.016-1.597,0.046-2.395,0.099
		c-10.245,0.678-20.129,2.566-28.461,9.232c-5.066,4.053-7.934,8.88-6.029,15.625c1.987,7.037,6.757,11.066,13.815,11.869
		c4.243,0.483,8.642,0.121,12.921-0.33c12.591-1.326,25.138-2.622,37.775-0.309c5.037,0.922,10.188,1.768,15.278,1.713
		c6.298-0.067,10.459-4.165,10.385-10.415c-0.047-3.949-1.102-8.264-2.973-11.731c-3.438-6.368-9.297-10.738-16.193-12.492
		c-0.779-0.198-1.565-0.374-2.352-0.536c-0.881-0.182-1.764-0.349-2.65-0.503c-0.946-0.165-1.893-0.321-2.843-0.465
		c-0.981-0.148-1.962-0.288-2.945-0.421c-0.985-0.134-1.972-0.252-2.958-0.372c-0.949-0.115-1.9-0.222-2.851-0.32
		c-0.875-0.09-1.749-0.188-2.625-0.265c-0.78-0.069-1.56-0.134-2.34-0.201c-0.666-0.057-1.335-0.078-2.001-0.128
		C637.399,658.957,636.574,658.955,635.748,658.967z M659.341,633.024c8.398,0.227,12.198-5.007,9.496-12.385
		c-0.454-1.241-1.112-2.413-1.738-3.583c-3.676-6.879-7.25-13.817-11.104-20.595c-2.457-4.32-5.002-8.669-8.1-12.529
		c-6.753-8.418-14.303-8.901-20.645-0.241c-7.828,10.69-14.382,22.317-21.416,33.583c-0.683,1.095-0.942,2.482-1.269,3.767
		c-1.212,4.758,0.395,8.732,4.99,9.978c4.669,1.267,9.723,1.47,14.611,1.493c8.605,0.04,17.211-0.548,25.818-0.587
		C653.28,631.91,656.578,632.679,659.341,633.024z M626.342,294.301c-0.205-3.762-0.107-6.292-0.523-8.735
		c-0.989-5.806-5.226-9.033-11.011-8.515c-7.146,0.64-15.176,6.892-13.932,15.212c0.389,2.598-0.091,5.315-0.018,7.974
		c0.189,6.882,4.299,11.881,10.363,12.737c6.041,0.853,11.837-2.73,13.716-9.095C625.956,300.426,626.016,296.69,626.342,294.301z
		 M649.226,293.847c1.06,4.14,1.682,8.459,3.288,12.374c2.135,5.202,7.644,7.669,12.676,6.469
		c6.478-1.546,10.668-7.666,10.963-16.015c0.333-9.422-3.33-16.368-9.723-18.42c-0.472-0.151-0.965-0.241-1.453-0.339
		C655.659,276.033,649.818,282.123,649.226,293.847z"/>
	<path d="M594.594,882.48c11.567-0.882,22.962-3.816,34.492-5.42c14.581-2.029,28.845,1.058,43.129,3.4
		c4.761,0.78,9.52,1.58,14.293,2.282c8.86,1.302,17.041-0.999,25.261-4.176c10.136-3.917,18.153,0.528,20.622,10.645
		c1.27,5.206-0.582,9.7-3.816,13.405c-11.749,13.459-25.854,20.951-44.242,15.796c-21.023-5.894-42.473-9.164-64.179-7.153
		c-16.502,1.529-32.876,4.919-49.155,8.229c-16.871,3.43-27.41-8.785-30.841-19.186c-3.36-10.183,2.459-17.983,13.167-18.449
		c0.802-0.035,1.605-0.024,2.408-0.015c1.161,0.013,2.313,0.166,3.469,0.253c0.845,0.064,1.692,0.105,2.538,0.152
		c1.058,0.058,2.116,0.109,3.174,0.157c1.242,0.056,2.485,0.105,3.728,0.15c1.385,0.05,2.769,0.094,4.154,0.131
		c1.461,0.039,2.923,0.073,4.384,0.096c1.478,0.024,2.955,0.04,4.433,0.047c1.445,0.007,2.891,0.001,4.336-0.015
		c1.37-0.015,2.74-0.044,4.109-0.09c1.24-0.042,2.479-0.096,3.717-0.179C594.047,882.519,594.321,882.501,594.594,882.48z"/>
	<path d="M625.484,936.001c23.926,2.46,50.237,5.124,76.533,7.93c2.595,0.277,5.21,1.159,7.62,2.209
		c7.536,3.285,11.54,9.925,10.772,17.398c-0.77,7.496-6.394,14.351-14.243,15.3c-5.962,0.721-12.515,0.75-18.179-0.971
		c-25.381-7.714-51.017-5.782-76.767-3.456c-11.764,1.063-23.551,2.09-35.35,2.473c-9.189,0.299-15.465-4.324-17.784-11.733
		c-2.201-7.034-0.344-12.689,5.805-17.031c8.007-5.653,17.388-7.538,26.774-8.811C601.365,937.859,612.176,937.224,625.484,936.001z
		"/>
	<path d="M630.383,995.465c2.158-0.276,5.658,0.034,7.914,0.237c6.838,0.617,12.268,1.393,19.119,2.018
		c1.949,0.178,3.899,0.349,5.848,0.53c2.018,0.187,4.036,0.38,6.053,0.592c3.649,0.384,7.297,0.781,10.942,1.197
		c3.875,0.443,7.801,1.816,11.344,3.512c7.347,3.517,10.646,10.661,9.235,18.674c-1.562,8.868-7.834,12.785-17.803,11.445
		c-9.714-1.306-19.498-3.534-29.189-3.247c-17.9,0.53-35.755,2.595-53.627,4.041c-1.986,0.161-3.956,0.575-5.943,0.663
		c-10.433,0.463-16.536-3.647-18.302-12.235c-2.093-10.181,2.069-19.075,11.187-22.384c4.782-1.735,9.953-2.782,15.029-3.239
		c7.84-0.706,15.748-0.311,23.574-1.193C627.333,995.899,628.86,995.66,630.383,995.465z"/>
</g>
<g>
	<path d="M928.332,35l295.972,512.64l-295.972,512.639H336.387L40.415,547.639L336.387,35H928.332 M948.539,0H316.18L0,547.639
		l316.18,547.639h632.359l316.18-547.639L948.539,0L948.539,0z"/>
</g>
<path d="M706.575,187.827c-5.584-3.57-12.218-3.167-14.817,0.899l-10.067,15.747c-2.599,4.066-0.18,10.256,5.404,13.826
	l11.796,7.541c5.584,3.57,12.218,3.167,14.817-0.899l10.067-15.747c2.599-4.066,0.18-10.256-5.404-13.826L706.575,187.827z"/>
<path d="M745.536,126.883c-5.584-3.57-12.218-3.167-14.817,0.899l-10.067,15.747c-2.599,4.066-0.18,10.256,5.404,13.826
	l11.796,7.541c5.584,3.57,12.218,3.167,14.817-0.899l10.067-15.747c2.599-4.066,0.18-10.256-5.404-13.826L745.536,126.883z"/>
<path d="M784.497,65.938c-5.584-3.57-12.218-3.167-14.817,0.899l-10.067,15.747c-2.599,4.066-0.18,10.256,5.404,13.826l11.796,7.541
	c5.584,3.57,12.218,3.167,14.817-0.899l10.067-15.747c2.599-4.066,0.18-10.256-5.404-13.826L784.497,65.938z"/>
<path d="M570.812,189.327c5.584-3.57,12.218-3.167,14.817,0.899l10.067,15.747c2.599,4.066,0.18,10.256-5.404,13.826l-11.796,7.541
	c-5.584,3.57-12.218,3.167-14.817-0.899l-10.067-15.747c-2.599-4.066-0.18-10.256,5.404-13.826L570.812,189.327z"/>
<path d="M531.851,128.383c5.584-3.57,12.218-3.167,14.817,0.899l10.067,15.747c2.599,4.066,0.18,10.256-5.404,13.826l-11.796,7.541
	c-5.584,3.57-12.218,3.167-14.817-0.899l-10.067-15.747c-2.599-4.066-0.18-10.256,5.404-13.826L531.851,128.383z"/>
<path d="M492.89,67.438c5.584-3.57,12.218-3.167,14.817,0.899l10.067,15.747c2.599,4.066,0.18,10.256-5.404,13.826l-11.796,7.541
	c-5.584,3.57-12.218,3.167-14.817-0.899L475.69,88.805c-2.599-4.066-0.18-10.256,5.404-13.826L492.89,67.438z"/>
</svg>
