<?xml version="1.0" encoding="utf-8"?>
<!-- Generator: Adobe Illustrator 17.0.0, SVG Export Plug-In . SVG Version: 6.00 Build 0)  -->
<!DOCTYPE svg PUBLIC "-//W3C//DTD SVG 1.1//EN" "http://www.w3.org/Graphics/SVG/1.1/DTD/svg11.dtd">
<svg version="1.1" id="Layer_1" xmlns="http://www.w3.org/2000/svg" xmlns:xlink="http://www.w3.org/1999/xlink" x="0px" y="0px"
	 width="1264.719px" height="1095.279px" viewBox="0 0 1264.719 1095.279" enable-background="new 0 0 1264.719 1095.279"
	 xml:space="preserve">
<g>
	<path d="M928.332,35l295.972,512.64l-295.972,512.639H336.387L40.415,547.639L336.387,35H928.332 M948.539,0H316.18L0,547.639
		l316.18,547.639h632.359l316.18-547.639L948.539,0L948.539,0z"/>
</g>
<path d="M651.41,550.058c-1.953-1.454-4.13-2.491-6.427-3.24c-3.072,0.038-6.147,0.125-9.203,0.263
	c-5.663,0.255-11.318,0.627-16.971,1.027c-0.949,0.532-1.827,1.16-2.57,1.904c-5.286,5.286-4.385,12.649,0,18.032
	c2.256,2.769,5.279,5.378,8.622,7.354c0.232,0.487,0.465,0.974,0.701,1.464c0.052,0.108,0.107,0.217,0.159,0.325
	c3.496-0.334,7.092,0.505,10.033,2.38c1.365-0.562,2.811-0.927,4.289-1.078c1.692-1.531,3.279-3.163,4.729-4.934
	c0.416-0.508,0.668-0.809,0.823-0.989c0.088-0.119,0.167-0.227,0.277-0.374c0.568-0.76,1.134-1.522,1.697-2.285
	c3.095-4.175,6.199-8.379,9.762-12.17C656.296,554.663,653.962,551.958,651.41,550.058z"/>
<path d="M689.686,445.465c0-3.926-1.469-6.896-3.682-8.945c-2.364-0.557-4.344-1.621-5.941-3.034
	c-2.687-0.59-5.565-0.413-8.13,0.543c-7.073,0.111-14.146-0.014-21.232-0.163c-0.195,17.51-0.735,34.932,0.443,52.441
	c-0.206,10.034-0.648,20.061-1.121,30.088c11.48,0.095,22.942,0.988,34.381,3.399c0.388,0.082,0.761,0.197,1.133,0.313
	c0.404-0.725,0.797-1.457,1.156-2.206c0.21-0.438,1.153-2.717,0.967-2.181c0.26-0.684,0.517-1.369,0.749-2.063
	c0.646-1.936,1.259-3.884,1.757-5.864c0.583-2.314,1.117-4.644,1.507-6.999c0.068-0.411,0.216-1.621,0.283-2.151
	c0.014-0.15,0.033-0.299,0.046-0.449c0.645-7.878-0.08-15.33-1.199-22.786C689.568,465.5,689.687,455.421,689.686,445.465z"/>
<path d="M689.28,350.345c-5.817-3.202-11.606-6.459-17.512-9.492c-2.902-1.49-5.822-2.948-8.78-4.324
	c-0.532-0.098-1.064-0.196-1.589-0.28c-11.056-1.773-22.101-1.644-33.254-1.625c-2.934,0.005-5.335,0.831-7.222,2.169
	c-0.476-0.064-0.957-0.113-1.448-0.129c-5.504-0.177-11.685,0.973-17.383,3.307c-1.911,0.905-3.974,1.964-6.514,3.351
	c-7.012,4.464-12.245,11.056-12.705,19.45c-0.458,0.811-0.871,1.675-1.193,2.633c-2.355,7.003-0.88,12.591,2.629,16.922
	c2.417,14.633,15.802,18.546,28.718,19.679c3.534,0.31,7.07,0.642,10.608,0.949c2.397,0.011,4.794,0.01,7.188,0.011
	c8.516,0.001,17.022,0.318,25.532,0.533c3.564-0.353,7.123-0.887,10.674-1.671c9.745-2.152,18.69-7.324,24.12-15.832
	c5.954-9.329,5.293-22.312,0.495-31.871C690.967,352.774,690.171,351.519,689.28,350.345z"/>
<path d="M737.349,283.629c0.3-2.092,0.437-4.218,0.384-6.384c0.494-4.578,0.429-9.285-0.23-14.187
	c-1.667-12.395-10.411-23.977-19.378-32.193c-14.443-13.234-32.799-15.919-51.397-16.812c-0.111-0.026-0.221-0.056-0.332-0.082
	v-6.105c8.021-9.36,14.707-19.983,21.795-29.972c9.502-13.391,19.473-26.443,28.995-39.821c4.038-5.673,1.017-14.169-4.574-17.445
	c-6.402-3.75-13.423-1.076-17.445,4.574c-9.138,12.839-18.657,25.401-27.842,38.206c-4.387,6.115-8.533,12.508-12.997,18.637
	c-0.49-0.375-0.98-0.75-1.472-1.125c-1.218-0.929-2.463-1.823-3.695-2.734c-0.61-0.489-1.209-0.99-1.799-1.503
	c-0.719-0.625-1.486-1.168-2.282-1.64c-4.031-3.374-10.122-4.391-14.699-1.374c-2.922,1.926-5.66,4.128-8.32,6.403
	c-4.663-6.466-9.632-12.648-14.605-18.885c-10.337-12.964-19.579-26.788-29.502-40.065c-4.152-5.555-10.937-8.386-17.445-4.574
	c-5.488,3.215-8.745,11.864-4.574,17.445c10.859,14.529,21.169,29.45,32.33,43.755c4.742,6.078,9.542,11.977,13.992,18.278
	c1.235,1.749,2.479,3.497,3.746,5.231c-0.17,1.516-0.129,3.087,0.158,4.661c0.135,0.741,0.246,1.485,0.348,2.231
	c-18.567,1.288-36.516,6.981-49.889,20.968c-9.043,9.457-14.78,21.901-17.354,34.638c-0.58,1.097-0.996,2.338-1.211,3.725
	c-0.926,3.348-1.42,6.771-1.388,10.206c0.003,0.351,0.022,0.701,0.039,1.05c-3.197,8.6-2.798,18.56,1.686,27.481
	c3.126,6.218,8.395,12.814,14.726,15.96c5.561,2.764,11.303,2.728,16.186,0.456c0.342,0.123,0.681,0.251,1.028,0.364
	c9.744-6.582,20.327-11.652,31.437-15.818c12.09-4.534,26.581-9.233,39.665-8.201c22.62,1.784,42.352,13.393,61.993,24.238
	c0.432-0.157,0.856-0.338,1.284-0.506c16.995,5.763,30.763-12.215,32.48-28.258c0.192-1.789,0.152-3.564-0.07-5.319
	c0.092-1.608,0.133-3.208,0.151-4.776C737.302,284.115,737.323,283.872,737.349,283.629z"/>
<path d="M1007.412,631.395c-23.423-7.176-46.653-14.952-69.785-23.013c-11.954-4.166-23.877-8.42-35.788-12.705
	c-4.499-1.619-8.38-2.94-11.399-4.336c-1.331-0.615-2.638-1.28-3.935-1.964c-5.77-4.606-12.052-8.511-18.676-11.77
	c-10.583-7.608-19.974-15.725-31.272-23.722c-15.621-11.057-32.687-18.844-51.839-20.868c-2.146-0.227-4.186,0.3-5.98,1.321
	c-9.468-13.403-18.292-27.238-25.851-41.927c-1.083-2.105-2.795-3.685-4.798-4.737c-0.281-2.807-0.62-5.607-0.908-8.389
	c-0.742-7.16-0.708-14.332-1.616-21.478c-0.931-7.326-0.896-14.757-2.349-22.003c-0.171-0.854-0.359-1.704-0.548-2.555
	c1.663-1.239,3.707-2.627,5.275-3.921c6.566-5.421,7.651-15.081,7.2-23.027c-0.421-7.419-0.965-10.476,2.654-15.867
	c2.36-3.516,7.796-8.188,11.451-11.883c4.685-4.736,9.178-9.737,13.37-14.915c7.479-9.239,13.478-19.054,17.253-30.379
	c3.523-10.569,4.228-22.136,4.165-33.199c-0.108-18.95-3.875-38.436-1.045-57.306c1.517-10.115,5.473-19.784,8.938-29.353
	c3.653-10.09,7.394-20.142,10.52-30.411c5.512-18.109,7.058-36.697,9.417-55.377c1.945-15.399,5.28-32.694,14.864-45.638
	c4.146-5.599,0.934-14.218-4.574-17.445c-6.487-3.8-13.318-0.999-17.445,4.574c-15.716,21.225-17.376,49.798-20.29,75.083
	c-1.39,12.057-4.437,25.725-8.729,38.896c-4.631,14.213-10.415,28.039-14.881,42.306c-8.716,27.84-0.789,57.171-2.556,85.597
	c-0.079,1.268-0.202,2.532-0.328,3.796c-0.025,0.255-0.046,0.468-0.062,0.644c-0.034,0.199-0.077,0.465-0.132,0.817
	c-0.363,2.329-0.886,4.628-1.472,6.909c-0.576,2.239-1.325,4.429-2.134,6.593c-0.063,0.167-0.109,0.295-0.156,0.423
	c-0.089,0.184-0.21,0.438-0.384,0.82c-0.662,1.448-1.413,2.854-2.173,4.252c-5.597,10.296-12.692,17.695-21.268,26.364
	c-7.266,7.345-14.571,14.282-18.539,24.043c-2.038,5.013-2.679,10.272-2.374,15.655c0.207,3.651,0.727,6.952,0.191,10.338
	c-3.492,3.038-8.019,5.855-10.796,10.39c-0.438,0.715-0.774,1.46-1.043,2.223c0.167,1.492,0.035,2.994-0.342,4.45
	c0.231,3.5,0.461,6.999,0.653,10.501c0.029,0.143,0.054,0.286,0.084,0.429c0.218,0.983,0.434,1.967,0.647,2.951
	c0.279,1.66,0.359,1.956,0.241,0.887c1.465,12.468,2.059,25.053,3.09,37.585c0.072,0.784,0.141,1.567,0.201,2.349
	c0.124,1.425,0.249,2.849,0.388,4.272c0.41,4.179,0.56,7.864,0.347,11.292c0.216,1.113,0.269,2.267,0.114,3.448
	c-0.96,7.283-2.827,14.13-5.399,20.604c-2.44,2.32-4.925,4.59-7.187,7.101c-6.542,7.259-10.903,16.07-12.865,25.59
	c-0.065,0.185-0.141,0.366-0.203,0.552c-0.486,1.529-0.975,3.063-1.317,4.633c-0.961,4.41-1.236,10.567,0.485,15.692
	c0.309,0.968,0.647,1.926,1.013,2.874c-0.573-1.252-0.477-1.027,0.288,0.673c0.28,0.606,0.574,1.206,0.858,1.809
	c2.726,10.417,7.466,20.498,11.361,30.57c0.161,1.446,0.245,2.911,0.238,4.396c0.874,2.382,1.726,4.772,2.518,7.185
	c2.544,7.744,3.769,15.683,5.049,23.711c2.463,15.439,4.651,30.923,8.499,46.096c3.452,13.615,8.854,26.746,14.404,39.622
	c17.928,41.59,46.199,81.585,87.003,102.603c-0.013,0.92-0.022,1.832-0.039,2.762c-0.428,23.41-2.513,46.736-4.462,70.065
	c-3.204,0.055-6.39,1.273-8.79,3.673c-0.043,0.043-0.079,0.091-0.122,0.135c-1.191-0.857-2.387-1.709-3.569-2.579
	c-23.527-17.328-43.994-38.466-64.358-59.322c-19.229-19.694-37.564-40.308-53.053-63.107c-16.398-24.137-30.4-50.75-36.27-79.526
	c-3.657-17.927-2.874-35.585,3.757-52.453c1.976-5.026,4.385-9.885,7.039-14.638c4.461-4.567,8.373-9.58,10.802-15.99
	c0.012-0.03,0.017-0.061,0.028-0.092c0.581-0.947,1.046-1.947,1.376-2.982c-0.323-1.246-0.492-2.545-0.438-3.886
	c0.068-0.936,0.075-1.873,0.024-2.81c-0.018-0.096-0.034-0.177-0.055-0.286c-0.24-1-0.498-1.994-0.789-2.978
	c-1.889-3.106-5.412-5.406-9.137-6.08c0.075-0.029,0.288-0.039,0.687-0.021c-0.404-0.031-0.807-0.047-1.211-0.055
	c-2.674-0.372-5.411,0.094-7.685,1.73c-0.101,0.073-0.201,0.151-0.302,0.225c-0.023,0.01-0.046,0.02-0.069,0.029
	c-0.387,0.575-0.794,1.141-1.245,1.683c-5.392,6.481-11.213,13.064-19.757,15.201c-4.554,1.139-8.672,0.773-12.405-0.596
	c-5.357-4.863-10.794-9.575-16.464-14.048c-0.136-0.228-0.267-0.458-0.388-0.691c-0.418-0.266-0.836-0.532-1.27-0.784
	c-0.216-0.126-0.431-0.217-0.647-0.329c-0.297-0.228-0.585-0.465-0.883-0.691c-3.949-2.993-9.479-2.166-13.498,0.519
	c-1.42,2.546-2.808,5.109-4.076,7.736c-0.347,0.703-0.677,1.415-1.003,2.129c-0.087,0.227-0.208,0.537-0.366,0.941
	c-0.062,0.178-0.123,0.358-0.185,0.537c0.294,2.901,1.685,5.624,3.784,7.905c0.069,0.294,0.14,0.589,0.187,0.887
	c5.658,8.807,10.997,17.821,14.777,27.435c6.631,16.868,7.414,34.526,3.757,52.453c-5.869,28.775-19.872,55.389-36.27,79.526
	c-15.49,22.8-33.825,43.414-53.053,63.107c-20.364,20.856-40.831,41.994-64.358,59.322c-1.893,1.394-3.801,2.77-5.717,4.132
	c-1.718-1.984-4.02-3.435-6.656-4.057c-1.979-23.765-4.133-47.523-4.569-71.369c-0.017-0.93-0.026-1.842-0.039-2.762
	c40.804-21.018,69.075-61.012,87.003-102.603c5.55-12.876,10.952-26.007,14.404-39.622c3.848-15.173,6.037-30.657,8.499-46.096
	c1.19-7.461,2.346-14.842,4.544-22.065c0.113-1.237,0.272-2.428,0.454-3.602c0.275-0.662,0.492-1.356,0.61-2.094
	c0.642-4.037,2.523-7.866,4.731-11.636c3.18-7.98,7.499-15.558,11.587-23.456c1.792-5.863,2.886-11.897,3.305-18.071l0,0
	c0.106-0.3,0.196-0.605,0.282-0.912c0.015-0.053,0.033-0.105,0.047-0.158c0.085-0.322,0.155-0.647,0.218-0.975
	c0.006-0.032,0.014-0.063,0.02-0.095c0.065-0.351,0.114-0.704,0.153-1.059c0.001-0.005,0.001-0.011,0.002-0.017
	c0.039-0.364,0.064-0.73,0.076-1.096v0c0.26-0.321,0.533-0.629,0.825-0.919c-0.009-0.065-0.014-0.129-0.023-0.194
	c-1.282-9.418-10.243-17.98-16.419-24.522c-2.897-3.069-5.645-6.236-8.282-9.49c-3.565-7.756-6.106-16.066-7.287-25.031
	c-0.156-1.181-0.103-2.335,0.114-3.448c-0.213-3.427-0.063-7.113,0.347-11.292c1.443-14.712,1.956-29.54,3.679-44.206
	c-0.119,1.069-0.038,0.773,0.241-0.887c0.213-0.984,0.429-1.968,0.647-2.951c0.03-0.143,0.055-0.286,0.084-0.429
	c0.193-3.502,0.422-7.001,0.653-10.501c-0.377-1.456-0.509-2.958-0.342-4.45c-0.269-0.763-0.605-1.508-1.043-2.223
	c-2.776-4.535-7.304-7.352-10.796-10.39c-0.536-3.386-0.016-6.688,0.191-10.338c0.305-5.383-0.336-10.642-2.374-15.655
	c-3.968-9.762-11.273-16.698-18.539-24.043c-8.576-8.669-15.671-16.068-21.268-26.364c-0.76-1.398-1.511-2.804-2.173-4.252
	c-0.175-0.382-0.295-0.637-0.384-0.82c-0.047-0.128-0.094-0.255-0.156-0.423c-0.809-2.164-1.558-4.354-2.134-6.593
	c-0.586-2.281-1.108-4.581-1.472-6.909c-0.055-0.352-0.098-0.618-0.132-0.817c-0.016-0.176-0.037-0.389-0.062-0.644
	c-0.125-1.264-0.249-2.528-0.328-3.796c-1.767-28.426,6.16-57.758-2.556-85.597c-4.466-14.266-10.25-28.093-14.881-42.306
	c-4.292-13.171-7.339-26.839-8.729-38.896c-2.914-25.285-4.574-53.857-20.29-75.083c-4.127-5.574-10.957-8.374-17.445-4.574
	c-5.508,3.227-8.72,11.846-4.574,17.445c9.584,12.944,12.919,30.239,14.864,45.638c2.359,18.68,3.905,37.268,9.417,55.377
	c3.126,10.27,6.867,20.322,10.52,30.411c3.465,9.569,7.421,19.238,8.938,29.353c2.829,18.87-0.938,38.356-1.046,57.306
	c-0.063,11.063,0.642,22.63,4.165,33.199c3.775,11.325,9.774,21.14,17.253,30.379c4.192,5.178,8.685,10.179,13.37,14.915
	c3.655,3.695,9.091,8.367,11.451,11.883c3.618,5.391,3.075,8.448,2.654,15.867c-0.451,7.946,0.634,17.606,7.2,23.027
	c1.568,1.295,3.612,2.682,5.275,3.921c-0.189,0.851-0.376,1.701-0.548,2.555c-1.453,7.247-1.417,14.677-2.349,22.003
	c-0.908,7.146-0.874,14.318-1.616,21.478c-0.288,2.782-0.627,5.582-0.908,8.389c-2.003,1.052-3.715,2.631-4.798,4.737
	c-7.559,14.69-16.383,28.525-25.851,41.927c-1.794-1.022-3.834-1.548-5.98-1.321c-19.151,2.024-36.217,9.811-51.839,20.868
	c-11.298,7.997-20.689,16.113-31.272,23.722c-6.624,3.258-12.906,7.163-18.676,11.77c-1.297,0.684-2.604,1.349-3.935,1.964
	c-3.019,1.396-6.9,2.717-11.399,4.336c-11.911,4.286-23.834,8.54-35.788,12.705c-23.132,8.061-46.362,15.837-69.785,23.013
	c-15.675,4.802-8.987,29.419,6.779,24.59c23.422-7.175,46.66-14.937,69.785-23.013c11.951-4.174,23.878-8.415,35.788-12.705
	c4.942-1.78,9.85-3.603,14.643-5.689c0.719-0.068,1.449-0.203,2.187-0.413c14.019-3.995,28.472-5.221,42.97-5.553
	c-5.775,7.885-11.37,15.893-16.647,24.118c-17.496,27.268-30.512,56.892-46.567,84.955c-15.457,27.017-33.095,52.991-44.904,81.925
	c-5.978,14.649-10.185,30.117-13.607,45.541c-4.443,20.022-7.738,40.642-8.055,61.185c-0.277,18.016,1.262,37.932,10.503,53.873
	c11.118,19.179,31.514,25.847,52.866,23.292c25.223-3.018,47.239-14.243,68.489-27.487c14.463-9.014,28.59-18.582,42.079-28.963
	c-2.168,9.435-3.513,19.095-4.47,28.76c-1.012,10.227-1.599,20.484-2.234,30.739c-0.323,5.22-0.647,10.442-1.096,15.652
	c-0.216,2.514-0.439,5.028-0.718,7.536c-0.106,0.983-0.219,1.965-0.337,2.946c-0.205,1.627-0.243,1.942-0.115,0.947
	c-0.955,6.879,1.557,13.663,8.905,15.684c6.031,1.659,14.726-2.008,15.684-8.905c2.755-19.832,3.158-39.815,4.951-59.734
	c1.605-17.82,4.593-36.942,13.144-52.483c2.192-3.984,2.089-7.845,0.636-11.049c10.568-10.343,21.137-20.796,31.439-31.506
	c4.383,13.289,12.919,25.294,22.107,35.573c10.978,12.281,23.848,23.747,37.516,32.977c9.26,6.253,20.406,9.376,31.427,8.454
	c11.021,0.922,22.166-2.201,31.427-8.454c13.668-9.23,26.538-20.696,37.516-32.977c9.189-10.279,17.724-22.285,22.107-35.573
	c10.302,10.711,20.87,21.163,31.439,31.506c-1.454,3.204-1.556,7.066,0.636,11.049c8.551,15.541,11.539,34.663,13.144,52.483
	c1.794,19.919,2.196,39.902,4.951,59.734c0.958,6.897,9.653,10.564,15.684,8.905c7.348-2.021,9.861-8.806,8.905-15.684
	c0.129,0.995,0.09,0.68-0.115-0.947c-0.118-0.981-0.231-1.963-0.337-2.946c-0.279-2.508-0.502-5.022-0.718-7.536
	c-0.448-5.211-0.773-10.433-1.096-15.652c-0.635-10.255-1.222-20.512-2.234-30.739c-0.956-9.664-2.302-19.324-4.47-28.76
	c13.489,10.381,27.616,19.949,42.079,28.963c21.25,13.244,43.266,24.469,68.489,27.487c21.352,2.555,41.748-4.113,52.866-23.292
	c9.241-15.941,10.78-35.857,10.503-53.873c-0.316-20.543-3.612-41.162-8.055-61.185c-3.422-15.424-7.628-30.892-13.607-45.541
	c-11.809-28.934-29.447-54.908-44.904-81.925c-16.055-28.063-29.071-57.687-46.567-84.955c-5.277-8.225-10.873-16.233-16.647-24.118
	c14.498,0.333,28.951,1.558,42.97,5.553c0.737,0.21,1.468,0.345,2.187,0.413c4.792,2.086,9.701,3.909,14.643,5.689
	c11.91,4.29,23.837,8.531,35.788,12.705c23.125,8.076,46.363,15.838,69.785,23.013
	C1016.399,660.814,1023.088,636.197,1007.412,631.395z M506.159,719.738c-8.298,19.756-21.352,43.155-35.625,59.883
	c-6.535,7.66-13.652,14.824-21.344,21.04c-1.79-1.605-4.165-2.68-7.125-2.895c1.233-12.79,3.436-25.399,7.177-38.695
	c3.13-11.125,6.684-21.186,11.249-30.442c2.608-5.288,5.43-10.482,8.634-15.436c3.062-4.735,5.452-8.088,8.35-11.457
	c7.552-8.779,14.4-14.978,23.63-20.307c4.29-2.477,7.695-4.196,11.358-5.586c1.262,2.807,3.515,5.093,6.294,6.408
	C515.665,695.111,511.284,707.538,506.159,719.738z M418.741,925.92c-0.455,0.884-1.075,1.666-1.53,2.55
	c-0.428,1.015-0.857,2.031-1.285,3.046c-0.587,2.186-0.594,4.371-0.045,6.557c-3.807,2.376-7.615,4.768-11.577,6.866
	c-2.301,1.218-4.621,2.402-6.986,3.492c-2.973,1.371-3.292,1.54-5.932,2.555c-10.954,4.212-22.522,7.572-32.794,7.627
	c-1.768,0.009-3.541,0.006-5.304-0.149c-0.551-0.048-0.908-0.073-1.132-0.081c-0.157-0.033-0.336-0.07-0.55-0.113
	c-1.213-0.244-2.432-0.484-3.618-0.843c-0.206-0.063-3.23-1.225-1.97-0.587c-1.474-0.71-2.913-1.487-4.25-2.434
	c-0.026-0.023-0.041-0.037-0.069-0.063c-0.6-0.535-1.2-1.071-1.759-1.649c-0.584-0.605-1.153-1.226-1.699-1.867
	c-0.179-0.238-0.352-0.473-0.448-0.618c-0.941-1.418-1.835-2.87-2.605-4.39c-0.379-0.747-0.755-1.496-1.097-2.261
	c-0.04-0.112-0.085-0.236-0.143-0.395c-0.647-1.757-1.25-3.531-1.748-5.337c-0.61-2.21-1.157-4.439-1.582-6.693
	c-0.155-0.821-0.804-5.289-0.753-4.576c-0.457-4.062-0.753-8.142-0.848-12.229c-0.227-9.784,0.306-19.578,1.398-29.301
	c0.18-1.601,0.363-3.201,0.569-4.799c0.037-0.289,0.066-0.517,0.09-0.702c0.028-0.186,0.061-0.413,0.103-0.703
	c0.347-2.39,0.708-4.778,1.107-7.16c0.353-2.107,0.726-4.21,1.114-6.31c4.304-0.731,7.933-3.668,9.633-7.587
	c13.157-0.964,26.256-2.938,39.214-5.29c10.998-1.996,22.391-3.665,33.333-6.565c0.818,25.733,3.374,51.54,5.353,77.185
	C420.039,923.926,419.279,924.875,418.741,925.92z M423.933,754.943c-5.566,21.258-7.924,42.771-8.481,64.395
	c-13.535,4.255-27.931,6.447-41.877,8.886c-8.987,1.572-17.996,2.877-27.053,3.707c-0.325-2.705-1.527-5.164-3.303-7.096
	c1.582-5.121,3.301-10.193,5.224-15.18c0.26-0.675,1.631-3.945,1.398-3.455c1.471-3.313,2.983-6.608,4.591-9.857
	c3.345-6.757,6.896-13.407,10.626-19.959c7.836-13.766,16.23-27.201,24.175-40.903c16.208-27.95,29.151-57.693,46.359-85.086
	c25.684-40.884,59.214-76.473,85.49-116.893c0.157,0.006,0.313,0.024,0.471,0.024c1.13-0.152,2.26-0.304,3.39-0.456
	c0.084-0.024,0.161-0.06,0.244-0.085c2.064,2.866,4.168,5.701,6.347,8.48c5.821,8.178,12.684,15.814,18.975,23.625
	c-0.066,1.057-0.16,2.106-0.284,3.148c-3.045,9.006-6.805,17.772-10.459,26.568c-3.53,5.802-6.984,11.653-8.066,18.462
	c-0.183,1.149-0.248,2.296-0.212,3.421c-1.754,5.495-3.213,11.085-4.173,16.838c-0.634,3.798-1.228,7.606-1.817,11.415
	c-4.584,1.614-9.388,2.524-13.936,4.227c-11.408,4.271-22.419,8.721-32.207,16.147c-10.011,7.595-18.533,16.127-26.089,26.175
	C439.224,710.164,429.827,732.431,423.933,754.943z M679.393,843.996c-0.705,2.193-1.918,4.221-3.709,5.846
	c-3.917,3.554-8.476,6.747-13.405,9.315c-0.938,0.699-1.879,1.389-2.825,2.067c-7.198,5.158-15.584,10.143-24.679,10.457
	c-2.531,0.087-5.066-0.279-7.564-0.942c-6.606-1.162-12.774-4.54-17.999-8.791c-6.174-3.851-12.666-8.153-17.387-13.635
	c-1.443-1.675-2.546-3.549-3.29-5.511c-0.595-0.854-1.151-1.745-1.652-2.685c-6.652-12.464,6.329-28.228,19.349-21.814
	c0.052,0.052,0.094,0.105,0.147,0.157c3.575,3.445,7.671,6.421,11.598,9.441c4.128,3.174,8.512,6.99,13.6,8.532
	c7.723,2.34,15.398-1.822,20.82-7.01c2.303-2.204,4.212-4.894,6.076-7.49c0.574-0.411,1.149-0.82,1.731-1.219
	c6.894-4.717,16.945-1.32,20.934,5.489C684.527,831.988,683.564,838.994,679.393,843.996z M826.224,799.963
	c-1.416,0.829-2.653,1.929-3.649,3.216c-8.939-6.769-17.14-14.837-24.581-23.558c-14.272-16.728-27.327-40.127-35.624-59.883
	c-5.202-12.386-9.641-25.004-12.74-38.075c2.222-1.56,3.937-3.803,4.827-6.405c4.305,1.492,8.056,3.335,12.966,6.17
	c9.23,5.329,16.078,11.529,23.63,20.307c2.898,3.369,5.288,6.722,8.35,11.457c3.204,4.954,6.026,10.148,8.634,15.436
	c4.565,9.256,8.12,19.317,11.249,30.442c3.933,13.981,6.178,27.199,7.369,40.669C826.511,799.816,826.364,799.882,826.224,799.963z
	 M939.512,914.329c-0.095,4.087-0.391,8.167-0.848,12.229c0.05-0.713-0.599,3.755-0.753,4.576c-0.425,2.254-0.972,4.482-1.582,6.693
	c-0.498,1.806-1.101,3.58-1.748,5.337c-0.059,0.159-0.103,0.282-0.143,0.395c-0.343,0.765-0.718,1.514-1.097,2.261
	c-0.77,1.52-1.663,2.972-2.605,4.39c-0.096,0.145-0.269,0.38-0.448,0.618c-0.546,0.641-1.115,1.261-1.699,1.867
	c-0.558,0.579-1.159,1.115-1.759,1.649c-0.028,0.025-0.043,0.039-0.069,0.063c-1.338,0.948-2.776,1.725-4.25,2.434
	c1.26-0.638-1.763,0.524-1.97,0.587c-1.186,0.359-2.405,0.6-3.618,0.843c-0.214,0.043-0.393,0.08-0.55,0.113
	c-0.224,0.008-0.581,0.032-1.132,0.081c-1.763,0.155-3.536,0.158-5.304,0.149c-10.272-0.055-21.84-3.415-32.794-7.627
	c-2.64-1.015-2.96-1.185-5.932-2.555c-2.365-1.09-4.685-2.274-6.986-3.492c-5.166-2.736-10.07-5.972-15.052-9.021
	c-0.806-0.493-1.6-1.006-2.404-1.503c2.018-29.361,5.245-58.981,6.183-88.503c10.942,2.9,22.335,4.57,33.333,6.565
	c14.654,2.659,29.488,4.838,44.383,5.612c0.217,0.255,0.437,0.507,0.669,0.738c0.877,0.877,1.875,1.611,2.953,2.193
	c0.7,3.539,1.36,7.086,1.956,10.644c0.399,2.382,0.76,4.77,1.107,7.16c0.042,0.29,0.075,0.518,0.103,0.703
	c0.023,0.186,0.053,0.413,0.09,0.702c0.206,1.597,0.39,3.198,0.569,4.799C939.206,894.752,939.739,904.546,939.512,914.329z
	 M879.295,735.482c7.945,13.701,16.339,27.137,24.175,40.903c3.73,6.552,7.281,13.203,10.626,19.959
	c1.608,3.249,3.12,6.544,4.591,9.857c-0.233-0.49,1.138,2.78,1.398,3.455c1.971,5.111,3.73,10.31,5.343,15.56
	c-1.872,1.775-3.227,4.091-3.766,6.684c-8.941-0.832-17.836-2.123-26.709-3.675c-13.946-2.439-28.342-4.631-41.877-8.886
	c-0.557-21.624-2.915-43.137-8.481-64.395c-5.895-22.512-15.291-44.779-29.331-63.45c-7.557-10.049-16.078-18.58-26.089-26.175
	c-9.788-7.426-20.798-11.876-32.207-16.147c-4.549-1.703-9.352-2.613-13.936-4.227c-0.588-3.809-1.183-7.617-1.817-11.415
	c-0.932-5.584-2.332-11.015-4.017-16.354c0.323-1.784,0.248-3.637-0.367-5.436c-2.996-8.771-6.897-17.202-10.136-25.883
	c-1.671-4.479-3.08-9.043-4.136-13.707c-0.676-2.984-0.963-6.811-0.563-9.097c0.239-1.365,0.528-2.626,0.858-3.82
	c0.019-0.03,0.036-0.058,0.055-0.088c6.523-7.818,13.198-15.648,18.392-24.215c0.515-0.604,1.004-1.223,1.493-1.843
	c0.97,0.275,2.003,0.441,3.162,0.441c0.484,0,0.965-0.036,1.442-0.091c26.283,40.448,59.838,76.053,85.536,116.96
	C850.144,677.789,863.087,707.532,879.295,735.482z"/>
<path d="M620.5,486.016c-0.071-1.102-0.117-2.203-0.176-3.304v-33.846c0-1.169-0.142-2.245-0.381-3.248
	c0.056-4.01,0.117-8.023,0.16-12.04c-6.998-0.021-14.016-0.195-20.915-1.08c-3.709-0.476-7.307-1.193-10.902-2.011
	c-0.048,0.087-0.091,0.175-0.141,0.262c-0.797,1.032-1.595,2.064-2.392,3.097c-1.011,1.011-2.161,1.859-3.397,2.544
	c-0.261,16.066-1.999,32.183-2.362,48.204c-0.114,5.016-0.381,10.047-0.238,15.065c0.156,5.447-0.101,6.7,1.188,11.133
	c0.168,0.577,1.92,4.904,1.214,3.598c0.133,0.268,0.276,0.53,0.412,0.796c1.077,0.056,2.16,0.222,3.233,0.529
	c1.924,0.55,3.858,1.073,5.829,1.431c0.217,0.039,2.632,0.332,2.894,0.394c2.534,0.207,5.064,0.33,7.61,0.348
	c1.34,0.01,2.638,0.212,3.884,0.551c5.151-0.346,10.299-0.714,15.445-1.043v-4.163c0.181-0.414,0.37-0.825,0.54-1.244
	c0.012-2.281,0.009-4.563,0.005-6.844C621.521,498.767,620.911,492.4,620.5,486.016z"/>
</svg>
