<?xml version="1.0" encoding="utf-8"?>
<!-- Generator: Adobe Illustrator 17.0.0, SVG Export Plug-In . SVG Version: 6.00 Build 0)  -->
<!DOCTYPE svg PUBLIC "-//W3C//DTD SVG 1.1//EN" "http://www.w3.org/Graphics/SVG/1.1/DTD/svg11.dtd">
<svg version="1.1" id="Layer_1" xmlns="http://www.w3.org/2000/svg" xmlns:xlink="http://www.w3.org/1999/xlink" x="0px" y="0px"
	 width="1264.719px" height="1095.279px" viewBox="0 0 1264.719 1095.279" enable-background="new 0 0 1264.719 1095.279"
	 xml:space="preserve">
<g>
	<path d="M928.332,35l295.972,512.64l-295.972,512.639H336.387L40.415,547.639L336.387,35H928.332 M948.539,0H316.18L0,547.639
		l316.18,547.639h632.359l316.18-547.639L948.539,0L948.539,0z"/>
</g>
<path d="M920.038,440.247c0.186,0.059,0.373,0.111,0.563,0.154c-0.254-0.124-0.508-0.249-0.763-0.373
	c-34.978-17.166-48.703-60.39-63.814-93.401c-6.329-13.825-15.322-27.314-19.581-41.936c-4.387-15.065-19.587-27.924-16.23-44.586
	c3.645-18.088,9.604-35.566,11.875-53.945c1.598-12.937,4.542-25.668,7.345-38.385c2.235-10.139,4.88-21.138,14.156-27.187
	c8.052-5.251,17.384-11.978,20.389-21.571c3.838-12.255-6.653-23.383-18.75-23.511c-21.659-0.23-28.316,25.175-38.711,39.525
	c-4.705,6.494-10.64,14.101-11.801,22.279c-0.937,6.596,2.108,12.685,4.034,18.804c2.212,7.028,2.261,12.935,0.578,20.07
	c-4.18,17.723-7.959,35.559-11.997,53.301c-1.41,6.196-5.184,5.278-10.271,4.214c-24.42-5.104-51.286-11.604-68.585-31.027
	c-4.785-5.373-9.39-11.785-12.625-18.228c-5.188-10.334-6.34-22.016-9.811-32.929c-4.102-12.894-10.266-28.068-22.098-35.783
	c-6.754-4.404-13.345-9.807-10.541-18.816c3.767-12.1,16.626-22.607,27.921-27.023c12.978-5.073,26.996-4.079,39.339,2.456
	c13.666,7.236,23.721,18.963,35.771,28.339c5.921,4.606,17.685,12.05,22.751,2.305c10.366-19.939-18.318-40.411-32.925-47.094
	c-5.969-2.731-12.219-4.82-18.535-6.587c-24.53-6.862-55.664-14.124-75.887,6.277c-11.443,11.542-16.98,27.236-26.436,40.214
	c-3.571,4.902-8.316,8.252-14.458,6.479c-5.448-1.573-10.474-5.41-13.68-10.07c-2.507-3.643-3.234-8.349-4.951-12.372
	c-3.77-8.836-10.3-17.208-17.891-23.08c-17.123-13.247-37.002-17.384-58.21-13.354c-5.596,1.063-11.224,2.625-16.575,4.583
	c-11.316,4.142-20.981,10.424-30.887,17.156c-10.536,7.159-27.421,14.735-28.133,29.513c-0.17,3.534,1.247,10.259,3.911,12.808
	c10.111,9.672,25.094-2.943,30.889-11.447c1.715-2.516,2.82-5.526,4.77-7.863c2.848-3.413,7.232-5.598,10.95-7.937
	c4.359-2.741,8.851-5.282,13.522-7.453c8.971-4.168,18.871-7.099,28.854-6.35c4.802,0.36,10.147,1.594,14.531,3.636
	c11.052,5.148,26.699,17.565,26.17,31.398c-0.14,3.668-3.357,8.199-6.703,9.777c-4.138,1.952-7.58,4.813-10.781,8.069
	c-7.249,7.375-11.948,17.049-15.622,26.6c-4.97,12.921-5.764,27.373-12.369,39.654c-9.684,18.006-25.905,32.265-45.141,39.273
	c-8.353,3.043-16.859,4.152-25.524,5.821c-4.878,0.94-9.579,3.276-14.44,3.991c-8.309,1.221-8.979-17.003-10.429-22.239
	c-2.367-8.553-3.206-17.336-4.93-26.01c-1.737-8.74-4.668-17.561-3.719-26.581c0.544-5.166,1.87-10.249,1.787-15.473
	c-0.109-6.818-2.184-13.716-3.566-20.372c-1.454-7.004-3.404-13.932-6.368-20.457c-1.928-4.245-4.428-8.291-7.422-11.874
	c-7.637-9.139-26.728-21.056-38.82-13.148c-2.627,1.718-5.28,5.214-6.28,8.201c-1.109,3.315-1.581,8.79-0.485,12.164
	c3.733,11.493,14.158,18.696,21.244,27.945c5.14,6.708,9.423,14.194,11.848,22.318c3.943,13.214,5.325,26.989,7.659,40.534
	c1.86,10.8,4.304,21.489,6.199,32.283c2.534,14.441,3.75,28.866-1.111,42.991c-4.035,11.724-10.279,22.687-16.146,33.563
	c-6.811,12.624-12.986,25.5-19.012,38.516c-10.585,22.87-20.892,52.069-39.097,70.221c-10.833,10.802-40.359,15.322-41.298,33.419
	c-0.455,8.768,7.757,17.942,15.772,20.809c18.713,6.695,31.354-9.088,39.359-23.213c10.681-18.846,21.875-37.49,32.073-56.599
	c5.83-10.926,11.436-22.115,16.362-33.481c3.898-8.995,6.164-21.521,13.692-28.305c4.983-4.488,11.047,0.249,16.488,1.758
	c5.155,1.43,10.308,2.87,15.443,4.371c11.743,3.432,23.58,7,34.75,12.043c8.665,3.912,18.135,8.996,22.588,17.852
	c4.336,8.623,3.065,19.065,2.435,28.337c-0.926,13.634-1.503,27.206-1.348,40.876c0.14,12.272,1.679,25.716-1.303,37.764
	c-6.013,24.292-32.517,2.35-42.967-6.518c-10.219-8.671-19.674-18.234-30.174-26.577c-4.219-3.353-8.607-6.475-13.21-9.289
	c-8.387-5.135-15.94-11.131-22.133,0.998c-4.62,9.049-2.188,19.539-0.278,28.96c2.15,10.606,2.609,20.356,1.818,31.168
	c-1.722,23.551-6.694,46.702-9.626,70.104c-2.868,22.89-5.687,45.791-7.801,68.765c-3.018,32.802-3.609,65.746-7.81,98.448
	c-2.33,18.141-5.347,36.182-8.784,54.144c-6.475,33.564-7.619,67.68-7.019,101.783c0.274,15.578-0.564,31.352-7.669,45.532
	c-6.656,13.282-16.84,24.701-20.536,39.392c-3.92,15.583-4.108,35.17,5.142,49.048c6.511,9.77,21.964,12.924,30.155,3.154
	c4.836-5.769,2.078-12.758,1.184-19.374c-1.776-13.152-4.447-26.441-0.352-39.427c3.665-11.622,11.562-21.325,17.442-31.845
	c13.845-24.771,14.264-57.508,16.331-85.149c2.4-32.094,2.971-64.286,3.319-96.457c0.193-17.823,0.313-35.647,0.638-53.468
	c0.309-16.937,0.894-33.874,2.178-50.768c2.5-32.903,7.318-65.567,10.611-98.39c0.377-3.761-0.674-9.617,1.255-12.961
	c3.875-6.715,6.237,2.611,8.225,6.299c4.275,7.927,9.276,15.457,14.336,22.9c4.47,6.575,8.847,13.26,13.581,19.646
	c8.472,11.429,17.837,22.362,24.987,34.71c13.284,22.943,11.71,48.046,9.144,73.494c-3.515,34.86-6.539,71.377,6.258,104.818
	c6.23,16.281,15.75,30.854,24.398,45.892c7.305,12.702,14.237,25.788,18.369,39.911c6.663,22.771,10.15,46.433,22.249,67.259
	c9.76,16.8,25.284,33.137,45.504,36.044c22.682,3.26,48.439-4.431,63.638-21.682c26.388-29.951,24.987-74.682,42.501-109.208
	c8.13-16.028,18.796-30.642,26.639-46.808c12.015-24.763,15.205-52.529,14.442-79.761c-0.7-24.987-5.969-50.031-3.609-75.057
	c3.24-34.361,27.93-60.999,47.223-87.744c5.332-7.392,10.415-14.974,14.742-23.006c2.714-5.039,6.16-13.344,10.137-3.855
	c6.564,15.666,3.102,36.017,5.242,52.774c2.581,20.209,5.354,40.413,6.667,60.755c3.911,60.623-0.202,121.555,3.976,182.272
	c1.188,17.264,2.817,34.501,5.058,51.662c2.155,16.503,5.127,33.26,13.651,47.819c8.132,13.89,18.976,27.557,18.178,44.539
	c-0.679,14.458-13.407,47.329,10.433,49.917c18.602,2.019,24.141-20.441,24.83-34.597c0.928-19.073-5.995-37.646-15.397-53.924
	c-16.492-28.55-15.28-55.165-14.606-86.976c0.476-22.444-1.837-45.17-5.98-67.217c-5.478-29.15-16.379-58.09-14.942-88.137
	c0.557-11.65,0.535-23.304-0.017-34.953c-0.731-15.411-2.472-30.614-4.827-45.853c-3.723-24.09-4.655-48.512-8.347-72.637
	c-2.606-17.029-5.97-34.286-6.112-51.561c-0.109-13.234,13.096-79.285-16.719-68.847c-9.28,3.249-12.271,13.468-17.571,20.718
	c-5.355,7.326-13.352,11.549-21.215,15.644c-10.875,5.663-19.564,12.826-28.296,21.208c-3.833,3.679-11.564,11.383-17.175,7.131
	c-5.875-4.451-3.449-18.106-4.459-24.507c-2.858-18.12-3.457-36.502-3.636-54.819c-0.082-8.374,0.086-16.759-0.09-25.132
	c-0.142-6.763-1.411-14.79,2.296-21.192c8.368-14.451,34.415-18.195,48.981-23.121c7.525-2.545,14.88-5.761,22.145-8.966
	c3.898-1.72,10.252-6.23,14.66-4.458c5.719,2.312,9.642,17.013,12.261,22.225c1.325,2.637,2.664,5.266,3.986,7.904
	c8.753,17.473,17.558,34.876,27.145,51.914c6.876,12.219,12.865,24.878,19.431,37.254c6.782,12.782,16.727,28.431,33.135,28.092
	c10.932-0.226,22.18-7.16,23.809-18.517C942.967,450.449,930.813,444.721,920.038,440.247z M524.102,307.341
	c-0.491,1.306-1.148,2.634-1.985,3.984c-4.763,7.679-10.054,11.866-19.395,9.372c-9.327-2.491-18.685-4.964-27.967-7.618
	c-6.793-1.942-26.991-7.525-24.924-17.638c0.743-3.637,4.896-6.854,7.633-8.999c6.289-4.929,13.464-8.997,21.037-11.579
	c7.707-2.628,16.04-3.714,23.59-0.172c4.68,2.195,8.326,5.604,12.348,8.746C522.618,289.824,527.617,297.992,524.102,307.341z
	 M662.252,240.936c0.183-0.418,0.376-0.829,0.58-1.233c3.105-6.151,9.226-9.209,15.831-9.986
	c8.873-1.045,16.308,7.631,21.002,13.882c8.293,11.043,8.75,22.423,0.636,33.599c-3.916,5.394-7.838,12.029-14.845,13.676
	c-6.351,1.492-12.763-2.984-16.604-7.738C660.536,272.84,656.699,253.622,662.252,240.936z M639.058,296.059
	c-0.554,2.777-1.688,5.878-3.281,8.24c-0.047,0.069-0.094,0.139-0.142,0.208c-1.523,2.203-4.946,4.359-7.277,5.61
	c-2.394,1.284-5.066,1.955-7.785,1.6c-5.472-0.713-9.833-4.997-12.2-9.762c-5.095-10.257-1.486-22.151,2.153-32.245
	c1.879-5.211,3.63-10.588,6.071-15.568c1.147-2.341,2.949-5.765,5.938-5.94c3.048-0.178,4.888,4.536,5.911,6.703
	c1.32,2.798,2.458,5.736,3.341,8.701C634.892,274.031,641.302,284.808,639.058,296.059z M590.792,200.852
	c0.771-5.737,4.157-10.908,10.427-12.845c6.745-2.084,14.83-2.056,21.847-2.443c7.931-0.437,18.391,0.74,25.225,4.975
	c7.676,4.758,9.841,14.3,4.76,21.838c-6.054,8.981-17.019,11.488-27.088,11.268c-8.167-0.178-18.383,0.52-25.742-3.568
	C593.471,216.328,589.775,208.416,590.792,200.852z M539.05,258.507c0.663-4.892,3.286-9.643,6.565-14.069
	c2.973-4.014,5.92-8.362,9.886-11.471c6.827-5.351,18.273-4.001,23.939,2.443c1.479,1.683,2.817,4.068,3.412,6.237
	c3.342,12.171,2.553,30.068-6.987,39.485c-3.515,3.469-8.715,4.596-13.465,3.654c-8.432-1.672-16.099-7.472-20.678-14.618
	C539.214,266.253,538.531,262.337,539.05,258.507z M534.056,341.731c1.463-14.935,19.453-15.83,30.804-12.984
	c4.367,1.095,8.454,2.966,12.745,4.285c4.367,1.343,8.958,2.17,13.028,4.334c6.563,3.49,11.034,11.231,11.51,18.434
	c0.437,6.624-0.348,14.612-4.089,20.275c-2.011,3.044-5.885,7.479-9.649,8.215c-4.061,0.794-9.109-1.495-12.97-2.651
	c-5.006-1.499-9.901-3.398-14.603-5.679c-7.685-3.728-14.202-9.508-19.185-16.411c-3.524-4.882-7.685-10.217-7.658-16.502
	C533.99,342.613,534.012,342.174,534.056,341.731z M670.448,907.025c-2.715,13.569-15.671,17.599-27.785,18.978
	c-11.819,1.345-24.155,2.263-36.052,1.399c-8.172-0.594-18.413-1.65-24.921-7.153c-3.358-2.84-6.265-8.024-6.996-12.383
	c-0.422-2.518-0.202-5.059,0.643-7.469c1.125-3.209,2.481-6.321,5.506-8.117c3.446-2.046,7.444-2.819,11.366-3.332
	c3.141-0.411,6.301-0.653,9.448-1.012c13.011-1.483,26.069-2.653,39.164-1.551c7.577,0.638,17.176,1.554,23.769,5.721
	c3.307,2.091,6.031,6.289,6.23,10.301C670.895,903.89,670.763,905.455,670.448,907.025z M706.791,829.344
	c-1.123,7.772-8.484,15.212-14.651,18.761c-16.332,9.398-35.965,9.383-54.242,8.92c-9.556-0.242-19.11-0.719-28.672-0.624
	c-12.855,0.127-25.907,1.978-38.684-0.166c-5.209-0.874-10.308-2.512-14.869-5.212c-4.281-2.534-8.149-6.11-11.439-9.824
	c-3.401-3.84-5.989-8.699-5.71-13.962c0.419-7.896,6.822-12.678,13.934-14.156c3.296-0.685,8.564,1.013,11.934,1.43
	c3.613,0.448,7.223,0.935,10.845,1.308c7.033,0.724,14.099,0.821,19.446-4.542c5.817-5.833,7.142-14.483,8.632-22.21
	c3.01-15.616,2.444-32.037,3.627-47.859c0.613-8.196,1.028-16.414,0.909-24.635c-0.199-13.689-1.084-27.358-1.346-41.045
	c-0.416-21.545-0.288-43.113-1.709-64.626c-0.667-10.1-1.396-20.195-2.006-30.298c-1.565-25.92-1.19-51.891,0.645-77.787
	c0.532-7.508,1.165-15.008,1.89-22.499c0.889-9.2,1.805-18.397,2.599-27.605c0.844-9.783,1.996-19.546,3.366-29.268
	c0.643-4.563,0.902-10.543,5.247-13.284c4.458-2.812,9.699-1.731,13.998,0.782c2.02,1.181,3.489,2.932,4.415,5.07
	c1.834,4.235,1.851,9.154,2.018,13.687c1.399,37.841,6.586,75.454,7.3,113.308c0.205,10.903,0.096,21.812-0.329,32.709
	c-0.637,16.352-1.8,32.682-3.439,48.964c-2.861,28.417-4.397,57.095-3.488,85.829c0.265,8.376,0.64,16.748,1.047,25.119
	c0.654,13.46,1.286,26.89,2.503,40.316c1.297,14.308,2.483,39.95,21.842,41.362c14.064,1.026,32.701-13.523,42.752,3.548
	C706.778,823.612,707.202,826.5,706.791,829.344z M710.016,346.707c-2.731,14.578-16.886,24.631-29.517,30.281
	c-4.478,2.003-9.148,3.652-13.822,5.136c-6.107,1.938-12.314,2.457-18.167-0.582c-5.266-2.735-8.961-8.267-9.551-14.231
	c-0.555-5.614-0.713-12.177,1.395-17.5c3.351-8.462,10.236-11.652,18.509-14.019c6.932-1.983,13.765-4.285,20.571-6.659
	c4.521-1.577,9.706-4.426,14.608-4.217c8.638,0.368,15.99,7.584,16.377,16.016C710.51,342.915,710.366,344.841,710.016,346.707z
	 M793.806,299.579c-1.349,7.479-11.357,12.252-17.625,14.204c-8.985,2.798-18.827,2.563-28.137,2.708
	c-5.145,0.08-10.491-0.309-15.468-1.708c-6.516-1.832-16.218-6.945-15.457-15.172c0.658-7.106,4.49-12.071,10.43-15.756
	c8.433-5.232,18.758-7.351,28.584-5.58c8.154,1.47,15.911,4.405,23.497,7.661c4.707,2.02,12.697,3.791,14.051,9.583
	C794.014,296.951,794.036,298.305,793.806,299.579z"/>
</svg>
