<?xml version="1.0" encoding="utf-8"?>
<!-- Generator: Adobe Illustrator 17.0.0, SVG Export Plug-In . SVG Version: 6.00 Build 0)  -->
<!DOCTYPE svg PUBLIC "-//W3C//DTD SVG 1.1//EN" "http://www.w3.org/Graphics/SVG/1.1/DTD/svg11.dtd">
<svg version="1.1" id="Layer_1" xmlns="http://www.w3.org/2000/svg" xmlns:xlink="http://www.w3.org/1999/xlink" x="0px" y="0px"
	 width="1264.719px" height="1095.279px" viewBox="0 0 1264.719 1095.279" enable-background="new 0 0 1264.719 1095.279"
	 xml:space="preserve">
<g>
	<path d="M928.332,35l295.972,512.64l-295.972,512.639H336.387L40.415,547.639L336.387,35H928.332 M948.539,0H316.18L0,547.639
		l316.18,547.639h632.359l316.18-547.639L948.539,0L948.539,0z"/>
</g>
<g>
	<path d="M965.138,886.46c-5.36,7.182-11.625,11.063-20.872,10.121c-14.365-1.464-30.732-11.799-40.11-22.419
		c-9.61-10.882-6.433-25.285-5.26-38.37c1.035-11.552-1.504-22.802-6.756-33.091c-4.838-9.478-12.994-18.142-10.783-29.611
		c3.246-16.833,11.018-32.944,15.155-49.691c5.158-20.881,9.399-41.975,13.678-63.049c11.51-56.692,5.917-115.39-16.197-168.823
		c-4.239-10.244-20.818-33.664,0.271-36.769c9.732-1.433,17.359,13.256,22.583,19.42c12.525,14.78,31.494,14.56,43.477-1.036
		c9.093-11.834,18.715-19.11,30.236-28.299c10.622-8.473,28.437-39.488,22.856-56.464c-1.852-5.633-6.279-9.72-14.399-10.925
		c-6.206-0.921-13.322,0.823-16.625,6.568c-4.094,7.121,1.729,13.998,0.669,21.323c-1.117,7.722-8.374,12.73-13.77,17.544
		c-7.37,6.574-15.471,12.355-22.705,19.077c-7.107,6.604-13.142,15.531-22.479,5.684c-17.229-18.169-39.154-24.81-61.04-10.802
		c4.141-2.659-14.171-17.158-15.818-18.496c-11.563-9.388-25.625-18.455-41.102-13.908c-14.744,4.331-26.292,15.35-39.769,22.276
		c-14.91,7.663-31.416,11.835-47.832,14.824c-7.301,1.325-19.685-2.55-25.901,1.963c-7.913,5.745,2.567,12.82,6.93,17.084
		c17.981,17.575,20.49,44.085,14.294,67.059c-6.354,23.558-21.014,37.634-40.471,50.952c-18.883,12.926-27.507,27.138-28.555,50.21
		c-3.075,67.716,5.054,135.695,5.416,203.458c0.079,14.761-0.133,29.533-1.083,44.266c-0.888,13.78-3.617,27.999,0.193,41.575
		c4.81,17.137,8.422,48.908,23.98,60.409c12.203,9.02,33.65,4.455,47.062,1c20.905-5.385,36.453-19.33,53.578-31.587
		c9.637-6.897,34.354-16.624,31.809-32.112c-1.311-7.942-14.824-18.617-19.271-25.613c-5.027-7.909-6.669-15.602-4.282-24.766
		c2.723-10.456,8.958-21.212,18.438-26.833c8.667-5.139,19.887-5.199,27.615,1.644c3.885,3.44,4.401,7.009,11.34,4.872
		c8.243-2.539,9.088-15.021,14.768-20.055c14.518-12.868,15.165,23.553,13.986,29.947c-7.251,39.33,39.337,53.938,66.82,66.129
		c19.211,8.521,49.971,9.883,56.223-15.7c1.915-7.837,2.238-19.789-3.23-26.277C978.444,867.591,970.983,878.628,965.138,886.46z
		 M785.36,744.943c-7.356,8.121-17.916,14.02-27.545,18.38c-15.943,7.219-37.739,14.435-49.858-3.64
		c-7.412-11.054-3.253-24.612-0.877-36.607c4.11-20.748,13.079-45.642,36.781-49.77c22.969-4,45.714,14.953,48.851,37.425
		C794.007,719.995,792.001,737.61,785.36,744.943z M864.476,621.456c-9.135,7.472-25.569,12.147-34.501,1.473
		c-9.62-11.497-4.769-32.02-3.598-45.632c0.94-10.928,1.935-23.026,8.97-31.966c6.484-8.241,22.558-17.153,32.792-11.299
		c9.54,5.458,14.968,20.219,16.56,30.33C887.966,585.122,880.31,608.504,864.476,621.456z"/>
	<path d="M618.232,832.293c-1.52-45.624,1.338-91.292,1.103-136.929c-0.074-14.324-1.358-28.73-0.723-43.044
		c0.598-13.484,2.63-27.013,0.512-40.464c-2.322-14.754-11.281-25.037-23.283-33.253c-19.457-13.318-34.117-27.394-40.47-50.952
		c-6.196-22.974-3.687-49.484,14.294-67.059c4.363-4.264,14.842-11.339,6.93-17.084c-6.216-4.513-18.599-0.638-25.901-1.963
		c-16.416-2.99-32.922-7.162-47.832-14.824c-13.476-6.926-25.024-17.944-39.769-22.276c-15.478-4.547-29.539,4.52-41.102,13.908
		c-1.647,1.338-19.959,15.836-15.818,18.496c-21.886-14.008-43.811-7.367-61.04,10.802c-9.337,9.847-15.372,0.92-22.479-5.684
		c-7.234-6.722-15.335-12.503-22.705-19.077c-5.396-4.813-12.653-9.822-13.77-17.544c-1.059-7.325,4.763-14.202,0.669-21.323
		c-3.303-5.746-10.419-7.49-16.625-6.568c-8.12,1.205-12.548,5.293-14.399,10.925c-5.581,16.976,12.234,47.992,22.856,56.464
		c11.52,9.19,21.143,16.465,30.236,28.299c11.983,15.596,30.952,15.815,43.477,1.036c5.223-6.164,12.85-20.853,22.583-19.42
		c21.089,3.105,4.511,26.525,0.271,36.769c-22.114,53.434-27.707,112.131-16.197,168.823c4.279,21.075,8.52,42.168,13.678,63.049
		c4.137,16.747,11.909,32.858,15.155,49.691c2.212,11.47-5.945,20.134-10.783,29.611c-5.252,10.289-7.791,21.538-6.756,33.091
		c1.172,13.085,4.35,27.488-5.26,38.37c-9.379,10.619-25.745,20.954-40.11,22.419c-9.247,0.942-15.512-2.939-20.872-10.121
		c-5.845-7.832-13.306-18.868-23.065-7.29c-5.468,6.488-5.145,18.44-3.23,26.277c6.252,25.583,37.012,24.221,56.223,15.7
		c27.483-12.191,74.072-26.799,66.82-66.129c-1.179-6.395-0.531-42.815,13.986-29.947c5.679,5.034,6.524,17.516,14.768,20.055
		c6.939,2.137,7.455-1.432,11.34-4.872c7.728-6.842,18.948-6.783,27.615-1.644c9.48,5.621,15.715,16.377,18.438,26.833
		c2.387,9.164,0.745,16.857-4.282,24.766c-4.447,6.996-17.961,17.671-19.271,25.613c-2.545,15.488,22.172,25.214,31.809,32.112
		c17.125,12.257,32.672,26.202,53.578,31.587c13.413,3.455,34.86,8.021,47.063-1c11.688-8.641,15.455-25.066,18.667-38.285
		c3.372-13.877,6.683-27.371,7.093-41.727c0.429-15-1.285-29.957-2.332-44.898C618.821,846.515,618.469,839.408,618.232,832.293z
		 M439.262,622.929c-8.932,10.674-25.366,5.999-34.501-1.473c-15.834-12.951-23.49-36.334-20.222-57.094
		c1.592-10.111,7.02-24.872,16.56-30.33c10.234-5.855,26.307,3.058,32.792,11.299c7.035,8.94,8.029,21.039,8.97,31.966
		C444.031,590.909,448.881,611.432,439.262,622.929z M561.279,759.683c-12.119,18.074-33.915,10.858-49.858,3.64
		c-9.629-4.36-20.189-10.258-27.545-18.38c-6.641-7.332-8.647-24.948-7.353-34.212c3.138-22.472,25.882-41.425,48.851-37.425
		c23.703,4.128,32.671,29.022,36.782,49.77C564.532,735.071,568.691,748.628,561.279,759.683z"/>
	<path d="M660.896,556.185c3.204-0.157,6.2-1.35,8.812-3.184c20.827-14.632,28.018-55.758,12.403-76.48
		c-8.628-11.449-25.091-22.998-27.061-38.105c-2.491-19.101,25.752-21.52,38.577-22.328c23.368-1.471,46.03-8.616,67.128-18.552
		c26.924-12.68,50.086-27.445,79.075-35.47c0.699-0.459,1.39-0.931,2.065-1.433c18.654-13.875,32.457-32.86,41.553-54.104
		c5.357-12.513,8.086-26.006,9.422-39.51c0.998-10.094-1.849-25.688,4.988-34.351c8.421-10.665,27.037-2.602,37.452-0.096
		c15.272,3.674,33.47,0.438,44.374-11.313c6.383-6.879,10.052-16.199,6.623-25.287c-1.587-4.206-3.887-7.45-6.792-9.585
		c-5.74-4.218-12.429-2.965-19.003-3.707c-7.409-0.836-13.461-4.659-20.475-6.809c-16.033-4.914-40.544,14.796-52.781,23.495
		c-38.492,27.364-21.144,79.152-43.339,114.83c-5.442,8.748-16.03,11.659-24.386,5.119c-8.116-6.353-9.917-18.878-12.896-28.111
		c-5.154-15.972-10.933-35.294-21.369-48.76c-8.313-10.726-24.237-12.446-36.347-8.164c-3.326,1.176-7.584,2.943-11.146,2.7
		c-5.099-0.349-4.084-6.196-3.773-9.693c0.601-6.754-1.004-13.626-2.935-20.064c-1.753-5.845-10.722-15.463-3.258-20.713
		c6.097-4.289,11.971-8.568,17.249-13.859c7.529-7.546,14.262-15.859,22.514-22.666c12.021-9.915,24.831-20.479,30.194-35.645
		c3.47-9.813,4.143-23.51-4.672-30.777c-16.139-13.304-26.81,6.525-33.1,19.121c-8.501,17.022-11.502,37.521-28.069,49.315
		c-4.777,3.401-10.084,6.205-14.605,9.95c-3.471,2.876-6.802,8.308-11.735,8.64c-6.219,0.416-12.019-5.624-17.135-8.277
		c-16.636-8.629-35.667-11.022-54.059-8.849v-0.083c-18.391-2.173-36.965,0.303-53.602,8.932
		c-5.115,2.653-10.915,8.693-17.134,8.277c-4.932-0.332-8.264-5.764-11.735-8.64c-4.521-3.746-9.828-6.55-14.605-9.95
		c-16.567-11.795-19.568-32.293-28.069-49.315c-6.29-12.596-16.961-32.425-33.1-19.121c-8.815,7.267-8.142,20.964-4.673,30.777
		c5.363,15.166,18.173,25.73,30.194,35.645c8.252,6.806,14.985,15.119,22.514,22.666c5.278,5.29,11.153,9.57,17.249,13.859
		c7.464,5.25-1.505,14.868-3.258,20.713c-1.931,6.438-3.536,13.31-2.935,20.064c0.311,3.498,1.326,9.344-3.773,9.693
		c-3.562,0.244-7.819-1.523-11.146-2.7c-12.109-4.282-28.034-2.562-36.347,8.164c-10.436,13.466-16.216,32.788-21.369,48.76
		c-2.979,9.233-4.78,21.758-12.896,28.111c-8.356,6.541-18.943,3.629-24.386-5.119c-22.195-35.678-4.848-87.466-43.339-114.83
		c-12.237-8.699-36.747-28.409-52.781-23.495c-7.014,2.15-13.066,5.972-20.475,6.809c-6.575,0.742-13.263-0.51-19.003,3.707
		c-2.905,2.135-5.205,5.379-6.792,9.585c-3.429,9.088,0.24,18.408,6.623,25.287c10.904,11.751,29.101,14.987,44.374,11.313
		c10.415-2.506,29.031-10.569,37.452,0.096c6.838,8.663,3.99,24.256,4.988,34.351c1.335,13.504,4.064,26.996,9.422,39.51
		c9.095,21.244,22.898,40.228,41.553,54.104c0.675,0.502,1.367,0.974,2.065,1.433c28.989,8.025,52.151,22.789,79.075,35.47
		c21.097,9.936,43.76,17.081,67.128,18.552c12.824,0.807,41.067,3.227,38.577,22.328c-1.97,15.107-18.433,26.656-27.061,38.105
		c-15.615,20.722-8.424,61.848,12.403,76.48c5.666,3.981,11.953,3.014,18.237,1.333c5.688-1.521,10.938-1.886,16.815-1.784
		c4.284,0.074,8.934,0.175,13.26,1.135C652.19,554.651,656.355,556.407,660.896,556.185z M726.899,260.948
		c7.318,1.099,14.285-1.434,21.061-3.846c5.775-2.056,12.254-3.718,17.001,1.37c7.511,8.05,10.63,19.299,13.797,29.571
		c1.085,3.517,2.033,7.079,3.303,10.537c1.154,3.139,3.165,5.807,4.888,8.64c1.319,2.17,3.771,6.005,1.129,8.138
		c-1.761,1.422-4.911,0.571-6.959,0.5c-3.017-0.105-6.036,0.054-9.047,0.216c-7.306,0.393-14.129-2.24-21.338-2.695
		c-0.792-0.05-1.603-0.076-2.441-0.075c-9.27,0.008-19.034-1.54-25.388-8.98c-7.308-8.557-13.401-19.581-16.645-30.377
		C702.405,261.115,718.185,259.64,726.899,260.948z M657.687,186.689c4.797-6.969,13.517-5.71,20.192-2.552
		c3.284,1.554,8.305,3.685,10.83,6.342c-0.03-0.031-0.091-0.041-0.123-0.065c4.336,3.175,7.578,8.734,6.744,13.984
		c-0.22,1.389-0.726,2.756-1.573,4.052c-7.724,11.823-23.175,0.003-31.969-3.882C655.401,201.747,654.169,191.801,657.687,186.689z
		 M562.977,273.946c-3.243,10.796-9.337,21.82-16.645,30.377c-6.354,7.441-16.118,8.989-25.388,8.98
		c-0.838-0.001-1.649,0.025-2.441,0.075c-7.209,0.455-14.032,3.088-21.338,2.695c-3.012-0.162-6.031-0.321-9.047-0.216
		c-2.048,0.071-5.198,0.922-6.959-0.5c-2.642-2.134-0.19-5.968,1.129-8.138c1.723-2.833,3.734-5.5,4.888-8.64
		c1.271-3.458,2.219-7.02,3.303-10.537c3.167-10.272,6.286-21.521,13.797-29.571c4.747-5.088,11.226-3.426,17.001-1.37
		c6.776,2.413,13.743,4.945,21.061,3.846C551.052,259.64,566.831,261.115,562.977,273.946z M607.448,204.57
		c-8.794,3.885-24.245,15.705-31.969,3.882c-0.846-1.296-1.352-2.663-1.573-4.052c-0.833-5.25,2.409-10.809,6.744-13.984
		c-0.032,0.023-0.093,0.034-0.123,0.065c2.525-2.657,7.546-4.788,10.83-6.342c6.674-3.159,15.395-4.418,20.192,2.552
		C615.068,191.801,613.835,201.747,607.448,204.57z"/>
</g>
</svg>
