<?xml version="1.0" encoding="utf-8"?>
<!-- Generator: Adobe Illustrator 17.0.0, SVG Export Plug-In . SVG Version: 6.00 Build 0)  -->
<!DOCTYPE svg PUBLIC "-//W3C//DTD SVG 1.1//EN" "http://www.w3.org/Graphics/SVG/1.1/DTD/svg11.dtd">
<svg version="1.1" id="Layer_1" xmlns="http://www.w3.org/2000/svg" xmlns:xlink="http://www.w3.org/1999/xlink" x="0px" y="0px"
	 width="1264.719px" height="1095.279px" viewBox="0 0 1264.719 1095.279" enable-background="new 0 0 1264.719 1095.279"
	 xml:space="preserve">
<path fill="#010101" d="M928.332,35l295.973,512.639l-295.973,512.64H336.387L40.415,547.639L336.387,35H928.332 M948.539,0H316.18
	L0,547.639l316.18,547.639h632.359l316.18-547.639L948.539,0L948.539,0z"/>
<g>
	<path fill="#010101" d="M695.554,1007.088c-1.207-8.194-5.714-15.224-10.023-22.125c-4.652-7.449-6.966-15.036-9.835-23.198
		c-12.919,0.607-23.901,9.352-37.183,8.658c-12.669-0.662-23.658-10.163-36.576-8.682c-1.043,3.61-0.536,7.813-1.861,11.302
		c-1.458,3.841-4.282,7.17-6.645,10.474c-5.124,7.163-9.955,14.668-11.267,23.571c-1.112,7.55,4.678,17.041,13.178,15.273
		c13.45-2.797,7.934-30.279,25.921-25.331c6.03,1.659,10.045,8.305,8.184,14.414c-0.576,1.893-1.215,3.763-1.892,5.621
		c-0.729,1.047-1.301,2.208-1.646,3.46c-1.734,6.303,2.087,12.528,8.184,14.414c4.881,1.51,10.188,0.96,14.654-1.494
		c5.591-3.072,7.366-10.633,4.204-16.032c-0.252-0.43-0.533-0.828-0.827-1.211c-0.379-1.385-0.775-2.766-1.216-4.133
		c-1.962-6.079,2.231-12.776,8.184-14.414c6.36-1.749,12.452,2.11,14.413,8.181c1.83,5.666,1.802,14.015,8.906,15.819
		C690.914,1023.814,696.669,1014.658,695.554,1007.088z"/>
	<path fill="#010101" d="M727.664,855.761c5.231-6.706,9.419-18.869-0.795-23.443c-8.217-3.68-11.318,4.413-14.141,10.379
		c-2.947,6.229-6.668,11.786-11.1,17.06c-8.24,9.805-18.437,17.735-28.689,25.314c-9.659,7.142-20.234,14.172-32.625,14.721
		c-13.732,0.609-25.452-7.26-36.013-15.08c-10.058-7.447-20.124-15.334-28.211-24.956c-3.918-4.662-7.376-9.715-10.155-15.138
		c-2.924-5.706-4.51-15.556-13.083-13.198c-6.598,1.815-9.275,8.127-8.184,14.414c0.683,3.935,3.007,6.871,5.386,9.927
		c0.271,0.348,2.981,3.5,2.077,2.299c0.166,0.22,0.292,0.361,0.388,0.449c-0.064,0.177-0.112,0.535-0.097,1.226
		c0.18,8.322-4.595,16.437-3.116,25.114c0.73,4.282,3.88,7.479,7.227,9.974c1.8,1.342,0.776,0.507,2.235,1.912
		c0.313,0.301,1.438,2.183,1.202,1.488c2.684,6.681,2.099,13.995,5.353,20.61c2.046,4.16,5.756,6.662,9.922,7.981
		c7.181,2.273,14.134,5.179,21.236,7.674c6.757,2.373,13.775,3.932,20.489,6.429c6.271,2.332,12.578,5.016,19.307,5.64
		c13.233,1.228,26.881-5.57,39.112-9.8c9.138-3.16,17.875-7.027,27.084-9.943c4.165-1.319,7.876-3.821,9.922-7.981
		c3.254-6.615,2.67-13.929,5.353-20.61c-0.236,0.695,0.889-1.186,1.202-1.488c1.459-1.405,0.435-0.571,2.235-1.912
		c3.413-2.545,6.475-5.56,7.228-9.975c1.479-8.676-3.296-16.791-3.116-25.113c0.015-0.692-0.033-1.049-0.097-1.226
		c0.096-0.088,0.222-0.23,0.388-0.449C724.684,859.26,727.389,856.114,727.664,855.761z"/>
</g>
<path fill="#010101" d="M960.431,284.511c-6.89-24.503-21.767-46.623-38.748-65.298c-17.086-18.79-37.155-34.42-59.216-46.953
	c-10.246-5.821-21.155-11.271-32.657-14.095c-12.171-2.988-25.953-5.007-37.96-0.252c-15.31,6.063-18.545,26.445-14.165,40.975
	c2.029,6.731,4.558,13.235,5.803,20.186c1.195,6.669,2.022,13.405,3.05,20.101c1.089,7.091,2.179,14.21,2.359,21.397
	c0.419,16.761-4.828,32.925,2.225,49.009c3.683,8.399,9.412,15.759,16.173,21.911c3.326,3.027,6.916,5.786,10.644,8.299
	c3.975,2.68,10.537,4.811,12.271,9.71c2.323,6.567-5.008,13.113-11.281,13.108c-10.948-0.009-20.339-5.691-30.882-7.63
	c-3.274-0.602-6.555-1.156-9.841-1.683c-2.818-0.112-5.644-0.152-8.483-0.133c-11.138,0.074-22.477-0.907-33.535,0.813
	c-10.27,1.598-21.104,6.487-31.545,3.29c-11.801-3.613-4.325-18.004-6.589-26.364c-1.99-7.346-6.826-13.108-12.311-18.171
	c-4.518-4.17-13.517-9.15-15.643-14.849c11.574-7.884,27.872-6.585,40.379-12.805c10.563-5.253,19.847-14.304,22.109-26.277
	c1.957-10.356-1.312-20.889-8.041-28.862c-7.627-9.037-19.037-12.545-27.403-20.639c-8.195-7.93-10.183-18.693-8.155-29.728
	c2.66-14.467,12.063-27.626,20.836-39.038c17.754-23.096,38.489-40.988,63.669-55.375c5.533-3.161,17.982-5.794,18.028-14.861
	c0.046-9.067-6.617-9.531-12.094-9.912c-21.607-1.5-42.735,15.497-60.707,32.047c-14.319,13.186-24.487,24.553-34.52,39.186
	c-5.016,7.315-8.045,15.785-12.914,23.198c-3.934,5.99-8.384,15.26-9.911,22.413c0.754-3.529-11.585-11.103-14.302-12.065
	c-6.498-2.299-15.373-1.859-21.239,1.906c-3.974,2.551-6.317,6.678-9.49,10.012c-15.104-21.878-28.583-44.402-44.82-65.556
	c-18.886-24.606-40.872-52.165-74.771-52.641c-15.12-0.212-15.099,23.223,0,23.435c11.05,0.155,21.119,5.461,29.843,13.101
	c5.064,4.435,9.618,9.44,13.984,14.551c4.211,4.929,8.079,9.957,11.504,14.418c10.081,13.134,20.059,26.483,28.884,40.589
	c6.006,9.6,20.871,21.057,12.744,33.692c-7.689,11.953-25.163,17.404-36.025,26.266c-10.129,8.264-15.001,20.933-12.558,33.86
	c2.262,11.972,11.547,21.024,22.109,26.277c6.822,3.392,14.268,5.066,21.632,6.819c6.055,1.441,14.599,1.516,19.165,6.197
	c-9.356,11.995-23.97,16.561-28.371,32.808c-1.324,4.887-1.033,10.105-0.542,15.078c1.687,17.088-20.884,11.459-30.396,9.244
	c-13.354-3.11-27.148-1.971-40.73-2.061c-2.839-0.019-5.665,0.021-8.483,0.133c-7.395,1.186-14.232,2.621-21.276,5.175
	c-6.834,2.478-14.428,5.727-21.826,3.908c-4.374-1.075-9.277-4.454-9.18-9.467c0.187-9.538,19.551-17.844,25.782-23.894
	c14.721-14.293,18.519-30.558,16.966-50.463c-1.546-19.81,0.766-39.979,4.252-59.482c3.228-18.057,12.5-34.583,2.504-52.347
	c-8.871-15.765-34.354-12.115-48.824-8.564c-11.503,2.824-22.413,8.274-32.659,14.095c-22.061,12.533-42.13,28.163-59.216,46.953
	c-16.981,18.675-31.858,40.795-38.748,65.298c-6.832,24.297-5.91,50.402-3.796,75.288c0.54,6.362,4.921,11.717,11.717,11.718
	c7.625,0,10.29-4.776,10.928-11.638c1.257-13.521,1.146-26.948,3.526-40.369c2.514-14.176,6.232-28.168,11.214-41.679
	c6.87-18.631,19.932-33.904,34.721-46.801c14.161-12.348,30.5-21.899,47.172-30.424c8.36-4.275,16.433-7.716,25.554-10.135
	c4.985-1.322,10.546-2.093,15.609-1.776c-2.05,8.901-3.96,17.834-5.915,26.757l-40.163,11.705l2.812,22.732l-37.262,6.562
	l12.892,27.056l-31.641,17.002l26.013,22.732c0,0-15.936,27.654-15.924,27.658c6.501,2.713,13.065,5.278,19.516,8.132
	c6.873,3.043,8.258,9.516,11.994,15.39c11.957,18.801,28.506,21.986,48.999,25.677c16.512,2.974,32.884,1.876,49.522,2.432
	c11.589,0.387,22.07-0.724,31.865-7.416c7.422-5.071,14.375-11.231,22.655-13.826c1.588-0.142,3.178-0.337,4.771-0.559
	c-3.77,0.525,16.754,64.904,17.021,71.148c0.167,3.917-1.461,7.884-1.683,11.808c-0.439,7.75,2.778,14.81,5.816,21.732
	c2.512,5.722,7.08,13.075,3.212,19.125c-4.225,6.609-11.115,10.66-14.307,18.077c-2.324,5.4-2.904,11.013-3.32,16.84
	c-0.982,13.748-12.298,21.282-21.841,29.841c-9.694-6.763-15.935-17.557-23.102-26.705c-8.701-11.107-17.389-22.231-26.16-33.284
	c-8.734-11.005-16.976-22.348-25.942-33.18c-7.12-8.602-16.464-20.09-28.108-22.172c-1.363-0.244-2.726-0.295-4.047-0.175
	c-1.945-0.608-4.2-0.637-6.714,0.175c-8.762,2.832-17.209,6.482-25.774,9.841c-5.454-0.316-11.079,2.651-12.159,8.901
	c-0.834,1.617-1.343,3.444-1.447,5.368c0.101-1.871-0.901,2.633-0.541,1.863c-0.826,1.771-1.909,3.432-2.949,5.082
	c-2.011,3.189-4.191,6.24-5.846,9.639c-4.138,8.497-8.074,17.068-12.476,25.437c-4.27,8.117-9.102,15.91-13.54,23.933
	c-4.311,7.793-8.504,15.645-13.355,23.123c-4.913,7.573-10.505,14.648-14.999,22.498c-3.031,5.295-7.119,9.922-9.823,15.413
	c-4.388,8.912-3.513,17.011,2.61,24.759c2.33,2.948,4.882,5.663,6.9,8.841c0.422,0.664,0.793,1.36,1.148,2.067
	c0.117,0.318,0.237,0.634,0.359,0.948c2.605,6.671,5.19,13.05,7.283,19.92c1.949,6.397,3.832,12.813,5.592,19.262
	c0.411,2.504,0.836,5.006,1.288,7.504c1.527,8.44,3.872,16.721,6.144,25.016c2.302,12.519,4.185,25.151,6.497,37.681
	c0.474,3.284,1.151,6.549,1.756,9.792c0.113,0.604,0.3,1.174,0.522,1.724c2.048,9.582,4.508,19.063,7.776,28.344
	c5.289,15.02,12.808,29.141,19.6,43.505c2.73,5.773,10.887,7.217,16.032,4.204c5.863-3.434,6.934-10.258,4.204-16.032
	c-5.934-12.55-12.475-24.843-17.237-37.907c-4.512-12.379-7.31-25.375-9.732-38.324c-0.006-0.073-0.012-0.143-0.019-0.224
	c-0.1-1.125-0.105-2.25-0.068-3.375c0.046-0.271,0.064-0.548,0.085-0.824c-0.454-3.065-0.851-6.135-1.207-9.209
	c-1.365-7.762-3.218-15.397-5.165-23.014c-0.67-3.752-1.367-7.499-2.114-11.237c-1.682-8.413-3.774-16.731-6.064-24.996
	c-2.39-8.624-2.792-18.119-4.43-26.932c-1.194-6.424-6.516-16.023-4.792-22.311c1.659-6.045,5.856-11.215,9.14-16.445
	c6.515-10.377,13.892-20.292,20.115-30.835c5.282-8.949,9.399-18.374,15.241-27.021c5.615-8.311,11.15-16.635,15.408-25.736
	c2.297-4.911,4.472-10.568,7.259-15.163c6.115-10.079,22.389,11.347,26.226,15.71c9.645,10.969,18.055,22.98,27.635,34.013
	c6.976,8.034,14.571,15.508,20.998,24.009c8.17,10.805,13.979,24.922,26.436,31.653c6.374,3.444,11.963-0.488,18.208-1.68
	c8.012-1.53,10.523,4.25,12.928,10.906c3.538,9.79,5.639,19.792,6.306,30.18c1.844,28.712-0.187,56.922-3.551,85.412
	c-0.621-0.679-1.234-1.366-1.858-2.04c-3.678-3.976-6.855-7.262-8.111-11.957c-0.161-0.602-0.364-1.155-0.586-1.686
	c-0.496-1.456-1.053-2.893-1.686-4.303c-3.613-8.051-8.676-15.256-13.283-22.745c-5.606-9.111-11.381-18.112-17.216-27.078
	c-11.641-17.888-23.873-35.262-35.955-52.847c-5.695-8.289-10.66-17.083-16.567-25.214c-4.346-5.982-9.116-11.684-13.02-17.956
	c-0.764-3.173-2.16-5.993-4.847-8.403c-11.045-9.906-24.615,5.94-30.855,13.676c-14.619,18.124,1.622,38.001,9.536,55.13
	c4.712,10.2,6.445,21.103,8.151,32.11c2.085,13.455,4.025,26.933,5.88,40.422c7.195,52.314,12.783,104.838,18.687,157.309
	c0.096,0.857,0.259,1.693,0.477,2.503c0,0.105-0.011,0.203-0.008,0.309c0.113,5.001-1.209,9.582-2.527,14.38
	c-1.642,5.976-2.803,12.051-4.145,18.099c-2.86,12.897-5.641,25.786-8.246,38.736c-4.885,24.277-11.073,48.611-21.916,70.981
	c-2.786,5.748-1.62,12.621,4.204,16.032c5.185,3.037,13.247,1.542,16.032-4.204c11.528-23.784,18.609-49.093,23.936-74.898
	c2.786-13.495,5.587-26.966,8.589-40.417c1.349-6.048,2.506-12.122,4.145-18.1c1.844-6.726,3.523-13.585,3.364-20.61
	c-0.028-1.231-0.223-2.351-0.533-3.382c-5.978-53.138-11.777-106.297-18.958-159.29c-1.745-12.879-3.593-25.744-5.539-38.594
	c-0.608-4.018-1.204-8.003-1.89-11.955c8.016,14.957,15.331,30.288,22.476,45.675c1.91,4.112,3.846,8.214,5.703,12.35
	c0.152,0.339,1.4,3.225,1.364,3.119c0.763,1.815,1.51,3.635,2.259,5.456c3.102,7.543,6.184,15.107,9.812,22.417
	c5.595,11.273,13.969,24.301,25.479,30.269c5.086,2.637,8.997,6.384,11.518,11.581c2.392,4.931,2.672,11.192,7.052,14.937
	c2.941,2.515,6.884,4.661,10.214,6.651c3.437,2.053,7.676,2.698,10.963,4.722c3.161,1.946,3.737,4.634,5.498,7.627
	c11.304,19.21,22.417,36.675,41.075,49.429c11.175,7.638,23.709,6.908,35.264,0.894c5.702-2.968,10.897-6.814,15.712-11.052
	c2.715-2.389,11.324-8.416,12.153-11.991c0.056-0.241,0.1-0.479,0.172-0.725c1.832-6.344,5.468-11.337,9.042-16.755
	c3.333-5.052,5.403-11.394,9.714-15.728c4.163-4.185,12.455-5.94,17.62-9.185c2.376-1.492,6.69-3.372,8.288-5.612
	c1.604-2.248,1.699-6.405,2.485-9.059c3.087-10.425,9.358-12.308,17.329-18.075c9.56-6.917,16.626-17.495,21.804-27.928
	c3.628-7.31,6.71-14.873,9.812-22.416c0.749-1.82,1.496-3.641,2.259-5.456c-0.036,0.106,1.212-2.78,1.364-3.119
	c1.857-4.136,3.793-8.238,5.703-12.35c7.146-15.387,14.46-30.718,22.476-45.675c-0.686,3.951-1.281,7.937-1.89,11.955
	c-1.946,12.85-3.793,25.715-5.539,38.594c-7.181,52.993-12.98,106.152-18.958,159.29c-0.31,1.031-0.505,2.151-0.533,3.382
	c-0.159,7.024,1.52,13.883,3.364,20.61c1.639,5.978,2.796,12.052,4.145,18.1c3.001,13.451,5.803,26.922,8.589,40.417
	c5.326,25.805,12.407,51.114,23.936,74.898c2.785,5.745,10.847,7.241,16.032,4.204c5.824-3.411,6.99-10.284,4.204-16.032
	c-10.843-22.37-17.031-46.704-21.916-70.981c-2.606-12.95-5.386-25.84-8.246-38.736c-1.342-6.048-2.503-12.123-4.145-18.099
	c-1.318-4.798-2.64-9.379-2.527-14.38c0.002-0.106-0.008-0.204-0.008-0.309c0.218-0.81,0.38-1.646,0.477-2.503
	c5.904-52.471,11.492-104.995,18.687-157.309c1.855-13.489,3.795-26.967,5.88-40.422c1.705-11.008,3.439-21.911,8.151-32.11
	c2.416-5.229,5.089-10.326,7.85-15.38c2.396-4.385,5.267-8.866,6.367-13.798c9.322-11.617-2.008-22.37-9.985-30.386
	c-6.806-6.84-15.224-18.502-25.549-9.242c-2.687,2.41-4.083,5.231-4.847,8.404c-3.904,6.272-8.674,11.974-13.02,17.956
	c-5.907,8.131-10.872,16.925-16.567,25.214c-17.927,26.092-35.931,52.086-52.605,79.01c-4.722,7.625-9.544,15.219-13.602,23.226
	c-3.036,5.992-5.732,15.825-11.943,19.187c-1.57-5.412-2.664-11.778-3.302-17.411c-0.838-7.394-1.347-14.827-1.614-22.263
	c-0.532-14.836-0.131-29.692,0.82-44.503c0.537-8.363,2.033-16.657,4.484-24.672c1.482-4.846,3.359-14.799,8.436-17.218
	c4.823-2.298,11.142,3.571,15.973,4.107c16.587,1.839,27.075-22.671,34.872-33.666c3.648-5.145,8.226-9.6,12.594-14.13
	c4.885-5.066,9.276-10.491,13.969-15.721c2.589-2.885,5.223-5.768,7.902-8.622c6.069-9.255,13.8-17.345,20.805-25.916
	c0.028-0.114,0.073-0.222,0.104-0.335c0.016-0.019,0.035-0.034,0.051-0.054c2.097-2.513,4.393-4.819,6.773-7.041
	c0.301-0.106,0.589-0.224,0.909-0.313c1.246-1.139,2.544-2.22,3.997-3.149c5.193-3.32,6.022-1.449,8.114,3.158
	c1.969,4.337,4.013,8.643,6.203,12.874c6.385,12.338,14.698,23.291,21.612,35.265c4.384,7.593,7.69,15.76,12.655,23.014
	c2.295,3.354,4.714,6.604,7.143,9.833c3.136,5.143,6.308,10.263,9.46,15.397c3.6,5.864,10.556,13.613,10.522,20.769
	c-0.023,4.794-3.816,10.594-4.797,15.448c-3.748,18.532-7.462,37.079-11.168,55.617c-0.747,3.738-1.444,7.485-2.114,11.237
	c-1.947,7.618-3.8,15.252-5.165,23.014c-0.356,3.074-0.752,6.145-1.207,9.209c0.021,0.276,0.039,0.553,0.085,0.824
	c0.037,1.125,0.031,2.25-0.068,3.375c-0.007,0.081-0.013,0.152-0.019,0.224c-2.422,12.949-5.22,25.945-9.732,38.324
	c-4.762,13.064-11.303,25.357-17.237,37.907c-2.73,5.774-1.659,12.598,4.204,16.032c5.145,3.014,13.302,1.57,16.032-4.204
	c6.792-14.364,14.311-28.485,19.6-43.505c3.268-9.281,5.728-18.762,7.776-28.344c0.222-0.55,0.409-1.12,0.522-1.724
	c0.604-3.243,1.282-6.508,1.756-9.792c2.312-12.53,4.194-25.162,6.497-37.681c2.272-8.295,4.617-16.576,6.144-25.016
	c0.452-2.498,0.876-5,1.288-7.504c1.76-6.448,3.643-12.865,5.592-19.262c2.093-6.87,4.678-13.249,7.283-19.92
	c0.122-0.313,0.242-0.629,0.359-0.948c0.354-0.707,0.726-1.402,1.148-2.067c2.018-3.178,4.57-5.893,6.9-8.841
	c6.123-7.747,6.999-15.846,2.61-24.759c-2.704-5.491-6.791-10.117-9.823-15.413c-4.494-7.85-10.086-14.925-14.999-22.498
	c-4.851-7.477-9.044-15.329-13.355-23.123c-4.438-8.023-9.271-15.815-13.54-23.933c-4.402-8.369-8.338-16.94-12.476-25.437
	c-1.655-3.399-3.836-6.45-5.846-9.639c-1.04-1.65-2.122-3.31-2.949-5.082c0.359,0.77-0.642-3.734-0.541-1.863
	c-0.104-1.924-0.613-3.75-1.447-5.368c-1.081-6.25-6.706-9.218-12.159-8.901c-8.566-3.359-17.012-7.009-25.774-9.841
	c-2.514-0.813-4.77-0.784-6.714-0.175c-1.321-0.119-2.683-0.068-4.047,0.175c-11.644,2.082-20.988,13.57-28.108,22.172
	c-8.966,10.832-17.208,22.175-25.942,33.18c-9.881,12.451-19.514,25.079-29.505,37.457c-5.948,7.368-11.868,17.081-19.759,22.532
	c-1.526,1.054-15.602-14.663-16.882-16.517c-4.991-7.228-4.362-15.311-6.853-23.41c-1.809-5.882-4.852-11.295-8.551-16.202
	c-2.577-3.419-7.312-6.984-8.776-11.064c-4.829-13.467,10.865-23.793,10.697-36.779c-0.06-4.652-2.111-9.374-1.743-13.967
	c1.321-16.487,9.297-33.919,13.435-49.894c1.518-5.858,5.392-14.59,3.582-20.72c-0.025-0.083,12.284,3.933,13.538,4.669
	c13.896,8.162,24.033,16.988,41.106,17.187c9.767,0.114,19.509,1.206,29.282,0.962c8.697-0.217,16.651-2.378,25.131-3.996
	c2.647-0.505,1.876-0.377,4.628-0.581c2.254-0.168,4.511-0.292,6.764-0.47c8.779-0.694,17.715-2.6,24.993-7.805
	c5.456-3.903,9.219-9.601,11.958-15.647c3.951-8.718,5.915-13.993,15.409-17.415c1.839-0.663,16.397-6.968,16.516-6.755
	l-15.936-27.654l26.013-22.732l-31.641-17.002l12.892-27.056l-37.262-6.562l2.812-22.732l-40.163-11.705
	c-1.955-8.923-3.865-17.856-5.915-26.757c5.063-0.316,10.624,0.454,15.609,1.777c39.743,10.542,79.656,36.587,100.329,72.838
	c13.745,24.104,18.508,52.752,20.6,80.086c0.137,1.79,0.599,3.493,1.329,5.027c-0.246,3.805-0.54,7.601-0.86,11.378
	c-0.541,6.374,5.74,11.718,11.718,11.718c6.796,0,11.177-5.356,11.718-11.718C966.341,334.913,967.263,308.808,960.431,284.511z
	 M617.026,243.44c-1.147,8.868-5.523,17.271-8.007,25.789c-2.483,8.516-55.426-6.359-36.52-25.365
	c5.516-5.545,13.744-9.483,20.316-13.8c9.874-6.486,21.692-9.606,24.253,5.338c0.018,0.166,0.039,0.359,0.067,0.609
	C617.413,238.53,617.342,241.003,617.026,243.44z M660.615,244.6c-0.618-7.602,0.678-14.721,4.34-17.997
	c6.767-6.056,15.006-1.413,21.227,2.955c7.474,5.248,18.237,8.875,22.218,17.85c4.362,9.833-5.026,15.924-13.186,18.73
	c-5.135,1.766-10.844,3.908-16.186,4.8C668.638,272.671,661.697,257.897,660.615,244.6z"/>
</svg>
