<?xml version="1.0" encoding="utf-8"?>
<!-- Generator: Adobe Illustrator 17.0.0, SVG Export Plug-In . SVG Version: 6.00 Build 0)  -->
<!DOCTYPE svg PUBLIC "-//W3C//DTD SVG 1.1//EN" "http://www.w3.org/Graphics/SVG/1.1/DTD/svg11.dtd">
<svg version="1.1" id="Layer_1" xmlns="http://www.w3.org/2000/svg" xmlns:xlink="http://www.w3.org/1999/xlink" x="0px" y="0px"
	 width="1264.719px" height="1095.279px" viewBox="0 0 1264.719 1095.279" enable-background="new 0 0 1264.719 1095.279"
	 xml:space="preserve">
<g>
	<path d="M928.332,35l295.972,512.64l-295.972,512.639H336.387L40.415,547.639L336.387,35H928.332 M948.539,0H316.18L0,547.639
		l316.18,547.639h632.359l316.18-547.639L948.539,0L948.539,0z"/>
</g>
<g>
	<path d="M792.758,369.693c0.529,2.241,2.043,4.249,3.592,5.966c4.21,4.66,11.685,13.218,11.199,19.025
		c-0.831,9.978-11.838,8.597-19.496,6.06c-4.264-1.415-7.845-4.67-12.259-5.536c-5.506-1.079-13.757,1.825-19.308,1.865
		c-3.839,0.03-7.737-0.395-11.501,0.564c-5.951,1.519-12.115,2.379-18.16,3.503c-2.726,0.505-5.457,1.004-8.187,1.489
		c-6.456,1.143-12.931,2.207-19.426,3.087c-20.079,2.716-39.896,2.409-60.1,2.241c-25.081-0.203-48.999,0.826-73.594-5.387
		c-9.459-2.39-19.11-3.903-28.752-5.323c-21.544-3.171-34.97-5.412-57.765,0.757c-4.868,1.315-16.691,9.681-22.607,8.652
		c-3.888-0.673-9.23-6.872-8.939-9.374c0.49-4.18,7.104-9.929,9.998-12.853c4.742-4.788,12.378-6.67,16.408-12.013
		c7.712-10.225-16.806-25.922-23.654-32.043c-17.226-15.398,12.458-41.96,29.314-27.8c6.769,5.687,18.631,22.693,24.546,28.339
		c5.857,5.59,11.467-0.831,16.839-3.503c7.114-3.542,12.466,0.019,18.427,4.042c4.412,2.983,9.107,5.763,14.499,6.356
		c9.003,0.994,25.13,0.569,34.139,0.291c14.029-0.435,25.768-5.936,39.293-8.548c14.207-2.745,28.612-1.993,42.632,1.519
		c14.836,3.715,29.34,12.105,45.031,10.893c8.994-0.697,15.845-8.044,24.665-9.112c8.276-1.004,12.402,8.009,19.823,8.157
		c7.7,0.158,24.964-21.429,29.123-26.447c5.44-6.563,13.051-13.055,22.491-9.4c8.744,3.387,20.469,14.092,15.811,23.828
		c-4.159,8.692-32.48,17.219-34.193,27.868C792.49,367.843,792.545,368.788,792.758,369.693z"/>
	<path d="M897.104,708.169c10.23,28.376-30.646,22.252-46.239,23.289c-16.973,1.128-16.483,16.993-27.861,25.798
		c-11.877,9.192-27.905,8.707-42.142,9.409c-21.177,1.039-41.198,8.405-61.604,13.579c-21.855,5.54-44.389,8.187-66.906,8.771
		c-28.633,0.747-56.746-2.296-84.992-4.61c-18.685-1.529-36.028-9.893-54.376-13.287c-12.758-2.36-25.694-3.607-38.64-4.294
		c-9.968-0.529-24.695,2.147-33.792-2.513c-10.818-5.54-8.324-9.835-10.882-19.891c-3.738-14.693-17.72-14.971-30.285-13.409
		c-9.444,1.175-20.081,4.823-29.62,2.77c-11.941-2.57-14.711-18.275-7.877-27.609c5.967-8.147,18.703-7.356,27.558-6.656
		c10.677,0.844,22.618,1.353,32.942,4.092c33.341,8.844,69.239,14.73,101.688,27.924c46.031,18.709,99.254,17.789,147.897,13.03
		c22.855-2.236,45.432-6.817,67.431-13.372c33.232-9.903,65.303-27.904,100.633-29.043c13.083-0.422,25.866-4.92,39.047-3.828
		c5.79,0.48,12.654,1.884,16.453,6.728C896.089,705.757,896.625,706.841,897.104,708.169z"/>
	<path d="M805.728,496.778c2.275,1.954,4.452,4.086,6.589,6.288c6.327,6.53,19.99,17.196,18.64,27.272
		c-2.424,18.135-35.954-1.751-45.303-1.449c-34.42,1.118-59.644,10.67-94.084,12.679c-14.84,0.866-29.672,3.176-44.487,3.018
		c-26.713-0.282-53.753,0.331-80.021-3.626c-15.588-2.35-31.403-3.968-46.813-7.371c-14.821-3.275-33.258-6.46-48.692-6.213
		c-13.337,0.213-49.85,18.753-49.246,6.386c0.697-14.36,12.481-24.284,23.844-31.22c11.323-6.911,22.874-13.846,36.364-15.093
		c30.225-2.79,59.506,11.497,89.182,14.826c47.015,5.268,93.991,0.416,140.689-5.481c13.376-1.687,26.738-3.478,39.966-6.114
		c10.759-2.142,21.865-5.368,32.931-3.898C793.391,487.869,799.881,491.752,805.728,496.778z"/>
	<path d="M451.24,466.326c-0.336,0.213-0.667,0.435-0.999,0.667c-4.996,3.462-19.824,21.481-26.696,15.871
		c-6.742-5.504-4.972-8.574-1.242-14.388c6.219-9.69-27.286-12.081-33.763-15.265c-10.942-5.38-8.038-22.237,0.053-30.36
		c5.661-5.684,12.251-2.075,18.25,0.91c15.634,7.78,41.125,7.151,57.076,4.344c15.061-2.65,31.387-6.688,46.549-2.557
		c48.425,13.183,96.984,18.664,147.194,14.846c15.355-1.168,30.631-3.018,45.808-5.655c16.483-2.864,32.486-7.92,48.929-10.942
		c13.599-2.494,26.57,1.039,40.051,2.237c10.057,0.894,31.264-4.786,41.14-7.639c5.914-1.709,13.644-7.177,20.048-4.714
		c9.551,3.678,18.155,23.403,7.5,29.491c-6.63,3.789-31.138,3.175-31.41,12.466c-0.184,6.287,11.708,20.618,1.82,23.749
		c-11.289,3.582-19.036-10.027-19.036-10.027c-15.8-14.796-43.216-12.922-62.187-9.963c-26.446,4.126-52.729,9.701-79.511,11.303
		c-33.763,2.018-67.213,3.324-100.891-1.014c-13.995-1.806-27.836-4.576-41.757-6.861c-17.764-2.914-23.562-2.182-41.564-2.636
		C474.491,459.88,461.797,459.563,451.24,466.326z"/>
	<path d="M362.848,848.577c0.226-6.683,3.972-13.17,10.896-15.26c9.713-2.931,20.043-3.713,29.972-5.657
		c8.39-1.642,21.058-1.806,28.321-6.762c8.38-5.719,2.167-11.977,5.16-19.921c6.416-17.032,30.987-8.499,43.513-5.753
		c19.229,4.21,38.724,6.945,57.953,11.294c21.796,4.927,43.918,8.618,66.233,10.097c26.451,1.751,53.263,1.147,79.476-2.983
		c19.743-3.112,39.04-8.405,58.452-13.07c19.011-4.566,38.22-7.212,57.389-10.898c9.334-1.795,21.395,0.747,24.937,10.033
		c1.984,5.204-0.589,7.351,1.143,12.501c2.772,8.243,13.019,9.785,20.403,10.992c9.886,1.616,19.893,3.434,29.621,5.822
		c8.511,2.089,22.191,4.758,20.291,16.841c-3.183,20.237-13.976,16.48-28.718,15.849c-9.195-0.393-17.817-3.884-26.128-7.561
		c-6.261-2.77-17.044-9.85-24.129-7.279c-4.294,1.559-4.147,3.866-7.927,6.077c-6.54,3.834-18.615-6.02-24.828-8.272
		c-13.98-5.066-25.075-3.611-39.684-2.097c-38.324,3.968-77.478,4.605-116.049,5.357c-41.954,0.822-83.389-5.14-125.19-6.634
		c-13.302-0.475-28.663,0.302-39.585,8.865c-3.374,2.647-7.584,7.144-12.308,6.584c-7.107-0.833-7.678-9.729-13.943-11.732
		c-8.547-2.728-23.72,11.608-32.711,14.689c-9.457,3.241-25.406,10.009-34.991,3.964C365.1,860.311,362.652,854.371,362.848,848.577
		z"/>
	<path d="M572.978,237.235c0.321,0.297,0.638,0.599,0.954,0.896c3.596,3.414,6.445,7.534,9.553,11.373
		c2.404,2.974,4.442,6.105,5.461,9.814c1.039,3.794,0.979,8.053,3.32,11.393c4.962,7.074,13.876,0.401,18.486-3.146
		c3.091-2.379,2.988-6.243,6.53-8.038c6.228-3.161,28.222-2.859,34.237,0.618c3.913,2.26,3.399,7.312,7.04,9.914
		c5.175,3.695,14.579,7.044,19.748,1.712c6.055-6.248,6.639-15.8,10.651-23.206c3.206-5.921,6.757-11.442,11.65-16.112
		c7.554-7.208,16.107-13.594,24.102-20.312c7.361-6.188,15.306-12.07,24.274-15.711c4.962-2.014,10.468-3.27,15.82-3.601
		c25.096-1.544,50.513-0.94,75.217-4.853c21.098-3.344,43.087-2.974,63.276-11.62c2.785-1.192,6.08-3.191,8.627-2.602
		c14.573,3.354,27.905-2.691,41.678-4.947c15.123-2.479,22.627-1.118,25.694,6.055c2.434,5.699-9.553,15.845-22.32,16.132
		c-12.199,0.272-17.566,9.221-27.945,17.037c-8.504,6.406-24.255,1.237-34.307,2.74c-13.238,1.979-25.644,7.584-39.169,7.955
		c-15.488,0.425-30.992,0.178-46.466-0.629c-10.898-0.569-22.162-3.433-33.075-1.588c-11.769,1.989-15.484,4.858-23.181,12.793
		c-7.395,7.624-13.97,15.133-20.174,23.745c-5.496,7.633-13.124,16.058-11.546,26.224c1.44,9.27,9.775,16.003,11.437,25.259
		c0.95,5.273-0.935,9.241-5.551,12.115c-8.425,5.243-22.483,10.092-32.333,6.679c-8.464-2.934-17.22-5.051-25.808-7.594
		c-10.161-3.008-20.381-6.481-31.057-6.965c-10.7-0.49-21.183,2.186-31.294,5.427c-14.222,4.556-30.141,13.139-45.328,8.044
		c-5.075-1.702-9.854-4.482-14.697-6.753c-3.675-1.721-8.86-4.18-10.309-8.41c-2.671-7.786,1.266-14.322,5.693-20.47
		c3.379-4.69,7.04-9.914,8.078-15.736c1.578-8.84-4.774-16.651-9.621-23.32c-5.229-7.193-11.259-13.752-19.08-18.175
		c-6.268-3.542-12.491-7.91-19.644-9.409c-6.441-1.351-13.119-0.663-19.634-1.39c-7.881-0.881-14.124-1.237-21.969-0.193
		c-16.261,2.162-32.046-1.247-48.311-1.825c-15.034-0.534-29.271-7.613-43.735-6.268c-6.114,0.569-12.788,2.414-18.936,1.064
		c-7.099-1.559-9.82-7.762-15.647-11.091c-7.717-4.423-16.166-2.073-24.566-2.483c-8.657-0.416-14.212-12.58-18.724-18.467
		c-3.809-4.967-0.569-7.83,3.7-8.365c8.563-1.069,17.368-2.142,25.877-1.271c13.466,1.375,27.549,2.325,39.931,7.153
		c14.821,5.783,30.309,3.626,44.65,7.341c23.112,5.991,46.575,5.758,69.806,8.746c10.547,1.355,21.079-2.622,31.601-0.732
		c6.016,1.083,11.794,3.478,17.774,4.809c5.912,1.316,10.71,3.903,15.073,8.138c6.945,6.743,11.902,10.299,18.575,17.294
		C562.075,227.673,567.675,232.294,572.978,237.235z"/>
	<path d="M354.589,572.048c1.657-8.635,12.687-13.811,22.605-12.488c14.518,1.935,37.107,15.279,49.747,3.056
		c4.774-4.616,24.517-8.41,32.472-8.034c25.294,1.198,35.522,5.949,60.142,11.673c14.247,3.314,29.349,3.22,44.106,4.012
		c32.506,1.742,65.175,5.59,97.508,3.75c24.947-1.419,50.186-4.482,75.138-9.36c24.699-4.833,54.433-8.873,80.433-5.281
		c2.577,0.356,5.214,0.297,7.786,0.697c8.211,1.286,14.513,7.207,22.961,8.147c11.973,1.333,23.255-7.637,34.575-9.785
		c9.724-1.846,18.14,6.334,21.297,14.664c4.04,10.657-0.6,17.43-11.845,18.958c-9.483,1.281-17.765,1.383-26.635,4.975
		c-4.497,1.82-11.717,1.293-12.484,7.031c-0.718,5.383,3.384,8.349-0.836,13.128c-3.641,4.126-10.003,4.284-14.628,1.884
		c-3.893-2.023-11.981-3.843-16.211-5.011c-7.816-2.162-16.161-3.027-24.22-1.934c-11.838,1.603-24.319,4.185-34.692,9.736
		c-26.911,14.405-56.557,15.864-85.314,17.69c-18.596,1.182-37.245,1.138-55.86,0.638c-18.007-0.485-36.087-0.94-54.065-2.058
		c-19.762-1.227-37.823-6.332-56.306-13.183c-17.468-6.471-34.579-14.904-53.302-17.067c-12.456-1.44-20.544,4.022-30.245,10.898
		c-3.423,2.428-9.869,1.559-13.53-1.014c-5.288-3.715-0.856-10.24-0.782-15.138c0.099-6.47-11.008-5.785-16.445-7.06
		c-12.266-2.878-30.653-0.099-38.565-12.251C354.694,579.168,353.955,575.355,354.589,572.048z"/>
	<path d="M840.624,646.817c10.086,13.846,6.035,14.811,4.521,28.484c-0.183,1.642-5.056,4.502-7.529,3.947
		c-36.805-8.291-59.792,8.603-87.461,19.061c-21.172,8.004-42.424,12.293-64.111,15.024c-29.988,3.779-60.327,3.033-90.384,0.505
		c-25.531-2.147-51.28-4.521-75.945-11.847c-23.794-7.074-46.293-18.165-70.913-22.429c-6.515-1.128-13.727,1.415-19.906-0.386
		c-13.495-3.938-8.86-19.837-5.075-29.453c5.071-12.897,38.224-16.839,48.959-12.006c20.896,9.404,47.297,20.327,70.023,23.042
		c21.034,2.518,42.796,4.225,63.939,5.738c40.995,2.934,82.306-0.085,122.781-6.579c33.836-5.427,67.089-36.74,102.093-18.447
		C835.093,643.289,838.378,645.477,840.624,646.817z"/>
	<path d="M470.003,876.97c13.708-11.19,31.957-6.317,47.871-5.293c32.076,2.058,64.21,4.106,96.315,5.59
		c10.284,0.475,20.594,0.599,30.893,0.505c9.488-0.084,18.976-0.317,28.459-0.618c15.781-0.51,31.561-1.118,47.327-1.949
		c26.01-1.37,37.498-5.842,63.3-1.682c6.144,0.99,13.733,11.061,11.665,17.572c-3.938,12.402-3.666,13.856-8.697,25.867
		c-1.638,3.913-12.406,3.512-15.909,0c-16.24-16.27-37.507-13.748-57.394-6.574c-21.474,7.752-41.188,15.558-64.225,17.67
		c-14.163,1.296-28.553,0.782-42.607-1.4c-22.543-3.503-42.666-14.153-64.774-19.04c-12.021-2.656-24.631-3.027-36.077,2.122
		c-9.245,4.16-19.52,15.998-30.285,8.984c-7.692-5.011-10.621-16.355-11.743-24.784C463.048,885.919,465.581,880.577,470.003,876.97
		z"/>
	<path d="M583.514,1029.235c-6.945-0.901-25.882-4.492-29.855-10.492c-5.664-8.563,9.765-15.093,15.627-19.204
		c7.529-5.279,16.809-2.394,24.096,10.067c1.974,3.374,8.246,11.61,7.108,15.909
		C599.612,1028.834,590.456,1030.135,583.514,1029.235z"/>
	<path d="M635.155,1016.942c13.169-0.416,15.964-8.147,22.874-18.061c7.781-11.155,20.663-18.076,34.331-16.661
		c14.9,1.544,24.833,16.948,40.604,15.261c8.682-0.925,11.353-10.71,15.86-16.582c8.206-10.695,16.265-6.248,25.17,1.712
		c6.579,5.887,15.093,8.266,22.909,11.957c7.514,3.547,14.549,9.805,23.087,10.513c11.788,0.979,16.983-19.727,8.514-28.478
		c-6.713-6.936-17.067-9.696-25.099-14.714c-11.021-6.886-23.971-9.826-34.264-17.985c-7.43-5.892-14.123-8.192-23.977-8.291
		c-23.809-0.242-44.735,10.577-67.352,14.653l-15.528,3.908c-25.051,3.403-49.088,0.525-73.663-3.908
		c-22.423-4.044-43.595-15.571-66.82-14.687c-15.98,0.608-29.743,7.871-43.071,16.053c-12.325,7.566-28.307,12.985-38.89,22.746
		c-9.541,8.801-7.839,18.353,3.756,23.339c23.299,10.02,35.104-13.714,52.072-23.812c21.567-12.831,22.333,16.138,40.521,17.87
		c5.797,0.554,14.128-7.767,18.62-10.651c20.203-12.99,41.905-0.564,54.683,17.744c6.817,9.765,12.001,18.303,25.13,18.086
		C634.799,1016.952,634.977,1016.947,635.155,1016.942z"/>
	<path d="M685.054,1031.62c6.955-0.777,25.942-4.022,30.003-9.953c5.793-8.464-9.538-15.271-15.335-19.49
		c-7.45-5.417-16.77-2.696-24.245,9.627c-2.023,3.334-8.419,11.457-7.341,15.781C668.962,1030.927,678.094,1032.396,685.054,1031.62
		z"/>
</g>
</svg>
