<?xml version="1.0" encoding="utf-8"?>
<!-- Generator: Adobe Illustrator 17.0.0, SVG Export Plug-In . SVG Version: 6.00 Build 0)  -->
<!DOCTYPE svg PUBLIC "-//W3C//DTD SVG 1.1//EN" "http://www.w3.org/Graphics/SVG/1.1/DTD/svg11.dtd">
<svg version="1.1" id="Layer_1" xmlns="http://www.w3.org/2000/svg" xmlns:xlink="http://www.w3.org/1999/xlink" x="0px" y="0px"
	 width="1264.719px" height="1095.279px" viewBox="0 0 1264.719 1095.279" enable-background="new 0 0 1264.719 1095.279"
	 xml:space="preserve">
<g>
	<path d="M928.332,35l295.972,512.64l-295.972,512.639H336.387L40.415,547.639L336.387,35H928.332 M948.539,0H316.18L0,547.639
		l316.18,547.639h632.359l316.18-547.639L948.539,0L948.539,0z"/>
</g>
<g>
	<path d="M881.493,213.264c3.459-3.732,6.688-7.624,10.799-10.671c6.011-4.454,14.972-7.862,15.55-16.514
		c0.452-6.805-5.28-10.872-10.576-14.439c-1.482-0.998-2.93-1.957-4.199-2.926c-5.569-4.251-11.698-10.209-19.342-8.348
		c-7.063,1.72-7.8,9.893-8.771,15.844c-1.343,8.232-3.811,15.716-9.281,22.138c-4.906,5.759-12.624,13.631-8.957,21.967
		C853.512,235.766,874.892,220.386,881.493,213.264z"/>
	<path d="M1020.757,624.312c-0.127-0.132-0.257-0.26-0.391-0.385c-5.503-5.107-17.118-6.742-23.935-10.701
		c-8.509-4.941-22.956-11.855-31.741-3.773c-14.144,13.013,13.603,34.09,20.367,44.403
		C1002.742,680.821,1037.621,641.893,1020.757,624.312z"/>
	<path d="M941.647,588.979c-1.622-5.876-4.328-11.7-5.962-14.921c-11.717-23.111-28.709-43.234-40.356-66.482
		c-6.446-12.867-13.875-26.999-27.978-32.645c-10.233-4.097-30.429,8.252-28.477-9.82c1.747-16.171,17.119-26.755,24.601-40.132
		c7.086-12.67,3.944-28.114-9.246-35.301c-6.121-3.336-13.328-3.823-20.15-3.524c-11.278,0.494-23.828,0.335-34.553-3.584
		c-17.039-6.226-3.196-16.561,5.628-22.478c14.001-9.389,29.685-16.901,41.604-29.117c10.59-10.855,7.842-26.149,5.581-39.6
		c-2.25-13.383-0.07-33.64-11.039-43.778c-9.119-8.426-24.676-4.852-23.192,8.495c1.943,17.467,15.77,28.554,11.572,47.621
		c-3.56,16.168-15.546,20.972-28.068,29.375c-16.99,11.402-33.305,28.248-55.79,24.944c-5.772-0.848-11.043-3.123-15.796-6.351
		c-0.418-18.106-2.186-35.948-9.515-52.991c-4.569-10.625-11.249-19.455-21.215-25.546c-7.685-4.696-16.846-6.723-25.84-7.201
		c-0.293-0.513-0.592-1.021-0.871-1.542c-0.815-1.523-1.242-2.81-1.414-4.264c1.961-8.57,4.568-17.006,7.652-25.202
		c17.589-28.886,31.373-60.083,50.547-88.099c21.275-31.087,58.85-50.996,95.397-58.477c6.648-1.361,10.397-9.102,8.691-15.306
		c-1.887-6.861-8.668-10.05-15.306-8.691c-40.036,8.195-79.473,29.99-104.757,62.511c-13.176,16.948-23.357,35.926-33.28,54.891
		c-8.695,16.613-15.238,39.111-29.949,51.651c0.163-0.139-16.68-5.26-18.527-5.266c-6.051-0.021-12.221,1.845-17.019,5.582
		c-1.996,1.554-27.758-47.66-30.013-51.97c-9.921-18.962-20.102-37.941-33.278-54.888c-25.284-32.522-64.721-54.316-104.757-62.511
		c-6.639-1.359-13.419,1.83-15.306,8.691c-1.707,6.204,2.043,13.946,8.691,15.306c36.547,7.481,74.123,27.39,95.397,58.477
		c19.173,28.016,32.958,59.214,50.547,88.099c3.406,9.053,6.234,18.397,8.246,27.894c-0.003,0.233-0.013,0.444-0.026,0.65
		c-16.858,2.187-33.405,14.694-42.11,28.419c-6.51,10.264-5.86,23.712-6.108,35.324c-0.101,4.736-0.173,9.468-0.033,14.182
		c-7.154,8.501-16.188,15.044-26.967,16.628c-22.485,3.304-38.8-13.542-55.79-24.944c-12.521-8.403-24.508-13.207-28.068-29.375
		c-4.198-19.067,9.629-30.153,11.572-47.621c1.484-13.348-14.073-16.921-23.192-8.495c-10.969,10.137-8.789,30.394-11.039,43.778
		c-2.261,13.451-5.01,28.746,5.581,39.6c11.918,12.214,27.6,19.726,41.601,29.114c6.052,4.058,16.055,11.783,9.989,19.684
		c-6.896,8.983-29.242,6.804-38.911,6.38c-6.822-0.299-14.029,0.189-20.15,3.524c-13.19,7.188-16.332,22.631-9.246,35.301
		c7.482,13.377,22.854,23.962,24.601,40.132c1.951,18.072-18.244,5.724-28.477,9.82c-14.103,5.646-21.532,19.778-27.978,32.645
		c-11.647,23.249-28.639,43.371-40.356,66.482c-1.633,3.222-4.34,9.045-5.962,14.921c-2.558,9.269-2.418,18.672,8.888,18.208
		c5.153-0.212,10.47-7.527,13.323-11.084c7.841-9.773,12.253-21.398,18.911-31.864c8.1-12.732,16.973-25.286,23.933-38.693
		c3.956-7.621,9.711-25.285,19.042-27.458c17.886-4.166,12.342,27.898,10.597,36.007c-2.528,11.753-5.584,23.536-6.718,35.53
		c-1.435,15.166-2.343,30.392-2.425,45.629c-0.072,13.451,3.51,28.399,2.079,41.611c-1.086,10.008-18.119,17.673-24.591,24.287
		c-19.815,20.251-18.766,47.047-21.981,73.327c-2.104,17.199-4.394,34.379-7.151,51.487c-1.792,11.12-8.824,40.38,10.626,40.368
		c0.178,0,0.346-0.019,0.518-0.027c0.159,0.011,0.315,0.027,0.481,0.027c2.395,0,4.424-0.563,6.104-1.506
		c0.219,0.08,0.435,0.166,0.654,0.247c0.053-0.034,0.107-0.069,0.159-0.103c2.664-1.727,4.722-14.528,5.248-17.728
		c1.34-8.165,1.165-16.501,2.457-24.673c3.425-21.658,7.976-43.455,8.839-65.398c0.467-11.878,1.851-22.218,10.578-31.057
		c3.973-4.024,8.894-7.994,14.086-10.258c4.903,10.56,5.716,23.036,8.748,34.22c6.589,24.302,13.362,48.598,20.818,72.65
		c8.489,27.383,18.103,54.766,31.556,80.157c10.946,20.66,24.875,39.991,39.85,57.919c26.123,31.276,57.547,55.47,99.522,57.675
		c12.767,0.671,25.842,0.375,38.586-0.641c27.259-2.174,50.911-16.412,70.224-35.056c7.229-6.979,14.542-14.26,20.988-21.977
		c14.975-17.928,28.904-37.26,39.85-57.92c13.452-25.391,23.067-52.774,31.556-80.157c7.456-24.052,14.229-48.348,20.818-72.65
		c3.032-11.184,3.845-23.661,8.748-34.22c5.192,2.264,10.113,6.234,14.086,10.258c8.727,8.839,10.111,19.179,10.578,31.057
		c0.863,21.943,5.414,43.74,8.839,65.398c1.292,8.172,1.118,16.508,2.458,24.673c0.525,3.2,2.584,16.001,5.248,17.728
		c0.052,0.034,0.106,0.068,0.159,0.103c0.219-0.08,0.435-0.167,0.654-0.247c1.68,0.943,3.709,1.506,6.104,1.506
		c0.166,0,0.322-0.016,0.481-0.027c0.171,0.007,0.34,0.026,0.518,0.027c19.45,0.011,12.418-29.249,10.626-40.368
		c-2.757-17.108-5.047-34.287-7.151-51.487c-3.215-26.279-2.166-53.076-21.981-73.327c-6.472-6.615-23.506-14.279-24.591-24.287
		c-1.431-13.212,2.151-28.16,2.079-41.611c-0.081-15.236-0.99-30.463-2.425-45.629c-1.135-11.995-4.19-23.777-6.718-35.53
		c-1.744-8.109-7.289-40.174,10.597-36.007c9.331,2.174,15.086,19.837,19.042,27.458c6.96,13.406,15.832,25.96,23.933,38.693
		c6.658,10.466,11.07,22.091,18.911,31.864c2.853,3.556,8.17,10.871,13.323,11.084C944.065,607.651,944.205,598.249,941.647,588.979
		z M650.267,319.485c0.036-1.731,0.195-3.423,0.458-5.014c2.403-14.503,17.721-22.751,29.828-11.947
		c3.134,2.797,4.786,6.778,5.711,10.793c1.591,6.901,1.883,15.61-2.044,21.819c-2.022,3.198-5.731,5.96-9.413,6.972
		c-3.038,0.836-6.626,0.59-9.787-0.634C653.859,340.486,650.063,329.353,650.267,319.485z M580.863,318.461
		c0.651-10.9,10.079-22.871,22.057-19.376c8.462,2.469,13.887,10.777,14.357,19.317c0.252,4.591-0.286,11.763-2.507,15.88
		c-3.714,6.886-12.49,11.123-20.134,8.647c-3.942-1.277-8.515-5.133-10.384-8.878C582.091,329.723,580.573,323.315,580.863,318.461z
		 M803.928,591.54c-4.863,16.536-10.075,32.966-14.989,49.485c-5.1,17.141-9.983,34.739-13.009,52.384
		c-0.19,0.11-0.384,0.208-0.569,0.331c-17.687,11.766-35.182,23.733-52.705,35.731c-6.253,4.281-12.653,8.384-17.122,14.627
		c-4.794,6.697-4.901,15.105-2.917,22.799c4.742,18.39,18.159,34.718,29.132,49.747c13.611,18.642,29.045,38.88,18.211,62.81
		c-20.233,44.691-64.18,80.893-114.677,79.056c-40.158-1.461-76.522-17.522-101.974-49.201
		c-7.213-8.978-13.789-19.345-18.547-29.854c-10.833-23.93,4.601-44.168,18.211-62.81c10.973-15.03,24.39-31.358,29.132-49.747
		c1.984-7.694,1.877-16.102-2.917-22.799c-4.47-6.244-10.869-10.346-17.122-14.627c-17.524-11.998-35.018-23.965-52.705-35.731
		c-0.185-0.123-0.379-0.221-0.569-0.331c-3.027-17.645-7.91-35.243-13.009-52.384c-4.914-16.519-10.126-32.949-14.989-49.485
		c-8.164-27.762-31.733-90.846,11.612-102.675c10.614-2.897,32.86-4.396,34.226,11.702c1.405,16.577-6.031,30.646-0.362,47.466
		c9.272,27.512,27.391,49.652,43.712,73.141c8.321,11.976,15.812,24.508,24.243,36.42c6.436,9.094,15.548,16.003,25.053,21.586
		c15.447,9.073,33.456,19.752,52.091,14.401c4.528-1.3,9.64-3.527,13.422-6.381c12.595-9.506,21.946-23.715,30.736-36.604
		c6.602-9.68,12.529-19.798,19.216-29.422c16.321-23.489,34.44-45.628,43.712-73.141c5.669-16.82-1.768-30.889-0.362-47.466
		c1.366-16.098,23.612-14.599,34.226-11.702C835.661,500.695,812.092,563.778,803.928,591.54z M784.075,457.992
		c-68.765,14.213-141.692,6.65-211.428,5.774c-20.776-0.261-41.562-0.821-62.27-2.605c-16.865-1.453-34.073-4.167-49.63-11.144
		c-10.812-4.849-54.103-34.49-25.785-40.333c15.235-3.143,31.085-0.541,46.358,0.989c54.618,5.471,109.607,7.078,164.476,6.814
		c15.377-0.074,30.753-0.444,46.111-1.23c39-1.997,77.975-4.453,116.974-6.486c7.818-0.408,34.384-7.125,29.453,9.146
		C831.311,442.092,808.897,452.861,784.075,457.992z"/>
	<path d="M949.332,897.579c-9.279-7.137-14.804-20.393-25.596-25.095c-7.26-3.163-19.472-0.474-23.848,6.701
		c-7.026,11.521,6.066,20.576,13.581,27.404c7.07,6.424,12.909,13.744,15.496,23.074c2.092,7.547,2.079,18.615,12.289,19.546
		c9.062,0.826,17.788-8.821,25.589-12.163c9.711-4.16,11.34-9.443,8.885-14.947C970.636,910.684,958.76,904.831,949.332,897.579z"/>
	<path d="M372.427,202.594c4.112,3.046,7.341,6.939,10.799,10.671c6.601,7.122,27.981,22.502,34.778,7.051
		c3.666-8.336-4.051-16.207-8.957-21.967c-5.47-6.422-7.939-13.905-9.281-22.138c-0.97-5.95-1.708-14.123-8.771-15.844
		c-7.645-1.862-13.774,4.096-19.342,8.348c-1.269,0.969-2.717,1.928-4.199,2.926c-5.297,3.567-11.029,7.634-10.577,14.439
		C357.455,194.732,366.415,198.14,372.427,202.594z"/>
	<path d="M300.029,609.453c-8.785-8.082-23.233-1.168-31.741,3.773c-6.817,3.959-18.431,5.594-23.935,10.701
		c-0.135,0.125-0.265,0.253-0.391,0.385c-16.864,17.581,18.015,56.509,35.7,29.543C286.426,643.543,314.174,622.466,300.029,609.453
		z"/>
	<path d="M340.983,872.484c-10.792,4.701-16.317,17.958-25.596,25.095c-9.428,7.252-21.304,13.106-26.397,24.519
		c-2.455,5.504-0.826,10.787,8.885,14.947c7.801,3.342,16.527,12.989,25.589,12.163c10.21-0.931,10.197-11.999,12.289-19.546
		c2.587-9.33,8.426-16.65,15.496-23.074c7.515-6.828,20.608-15.884,13.581-27.404C360.455,872.009,348.243,869.321,340.983,872.484z
		"/>
</g>
</svg>
