<?xml version="1.0" encoding="utf-8"?>
<!-- Generator: Adobe Illustrator 17.0.0, SVG Export Plug-In . SVG Version: 6.00 Build 0)  -->
<!DOCTYPE svg PUBLIC "-//W3C//DTD SVG 1.1//EN" "http://www.w3.org/Graphics/SVG/1.1/DTD/svg11.dtd">
<svg version="1.1" id="Layer_1" xmlns="http://www.w3.org/2000/svg" xmlns:xlink="http://www.w3.org/1999/xlink" x="0px" y="0px"
	 width="1264.719px" height="1095.279px" viewBox="0 0 1264.719 1095.279" enable-background="new 0 0 1264.719 1095.279"
	 xml:space="preserve">
<g>
	<path d="M928.332,35l295.972,512.64l-295.972,512.639H336.387L40.415,547.639L336.387,35H928.332 M948.539,0H316.18L0,547.639
		l316.18,547.639h632.359l316.18-547.639L948.539,0L948.539,0z"/>
</g>
<path d="M1006.598,559.915c-1.585-0.085-3.285,0.016-5.091,0.331c-17.364,3.032-32.92,13.199-49.89,17.945
	c-17.199,4.81-35.779,8.733-53.66,5.84c-10.41-1.685-20.232-5.755-30.542-7.872c-12.405-2.547-25.111-3.707-37.669-2.443
	c-10.864-0.145-21.815,0.53-33.055,1.299c-15.832,1.082-31.698,1.731-47.571,1.645c-9.641-0.052-24.959,2.224-32.073-5.983
	c-6.458-7.45-1.614-18.785,5.888-23.34c23.984-14.563,54.202-2.94,79.456-12.789c22.979-8.962,41.808-29.06,53.283-50.475
	c10.915-20.37,11.601-43.108,16.782-65.131c6.628-28.174,30.075-44.258,42.603-68.861c13.262-26.047,24.457-53.556,43.27-76.286
	c6.807-8.224,16.183-14.065,22.461-22.819c6.411-8.939,8.573-24.534-7.346-24.694c-11.525-0.116-17.908,11.727-24.297,19.429
	c-11.813,14.242-25.525,27.358-39.391,39.596c-15.632,13.796-32.385,27.035-43.122,45.255
	c-12.052,20.451-15.259,44.728-21.984,67.158c-6.099,20.342-24.725,30.625-33.695,48.833c-8.798,17.861-12.291,39.424-27.497,53.466
	c-15.558,14.367-38.657,15.995-58.624,18.509c-6.56,0.826-22.074,0.26-21.743-9.181c0.419-11.815,19.095-15.28,27.509-18.682
	c27.375-11.069,28.094-39.226,40.328-62.021c10.439-19.45,18.826-32.771,14.44-55.62c-2.449-12.759-6.316-23.918-3.32-36.961
	c4.092-17.809,11.2-33.837,11.688-52.448c1.018-38.909-17.791-75.697-31.415-111.139c-8.728-22.705-17.666-44.938-32.913-64.205
	c-7.154-9.039-14.857-17.57-23.014-25.713c-7.953-7.939-21.673-28.08-34.133-15.619c-11.985,11.985,8.915,27.04,16.781,34.122
	c31.425,28.292,52.277,69.238,53.597,111.789c0.94,30.295-5.626,58.573,1.913,88.721c4.27,17.077,9.462,35.542,4.2,53.008
	c-3.783,12.556-11.494,23.709-12.536,37.058c-0.939,12.034,1.625,24.228,0,36.203c-1.928,14.201-12.897,22.803-21.789,32.932
	c-6.741,7.679-13.363,16.825-22.687,21.617c-14.542,7.474-19.555-12.62-10.33-22.108c15.144-15.575,25.054-36.465,17.72-58.615
	c-2.571-7.765-9.199-18.136-18.542-17.797c-12.293,0.447-10.721,13.966-9.697,22.448c1.936,16.038-12.2,32.57-26.495,37.187
	c-14.424,4.658-25.457-4.788-30.41-17.693c-4.488-11.695,2.34-40.657-17.844-39.478c-14.497,0.849-15.524,25.956-15.248,36.072
	c0.352,12.891,3.39,21.862,10.507,32.155c7.099,10.266,8.063,30.268-9.167,20.497c-13.438-7.622-20.176-21.372-28.85-33.445
	c-7.397-10.296-19.046-16.315-23.82-28.594c-4.604-11.841-3.13-24.589-3.585-36.986c-0.591-16.081-13.013-26.887-14.467-41.919
	c-2.193-22.704,11.104-43.395,10.397-65.957c-0.43-13.708-6.865-27.126-8.356-40.863c-4.854-44.718,16.894-86.516,42.236-121.715
	c5.826-8.091,13.698-15.256,17.915-24.437c3.831-8.341,1.305-22.538-11.287-19.119c-7.219,1.96-11.903,8.984-16.215,14.521
	c-15.453,19.844-28.735,41.281-39.855,63.829c-15.071,30.559-19.743,64.897-34.954,95.399c-11.824,23.711-5.152,49.61,1.44,73.754
	c6.903,25.285,8.169,49,9.097,75.071c0.385,10.822,1.503,20.739,8.195,29.613c5.702,7.561,10.899,14.576,15.133,23.15
	c6.397,12.955,11.467,27.115,21.226,38.052c8.443,9.463,22.703,12.578,32.36,20.739c13.205,11.159,5.61,26.048-10.508,23.779
	c-19.807-2.788-35.299-21.174-46.32-36.403c-7.854-10.853-16.275-21.495-26.824-29.858c-13.464-10.675-31.909-18.732-40.221-34.577
	c-8.211-15.654-9.169-34.294-20.165-48.609c-11.275-14.678-28.429-23.977-44.412-32.556c-22.462-12.057-42.175-28.44-63.945-41.611
	c-9.419-5.698-23.468-19.631-35.505-15.829c-22.9,7.238,8.077,29.178,15.714,33.798c18.975,11.48,35.836,24.23,51.332,40.169
	c13.823,14.218,26.954,29.015,41.239,42.785c13.361,12.878,26.566,26.013,34.265,43.208c7.703,17.203,13.917,35.703,26.115,50.401
	c12.816,15.443,30.982,25.902,49.936,31.976c16.335,5.234,35.235,7.476,48.949,18.839c17.431,14.442-17.244,19.2-25.552,20.794
	c-11.345,2.177-22.634,5.473-34.279,5.393c-4.968-0.034-8.641-2.597-12.419-5.508c-4.396-3.387-9.074-6.232-14.132-8.533
	c-7.45-3.389-15.393-5.629-23.443-7.043c-23.814-4.183-48.02-1.096-71.812-4.648c-7.144-1.067-13.254-5.235-19.202-9.049
	c-16.854-10.805-35.488-18.206-54.31-24.8c-5.928-2.077-11.878-4.092-17.791-6.213c-7.91-2.838-18.603-6.681-24.216,2.39
	c-5.061,8.179,0.291,14.978,7.368,18.871c18.696,10.284,37.65,19.957,56.626,29.704c5.549,2.85,11.104,5.691,16.758,8.33
	c10.064,4.698,20.529,8.468,30.53,13.32c9.085,4.407,17.297,9.818,25.42,15.774c7.354,5.393,14.809,10.994,23.417,14.243
	c19.935,7.522,40.265-1.81,60.043-5.154c16.898-2.857,34.087-4.717,50.77-8.773c6.694-1.628,21.924-6.379,25.843,2.848
	c4.551,10.727-15.579,14.591-22.01,16.998c-43.638,16.333-83.893,42.493-98.173,88.936c-4.765,15.497-6.152,32.109-11.119,47.437
	c-4.046,12.485-14.187,21.912-21.78,32.258c-32.122,43.767-24.11,100.367-13.026,150.085c4.478,20.085,7.606,40.338,11.68,60.489
	c2.237,11.065,7.901,41.327,24.658,39.534c21.048-2.254,4.099-32.405,1.568-43.119c-9.505-40.227-12.252-83.309-2.954-123.831
	c5.571-24.278,24.071-43.263,29.168-67.694c4.07-19.506-1.826-41.036,5.462-59.875c12.101-31.278,56.289-30.548,68.557-63.036
	c3.499-9.266,18.43-25,20.95-22.348c2.521,2.652-1.041,42.123-0.649,46.863c3.598,43.579,11.582,91.859,41.055,126.114
	c32.31,37.552,83.958,26.675,113.808-7.195c9.286-10.537,17.868-22.874,24.53-35.247c11.007-20.444,15.589-44.745,18.642-67.557
	c1.208-9.033,0.214-24.118,0.614-33.31c0.667-15.333,4.431-14.458,9.667-7.667c11.836,15.352,38.095,49.08,49.988,64.339
	c10.132,12.999,17.352,29.216,18.632,45.763c1.296,16.763-4.823,32.77-6.07,49.326c-1.853,24.605,8.421,47.841,13.121,71.446
	c4.452,22.357,1.036,45.875-5.999,67.376c-3.39,10.359-8.067,20.309-13.756,29.603c-3.657,5.974-10.794,13.396-9.467,21.023
	c1.324,7.613,10.217,11.365,17.19,9.306c12.071-3.566,16.924-19.682,22.453-29.482c6.184-10.962,11.139-22.611,15.018-34.578
	c4.299-13.264,5.221-27.559,10.082-40.602c2.85-7.648,7.745-14.371,10.271-22.157c3.598-11.092,4.815-22.857,4.467-34.482
	c-0.841-28.092-13.532-53.117-23.1-78.905c-2.326-6.269-2.617-13.384-3.722-19.951c-1.288-7.651-2.409-15.332-3.216-23.049
	c-2.532-24.211-7.814-48.941-21.366-69.537c-16.563-25.172-39.879-34.248-66.113-46.339c-12.942-5.965-26.663-11.672-26.663-22.268
	s47.298-10.088,68.342,0.528c12.753,6.433,24.972,14.327,38.795,18.342c14.498,4.211,30.019,7.411,45.173,6.965
	c18.158-0.535,32.182-12.676,49.499-16.673c19.033-4.393,37.836-8.486,56.523-14.348c11.379-3.569,24.414-7.364,33.875-14.83
	C1026.108,577.696,1021.371,560.71,1006.598,559.915z M701.668,695.468c-1.711,5.088-3.701,10.293-6.079,15.34
	c-5.013,10.636-11.755,20.575-21.262,27.252c-25.81,18.128-70.492,16.927-93.747-5.093c-14.571-13.797-25.604-37.863-24.055-58.15
	c1.069-13.996,11.206-22.698,24.882-23.846c13.288-1.116,25.915,3.56,38.905,5.364c12.75,1.771,25.729,1.471,38.48-0.13
	c10.427-1.31,22.325-4.319,32.589-0.765c5.752,1.991,11.677,11.263,13.053,16.815C706.341,679.936,704.121,688.176,701.668,695.468z
	"/>
</svg>
