<?xml version="1.0" encoding="utf-8"?>
<!-- Generator: Adobe Illustrator 17.0.0, SVG Export Plug-In . SVG Version: 6.00 Build 0)  -->
<!DOCTYPE svg PUBLIC "-//W3C//DTD SVG 1.1//EN" "http://www.w3.org/Graphics/SVG/1.1/DTD/svg11.dtd">
<svg version="1.1" id="Layer_1" xmlns="http://www.w3.org/2000/svg" xmlns:xlink="http://www.w3.org/1999/xlink" x="0px" y="0px"
	 width="1264.719px" height="1095.279px" viewBox="0 0 1264.719 1095.279" enable-background="new 0 0 1264.719 1095.279"
	 xml:space="preserve">
<g>
	<path fill="#63A3D8" d="M409.265,281.277c18.031-1.5,36.146-2.792,54.244-1.866c13.255,0.678,26.954,2.039,39.259,7.327
		c12.624,5.426,20.923,15.521,28.495,26.607c14.813,21.686,42.062,25.917,66.448,27.527c8.065,0.533,16.135,0.564,24.21,0.808
		c21.559,0.652,43.701,2.414,65.099-1.218c10.749-1.824,21.336-6.928,29.064-14.685c8.725-8.757,13.223-21.326,23.351-28.758
		c10.521-7.721,24.236-8.616,36.441-11.942c21.434-5.841,43.609-4.641,65.446-2.44c7.833,0.789,16.803,2.055,23.905-2.307
		c6.494-3.989,6.976-14.256,1.851-19.364c-5.453-5.435-15.215-4.453-22.24-5.306c-13.07-1.588-26.217-2.775-39.395-2.562
		c-9.508,0.154-19.052,1.148-28.329,3.253c-9.141,2.074-17.976,5.371-26.939,8.076c-5.152,1.555-10.229,2.905-15.198,4.743
		c1.429-0.529,0.022-16.686-0.126-18.517c-0.536-6.653-1.695-13.26-3.432-19.704c-3.277-12.16-8.78-23.442-16.819-33.169
		c-8.548-10.343-18.999-18.878-29.368-27.31c-6.241-5.076-6.55-13.103-6.528-20.518c0.03-10.009,0.656-18.055-2.06-27.753
		c-1.343-4.796-3.105-9.938-4.381-14.754c-2.998-11.32-5.748-25.576-19.448-28.362c-8.1-1.647-15.417,5.928-15.435,13.661
		c-0.028,12.19,13.933,28.765-0.57,38.214c-15.862,10.334-32.243-4.74-29.909-21.449c0.933-6.68,5.689-13.508,4.356-20.39
		c-0.757-3.906-6.978-8.678-10.616-9.515c-4.224-0.971-8.62,0.702-11.948,3.272c-6.684,5.16-10.291,14.618-12.381,22.515
		c-2.7,10.204-1.711,21.478-0.156,31.802c1.194,7.925,3.867,16.209-2.164,22.868c-8.1,8.944-20.354,13.609-28.582,22.745
		c-15.339,17.033-23.143,39.022-25.423,61.574c-0.7,6.92-0.736,13.974-0.339,20.915c-0.1-1.742-12.951-5.464-14.754-6.051
		c-4.936-1.608-9.972-2.851-15.062-3.856c-14.405-2.843-29.351-4.022-44.009-3.452c-7.483,0.291-14.958,0.752-22.441,1.05
		c-6.158,0.245-13.254-0.084-19.036,2.396c-4.443,1.906-8.582,7.32-8.582,12.395C395.765,274.674,401.921,281.887,409.265,281.277z
		 M649.067,235.434c0.63-13.743,3.822-49.167,26.097-39.855c6.967,2.912,14.255,10.192,18.368,16.411
		c7.792,11.78,12.703,22.842,12.523,36.965c-0.121,9.529-2.144,24.218-8.087,32.098c-2.945,3.905-8.224,7.817-13.008,9.109
		c-6.4,1.729-17.523,0.797-23.22-2.832c-9.457-6.025-12.827-16.74-13.37-27.405c-0.309-6.064-0.245-12.388,0.317-18.436
		C648.857,239.648,648.967,237.606,649.067,235.434z M549.255,248.13c0.403-10.297,2.072-20.675,5.429-30.434
		c2.02-5.871,3.778-9.685,6.705-14.154c10.65-16.259,29.634-10.042,30.453-9.334c15.901,13.758,11.864,41.376,9.926,59.682
		c-1.193,11.271-6.125,22.784-16.288,28.661c-6.921,4.002-18.256,7.743-26.011,4.107c-4.042-1.895-7.919-7.063-8.989-11.396
		C548.338,266.588,548.908,256.978,549.255,248.13z"/>
	<path fill="#63A3D8" d="M652.482,764.833c0-0.024,0.001-0.049,0.001-0.073c-0.005-0.09-0.013-0.178-0.018-0.268
		c-0.109-2.031-0.271-4.033-0.501-5.99c-0.027-0.228-0.058-0.452-0.086-0.679c-0.095-0.749-0.2-1.49-0.316-2.223
		c-0.041-0.259-0.081-0.519-0.125-0.776c-0.159-0.93-0.33-1.851-0.528-2.751c-1.236-5.618-2.636-10.096-7.131-13.989
		c-1.364-1.181-2.713-1.952-4.1-2.38c-2.607-0.806-4.806-1.3-6.3-1.422c-5.436-0.445-13.502-0.755-17.001,0.065
		c-0.374,0.088-0.742,0.183-1.109,0.282c-0.004,0.003-0.008,0.006-0.012,0.009c-3.739,1.013-7.114,2.684-10.066,6.323
		c-0.581,1.148-0.99,2.537-1.417,4.635c-0.047,0.229-0.398,3.261-0.326,2.044c-0.082,1.092-0.156,2.184-0.164,3.28
		c-0.006,0.855,0.023,1.708,0.041,2.561c-0.925,4.702-0.825,9.754-0.754,14.422c0.113,7.43,0.029,14.867,0.029,22.297
		c0,5.584-0.074,11.176-0.138,16.77c0.328,5.031,0.635,10.063,0.845,15.1c0.091,2.194,0.159,4.392,0.233,6.589
		c-0.035,0.45-0.047,0.905-0.023,1.366c0.055,1.065,0.071,2.129,0.074,3.193c-0.043,0.424-0.075,0.855-0.074,1.307
		c0,1.043,0.005,2.084,0.012,3.126c-0.104,3.96-0.242,7.917,0.238,11.874c0.271,2.239,0.659,4.449,1.117,6.641
		c-0.042,0.173-0.077,0.348-0.12,0.521c0.145,0.972,0.295,1.943,0.449,2.911c-0.555-3.496,0.269,2.362,0.367,3.171
		c0.242,1.997,0.509,4.075,0.854,6.163c0.141,1.693,0.351,3.376,0.592,5.103c0.26,1.872,0.906,3.643,1.639,5.376
		c0.268,1.289,0.774,2.534,1.559,3.672c3.976,5.766,11.042,11.173,18.52,8.041c6.83-2.861,10.054-7.927,12.685-14.561
		c2.342-5.904,3.936-12.147,4.989-18.475c-0.059-0.284-0.106-0.569-0.146-0.853c0.269-1.412,0.417-2.857,0.469-4.333
		c0.406-1.181,0.658-2.434,0.813-3.693c0.001-0.002,0.001-0.003,0.002-0.005c0.001-0.013,0.002-0.027,0.003-0.04
		c0.1-0.823,0.168-1.644,0.197-2.448c0.105-1.402,0.196-2.801,0.261-4.193c0.032-0.691-0.02-1.367-0.116-2.03
		c0.316-2.138,0.578-4.279,0.608-6.436c0.013-0.096,0.03-0.191,0.042-0.288c0.041-0.112,0.074-0.231,0.119-0.341
		c0.165-1.131,0.328-2.262,0.472-3.396c1.75-13.756,2.444-27.574,3.041-41.42c0.078-1.816,0.158-3.673,0.232-5.549
		c0.068-3.937,0.144-7.873,0.245-11.811C652.646,769.098,652.589,766.953,652.482,764.833z"/>
	<path fill="#63A3D8" d="M1032.895,636.678c-6.373-11.173-26.623-19.097-34.296-23.706c-20.095-12.071-36.313-29.386-54.698-43.724
		c-19.904-15.523-41.436-28.764-62.805-42.137c-8.893-5.565-17.774-11.152-26.518-16.951c-13.358-8.858-23.294-18.441-40.368-18.146
		c-27.584,0.478-55.523,4.923-83.028,7.252c-9.693,0.821-20.291,4.947-29.854,1.39c-6.599-2.455-13.396-9.615-11.864-17.068
		c2.008-9.773,14.225-11.793,22.334-13.295c19.779-3.663,39.694-6.54,59.646-9.073c17.989-2.284,37.265-0.644,54.831-5.477
		c14.486-3.986,23.746-24.943,31.337-36.451c13.681-20.742,28.333-40.816,42.769-61.033c13.73-19.228,25.922-39.454,39.555-58.713
		c7.403-10.458,13.817-21.542,20.545-32.434c4.639-7.509,13.572-16.57,12.27-26.132c-1.251-9.188-13.312-14.088-21.187-9.22
		c-15.438,9.544-22.932,27.324-31.346,42.58c-7.907,14.336-20.382,24.882-31.171,36.911c-8.444,9.415-13.998,20.672-20.018,31.67
		c-11.643,21.273-26.244,41.023-39.098,61.587c-7.462,11.937-16.341,22.255-30.71,24.928c-17.96,3.34-36.977,3.275-55.153,5.276
		c-18.288,2.013-42.711,11.329-59.184-1.025c-7.706-5.78-9.578-16.039-11.522-24.868c-2.26-10.262-5.555-19.23-11.303-28.142
		c-10.509-16.293-33.952-19.688-51.245-15.617c-13.691,3.223-23.567,12.824-30.553,24.623
		c-10.757,18.167-12.659,46.223-39.601,46.343c-6.814,0.03-13.628,0.476-20.438,0.441c-12.705-0.066-25.334-1.658-37.9-3.401
		c-5.749-0.798-11.495-1.777-17.265-2.403c-5.34-0.579-11.049-0.183-16.086-2.334c-4.96-2.119-9.014-6.639-12.247-10.824
		c-8.287-10.728-15.388-22.367-23.485-33.252c-8.547-11.49-17.429-22.725-26.008-34.19c-17.783-23.768-33.974-49.069-50.621-73.749
		c-4.859-7.203-9.717-14.406-14.577-21.609c-6.426-9.523-18.25-35.983-33.264-21.718c-8.895,8.451-2.336,19.872,1.172,29.181
		c4.519,11.99,7.968,23.253,15.568,33.795c7.202,9.988,15.96,18.689,24.313,27.696c22.243,23.986,39.805,51.062,57.911,78.206
		c5.329,7.989,10.655,15.981,16.03,23.939c5.99,8.87,13.248,26.422,24.913,28.834c2.482,0.513,5.152,0.569,7.669,0.851
		c27.546,3.076,55.081,6.251,82.622,9.377c7.313,0.83,14.631,1.857,21.974,2.375c5.903,0.416,13.014,0.472,16.098,6.461
		c2.887,5.609,2.185,14.552-0.742,19.916c-7.404,13.566-28.665,6.42-40.355,4.917c-14.461-1.86-28.806-4.541-43.285-6.266
		c-13.962-1.663-28.911-5.152-42.663-0.474c-13.195,4.489-23.789,15.078-34.859,23.152c-23.645,17.245-49.373,30.839-73.991,46.545
		c-7.314,4.666-14.492,9.556-21.391,14.819c-12.307,9.39-22.805,20.834-34.33,31.115c-11.644,10.387-24.989,18.257-37.488,27.504
		c-3.877,2.868-8.675,6.554-9.332,11.709c-2.518,19.772,21.714,16.114,32.56,11.556c8.701-3.656,14.801-10.866,21.292-17.457
		c7.233-7.344,14.752-14.419,23.217-20.34c31.168-21.805,62.408-43.506,93.164-65.89c8.749-6.368,17.443-12.815,25.916-19.547
		c5.945-4.723,11.438-9.973,18.755-12.513c7.003-2.432,14.514-2.106,21.745-1.044c17.513,2.571,35.264,3.089,52.902,4.317
		c7.786,0.542,15.566,1.179,23.323,2.051c6.391,0.719,13.089,1.947,18.538,5.579c6.398,4.265,7.585,11.706,8.325,18.797
		c1.418,13.601,2.375,27.288,5.301,40.675c1.803,8.248,6.206,15.976,5.464,24.705c-0.902,10.619-10.947,13.346-19.84,15.354
		c-7.855,1.774-15.768,3.304-23.692,4.737c-21.613,3.907-43.299,7.314-64.847,11.586c-11.546,2.289-23.054,5.24-31.789,13.616
		c-6.874,6.591-11.784,15.481-17.429,23.129c-6.714,9.096-13.6,18.065-20.656,26.898c-15.128,18.937-32.624,35.878-46.963,55.461
		c-8.93,12.195-15.428,25.992-24.606,38.012c-9.979,13.069-19.969,26.129-29.953,39.194c-6.563,8.588-13.125,17.176-19.688,25.764
		c-5.181,6.78-2.945,16.731,4.506,20.808c8.646,4.731,19.909-0.997,26.719-6.219c21.519-16.5,28.112-45.812,43.945-66.862
		c12.912-17.167,25.983-34.223,39.047-51.276c20.097-26.072,41.283-51.702,60.23-78.618c4.535-6.442,10.737-9.46,18.334-10.778
		c29.834-5.175,59.404-11.719,89.094-17.638c7.826-1.56,15.738-2.875,23.404-5.146c6.554-1.942,14.945,1.971,16.273,8.789
		c1.242,6.378-3.264,12.527-7.922,16.416c-27.777,23.194-43.856,58.8-48.874,94.177c-2.79,19.671-3.442,39.728-1.65,59.522
		c1.403,15.498,5.407,30.738,8.874,45.874c3.387,14.787,8.978,28.917,16.561,42.042c8.206,14.203,18.618,28.131,33.829,35.22
		c8.776,4.09,21.912,5.171,31.488,5.666c10.312,0.532,20.62-0.951,30.187-4.908c20.243-8.372,35.02-25.997,45.321-44.797
		c19.982-36.47,27.682-78.93,24.118-120.228c-2.352-27.252-8.939-54.485-22.115-78.612c-5.942-10.881-13.02-21.543-22.029-30.136
		c-7.128-6.798-23.193-8.115-22.437-20.84c0.739-12.453,12.115-12.213,21.405-10.246c33.233,7.034,66.362,15.305,99.465,23.006
		c17.741,4.128,33.261,6.095,42.978,23.169c10.734,18.862,26.822,33.203,39.034,50.976c7.316,10.647,14.043,21.796,21.976,32.003
		c7.902,10.169,17.212,19.142,25.189,29.25c11.893,15.07,16.532,34.481,28.593,49.456c9.097,11.295,18.531,24.08,32.236,30.085
		c7.875,3.45,17.392,1.3,19.642-7.592c5.304-20.961-23.329-40.907-34.782-55.127c-16.51-20.499-30.203-43.08-44.53-65.106
		c-13.396-20.594-27.679-40.528-44.234-58.724c-7.983-8.775-16.538-17.051-24.023-26.27c-6.012-7.404-10.41-17.366-18.863-22.355
		c-10.376-6.123-22.949-6.378-34.54-8.264c-13.416-2.182-26.615-5.472-39.914-8.243c-11.578-2.412-23.382-3.407-35.029-5.402
		c-7.878-1.349-16.758-2.168-23.494-6.918c-9.688-6.833-4.521-16.739-2.08-25.955c4.441-16.765,2.155-34.588,6.399-51.443
		c2.91-11.556,16.461-12.593,26.083-15.136c15.465-4.087,30.88-9.017,46.921-10.222c17.759-1.334,35.489-7.104,52.895-0.763
		c16.629,6.058,30.009,17.799,44.63,27.354c16.527,10.801,31.656,23.53,47.552,35.205c12.866,9.45,27.414,16.375,40.162,25.974
		C965.29,623.8,976.9,639.27,992.592,649.85c7.595,5.12,17.983,9.633,27.323,8.763
		C1030.475,657.628,1038.492,646.491,1032.895,636.678z M676.865,746.726c0.771,7.148,0.858,14.496,0.647,21.852
		c0.045,2.244,0.056,4.48,0.037,6.694c-0.17,19.977-1.575,39.95-4.411,59.724c0.156,0.681,0.249,1.384,0.312,2.096
		c-0.225,1.979-0.463,3.956-0.685,5.935c-0.065,0.581-0.03,1.18,0.048,1.782c-0.067,0.486-0.131,0.973-0.194,1.459
		c-0.078,4.227-0.031,8.461,0.697,12.462c3.11,5.849,7.557,11.178,9.118,17.809c1.427,6.062,0.181,11.521-2.299,16.591
		c-2.782,7.433-6.413,14.334-12.26,20.183c-7.96,7.963-20.017,16.032-31.443,17.343c-19.218,2.206-40.717-2.242-55.02-14.854
		c-6.618-8.792-9.953-19.794-12.72-30.482c0.493-7.587,3.474-14.044,6.948-20.823c1.46-2.848,2.58-5.805,3.51-8.826
		c-0.195-15.806-0.995-31.612-1.85-47.393c-0.431-7.95-0.881-15.899-1.287-23.85c-0.548-10.726-0.746-21.521,0.524-32.206
		c0.979-8.238,2.951-15.976,6.761-22.66c1.335-2.606,2.963-5.106,4.948-7.469c16.503-19.651,46.042-21.082,67.522-9.169
		C668.681,720.087,675.316,732.364,676.865,746.726z M665.648,557.812c-0.883,10.965-0.958,20.867-5.716,29.298
		c-7.023,12.443-22.557,3.39-22.9-6.659c-0.267-7.841,0.376-16.445,1.246-25.068c1.071-10.62,6.877-40.868-6.876-46.551
		c-5.025-2.076-15.311,2.292-16.866,7.291c-5.438,17.487,0.562,57.321-5.338,68.887c-3.777,7.404-16.823,7.476-20.215-0.712
		c-4.219-10.187-2.247-30.69-1.719-43.52c0.601-14.594,0.757-28.344,3.52-42.842c2.656-13.94,6.966-27.631,11.513-41.053
		c3.725-10.996,1.878-23.685,8.459-33.681c6.677-10.142,19.752-14.798,26.815-2.184c4.972,8.879,4.31,19.99,7.366,29.565
		c3.41,10.683,8.982,20.533,12.337,31.238c4.809,15.345,7.135,31.46,7.757,47.511C665.354,537.686,666.453,547.817,665.648,557.812z
		"/>
</g>
</svg>
