<?xml version="1.0" encoding="utf-8"?>
<!-- Generator: Adobe Illustrator 17.0.0, SVG Export Plug-In . SVG Version: 6.00 Build 0)  -->
<!DOCTYPE svg PUBLIC "-//W3C//DTD SVG 1.1//EN" "http://www.w3.org/Graphics/SVG/1.1/DTD/svg11.dtd">
<svg version="1.1" id="Layer_1" xmlns="http://www.w3.org/2000/svg" xmlns:xlink="http://www.w3.org/1999/xlink" x="0px" y="0px"
	 width="1264.719px" height="1095.279px" viewBox="0 0 1264.719 1095.279" enable-background="new 0 0 1264.719 1095.279"
	 xml:space="preserve">
<path fill="#FF6D00" d="M1014.259,397.929c-2.341-0.721-4.709-1.177-6.856-1.336c-14.62-1.083-30.175,0.647-45.114-0.644
	c-15.378-1.329-30.346-6.632-45.367-9.96c-11.366-2.518-22.88-4.21-34.283-6.536c-11.351-2.315-22.659-4.839-33.985-7.276
	c-10.765-2.316-21.359-5.082-32.439-3.808c-12.676,1.458-23.906,7.336-36.144,10.317c-9.629,2.345-22.128,9.818-28.592,7.704
	s-17.499-36.705-22.684-46.223c-7.325-13.445-15.564-26.47-21.922-40.417c-8.139-17.855,7.986-23.08,21.763-28.791
	c15.37-6.372,31.822-11.489,43.647-23.869c22.46-23.514,34.927-54.449,56.982-78.314c14.253-15.422,27.659-30.458,42.316-45.475
	c7.223-7.4,29.585-27.84,21.741-40.083c-10.183-15.895-49.281,24.387-56.112,31.46c-37.375,38.705-56.655,95.128-102.604,125.349
	c-12.208,8.029-41.802,30.351-56.921,22.535c-7.944-4.107-14.402-11.753-14.007-21.347c0.464-11.248,9.744-20.818,11.28-32.056
	c1.9-13.904,0.16-27.957-1.903-41.737c-2.359-15.753,2.322-25.771,15.604-33.547c11.409-6.679,23.869-11.185,35.844-16.695
	c11.799-5.429,22.517-12.718,34.12-18.514c9.833-4.912,32.089-7.484,36.336-19.447c3.132-8.822-5.375-19.097-14.85-16.164
	c-28.42,8.797-51.39,25.76-77.477,39.221c-17.274,8.913-34.6,17.088-49.337,30.012c-0.593-10.47,3.453-24.141-0.208-34.062
	c-2.934-7.952-13.591-13.136-20.586-6.795c-8.721,7.906-3.139,27.728-5.142,37.954c1.35-6.893-24.728-20.045-29.8-23.14
	c-12.435-7.59-25.601-13.906-38.692-20.265c-17.576-8.538-36.072-21.731-55.597-24.848c-15.833-2.528-33.54,13.678-14.278,25.337
	c10.657,6.45,24.788,5.369,36.041,10.74c13.961,6.664,27.589,14.024,41.465,20.861c13.285,6.546,29.815,13.02,38.579,25.829
	c11.446,16.729-8.166,36.059-7.372,53.472c0.666,14.601,8.378,26.816,11.969,40.601c2.875,11.039-2.422,15.227-12.541,18.24
	c-12.52,3.727-23.048-1.517-34.989-5.445c-13.747-4.522-27.722-9.421-39.312-18.349c-18.283-14.083-27.247-34.791-36.616-55.139
	c-8.517-18.495-17.415-37.185-30.941-52.625c-6.477-7.393-49.653-45.798-62.099-31.298c-8.015,9.338,22.764,33.633,28.129,39.559
	c10.052,11.103,19.901,22.357,28.942,34.311c20.391,26.962,29.657,64.365,57.378,85.409c10.875,8.255,23.981,13.098,37.039,16.669
	c8.588,2.348,22.502,3.783,22.784,15.325c0.365,14.921-16.901,24.688-22.389,37.405c-4.46,10.336-8.424,20.874-12.713,31.279
	c-2.356,5.716-5.739,20.083-12.412,22.422c-2.665,0.934-8.301-2.752-10.68-3.798c-10.712-4.709-22.145-7.453-33.136-11.401
	c-11.689-4.198-23.017-9.429-35.089-12.503c-23.085-5.877-46.938-2.742-70.376-1.609c-18.986,0.917-37.973-0.398-56.932-1.294
	c-16.748-0.792-35.27,1.262-51.467-3.706c-10.814-3.317-43.754-22.41-47.732-1.03c-3.492,18.782,35.071,23.729,46.44,26.666
	c29.579,7.64,60.88,3.721,91.066,4.994c21.609,0.912,43.326-2.397,64.869,0.34c21.991,2.794,42.234,12.914,62.874,20.389
	c10.325,3.74,23.158,5.751,32.623,11.38c11.945,7.104,8.279,22.597,9.681,34.145c1.556,12.818,3.084,25.739,2.048,38.659
	c-1.606,20.025-14.261,31.727-24.942,47.525c-8.876,13.128-16.66,18.635-30.703,25.586c-25.111,12.43-49.184,26.826-74.203,39.426
	c-15.133,7.621-39.532,10.224-47.541,27.144c-8.509,17.981,2.354,39.252,7.305,56.828c6.359,22.576,11.331,45.783,13.91,69.107
	c3.21,29.033,14.964,58.008,11.351,87.542c-1.679,13.724-5.652,26.986-8.707,40.432c-1.982,8.724-4.796,21.069,6.847,24.272
	c6.192,1.703,14.063-2.041,15.376-8.73c3.861-19.667,10.631-38.868,11.962-58.981c1.29-19.495-4.188-38.53-7.783-57.512
	c-7.035-37.142-10.028-74.327-21.129-110.696c-2.987-9.785-7.068-21.378,0.962-29.877c7.706-8.156,21.424-9.623,31.37-13.801
	c9.69-4.071,19.459-7.951,29.27-11.72c4.02-1.544,27.49-7.272,28.69-10.742c-2.333,6.741-4.404,12.393-6.251,18.118
	c-9.107,28.239-13.692,57.037-10.317,86.754c3.255,28.659,6.514,57.318,9.955,85.955c3.542,29.475,7.319,58.924,15.222,87.645
	c6.494,23.597,15.404,46.142,31.862,64.7c9.667,10.9,19.812,21.568,30.888,30.991c23.645,20.115,48.143,39.223,72.077,59.004
	c11.832,9.78,25.084,12.151,39.619,9.01c15.642-3.379,27.808-12.72,39.485-23.096c7.193-6.391,14.908-12.275,22.832-17.744
	c8.085-5.58,16.757-10.303,25.094-15.525c25.752-16.13,43.545-38.665,52.765-67.557c7.519-23.563,14.747-47.251,21.053-71.16
	c9.938-37.68,16.356-75.998,15.625-115.124c-0.637-34.039-5.965-67.542-13.481-100.704c-2.899-12.793-7.316-26.028-8.742-39.078
	c0.654,5.439,45.959,13.742,52.666,15.067c12.611,2.49,25.047,4.614,35.25,13c14.031,11.531,10.852,28.155,7.862,43.76
	c-4.595,23.984-6.924,50.185-10.196,74.324c-3.21,23.679-7.44,44.988-6.082,69.168c0.792,14.099,6.642,29.968,11.563,43.086
	c4.208,11.219,13.518,37.498,27.793,39.886c12.508,2.092,11.757-17.517,8.536-25.258c-5.526-13.284-12.395-25.883-16.309-39.83
	c-5.527-19.698-2.884-39.154-0.499-59.129c4.494-37.637,8.876-75.302,12.782-113.005c1.447-13.963,8.517-39.284-2.916-50.646
	c-9.292-9.233-25.891-10.84-37.485-15.977c-31.102-13.779-62.982-25.538-94.787-37.609c-3.372-1.28-5.466-3.225-7.401-6.274
	c-7.527-11.859-15.178-23.662-23.342-35.087c-4.971-6.957-9.056-14.176-9.203-22.729c-0.266-15.527-6.559-42.841,4.93-55.807
	c7.885-8.897,20.91-10.475,31.67-13.729c6.22-1.881,12.237-4.346,18.314-6.642c11.493-4.343,21.233-7.754,33.789-6.341
	c17.555,1.975,35.122,8.233,52.374,12.134c19.238,4.351,38.413,9.01,57.787,12.735c11.983,2.304,24.11,2.508,36.28,2.136
	c10.754-0.328,27.699,5.884,36.287-2.819C1033.793,408.952,1024.268,401.012,1014.259,397.929z M564.13,346.699
	c6.144-10.339,16.954-15.362,23.944-24.783c8.242-11.108,8.738-28.403,21.883-35.672c10.145-5.61,24.266-2.754,34.951-0.446
	c15.871,3.429,27.886,13.146,34.452,27.978c2.522,5.698,3.894,10.788,8.196,15.531c11.985,13.215,15.381,26.496,18.743,43.895
	c1.963,10.161,4.97,20.893,2.682,31.243c-3.022,13.671-23.987,13.498-34.807,14.418c-21.943,1.866-43.805,1.031-65.742-0.438
	c-15.571-1.043-37.414,1.93-50.013-9.297c-11.836-10.547-5.402-32.691-1.507-45.584C558.672,357.722,561.002,351.961,564.13,346.699
	z M618.309,505.362c-1.578-5.013-3.701-9.665-6.692-13.984c-5.025-7.257-13.909-21.066-9.371-30.189
	c4.365-8.775,18.398-6.215,26.35-7.003c12.073-1.196,27.869-3.895,37.918,4.883c6.724,5.874,5.536,14.016,0.043,19.808
	c-6.807,7.177-11.127,14.936-14.277,24.341c-3.91,11.673-2.305,33.969-21.064,31.742c-13.684-1.625-9.986-20.27-12.875-29.499
	C618.33,505.429,618.32,505.396,618.309,505.362z M503.344,617.327c1.185-13.203,8.9-29.887,10.196-37.341
	c1.391-7.997,10.844-15.309,18.865-9.671c12.051,8.47,19.823,19.181,16.702,34.297c-2.787,13.497-12.667,30.256-28.362,31.164
	C505.792,636.641,502.372,628.155,503.344,617.327z M480.378,689.201c4.355-13.795,22.129-31.018,34.054-13.897
	c6.148,8.827,5.782,18.604,3.831,28.651c-0.395,2.033-0.822,4.059-1.234,6.088c-0.263,1.294-0.999,6.992-0.431,1.736
	c-1.337,12.36-13.198,14.059-22.866,9.556C478.991,714.468,476.68,700.915,480.378,689.201z M486.786,762.225
	c10.105-15.291,27.691-1.159,31.241,11.117c4.203,14.533-3.128,41.431-23.441,33.529
	C479.099,800.848,478.795,774.324,486.786,762.225z M529.867,898.087c-3.278,2.429-7.28,3.588-11.568,2.473
	c-12.91-3.356-18.424-23.36-18.582-34.899c-0.137-10.042,9.468-26.786,22.023-18.011c10.47,7.318,17.717,22.828,16.418,35.615
	C537.589,888.862,534.43,894.706,529.867,898.087z M718.016,840.052c-11.585,38.049-28.7,73.285-55.357,103.197
	c-6.357,7.133-13.987,13.388-21.866,18.841c-9.878,6.837-15.884,6.023-25.411-1.483c-11.396-8.98-19.95-20.872-27.382-33.198
	c-21.231-35.213-33.4-73.676-39.751-114.04c-2.552-16.22-3.774-32.649-4.937-43.046c1.519-61.101,18.496-110.556,53.261-153.543
	c7.344-9.081,14.789-18.226,23.234-26.24c11.227-10.654,22.921-10.59,33.552,0.679c7.939,8.414,15.156,17.992,20.633,28.162
	c20.64,38.329,36.434,78.64,47.476,120.835C730.294,773.944,728.04,807.13,718.016,840.052z M764.849,887.024
	c-3.354,11.555-10.519,21.818-21.03,21.461c-26.036-0.885-10.508-40.058-1.851-51.678c7.599-10.2,19.058-5.59,23.277,4.535
	C767.783,867.436,767.569,877.655,764.849,887.024z M789.356,767.726c9.253,17.384-3.667,53.517-24.854,48.467
	c-16.328-3.892-15.455-26.115-12.262-38.563c3.113-12.14,18.003-23.379,30.268-16.924
	C785.499,762.281,787.758,764.724,789.356,767.726z M785.883,696.28c0.363,3.057,0.387,6.06,0.076,8.798
	c-1.625,14.331-9.172,22.787-23.857,23.865c-14.94,1.096-17.005-21.267-17.599-31.716c-0.655-11.521,5.834-23.348,17.855-25.107
	C776.708,670.02,784.379,683.63,785.883,696.28z M762.982,595.001c7.803,10.867,10.413,28.79,6.808,38.842
	c-4.339,12.095-28.179,21.008-37.263,8.459c-7.864-10.865-11.56-28.122-6.725-40.925c2.499-6.618,8.538-12.027,15.185-14.361
	C750.391,583.714,757.822,587.815,762.982,595.001z"/>
</svg>
