<?xml version="1.0" encoding="utf-8"?>
<!-- Generator: Adobe Illustrator 17.0.0, SVG Export Plug-In . SVG Version: 6.00 Build 0)  -->
<!DOCTYPE svg PUBLIC "-//W3C//DTD SVG 1.1//EN" "http://www.w3.org/Graphics/SVG/1.1/DTD/svg11.dtd">
<svg version="1.1" id="Layer_1" xmlns="http://www.w3.org/2000/svg" xmlns:xlink="http://www.w3.org/1999/xlink" x="0px" y="0px"
	 width="1264.719px" height="1095.279px" viewBox="0 0 1264.719 1095.279" enable-background="new 0 0 1264.719 1095.279"
	 xml:space="preserve">
<path fill="#3E5FFF" d="M1044.252,291.068c-2.146-11.229-10.485-17.153-20.762-20.325c-5.599-1.728-11.535-2.334-17.267-3.67
	c-8.845-2.061-17.634-4.221-26.85-2.623c-6.118,1.061-12.29,1.806-18.42,2.798c-28.454,4.606-56.621,10.45-83.967,19.758
	c-21.88,7.448-42.791,16.831-61.633,30.476c-13.944,10.098-23.812,23.645-33.842,37.372c-17.364,23.763-35.158,47.554-52.757,70.924
	c-7.078,9.399-14.682,18.388-21.725,27.813c-3.214,4.301-6.544,8.62-9.056,13.381c-4.297,8.144-7.089,17.179-15.583,22.033
	c-13.99,7.996-12.549-11.156-10.667-19.144c1.446-6.138,3.979-11.934,6.858-17.521c10.639-20.64,23.543-40.16,35.585-59.99
	c3.347-5.512,5.981-11.575,6.319-18.096c0.239-4.606-0.991-8.778,3.987-11.15c13.047-6.212,17.878-28.914,2.194-38.697
	c-7.326-4.57-15.081-5.094-23.195-2.447c-16.426,5.36-22.796,27.912-9.634,38.26c0.509,0.4,1.23,1.098,1.169,1.57
	c-0.687,5.399,0.827,10.947-2.202,16.209c-11.229,19.513-21.841,39.431-33.37,58.765c-3.254,5.458-6.829,11.013-7.84,17.406
	c-1.146,7.241-0.313,20.763-8.403,25.371c-3.773,2.148-9.234,2.668-10.831,2.777c-1.596-0.109-7.058-0.629-10.831-2.777
	c-8.091-4.608-7.258-18.13-8.403-25.371c-1.011-6.393-4.586-11.948-7.84-17.406c-11.528-19.334-22.141-39.251-33.37-58.765
	c-3.028-5.262-1.514-10.81-2.202-16.209c-0.06-0.472,0.66-1.17,1.169-1.57c13.161-10.348,6.792-32.9-9.634-38.26
	c-8.114-2.648-15.87-2.123-23.195,2.447c-15.684,9.783-10.853,32.485,2.194,38.697c4.977,2.371,3.748,6.544,3.987,11.15
	c0.338,6.522,2.972,12.584,6.319,18.096c12.042,19.83,24.946,39.35,35.585,59.99c2.879,5.586,5.413,11.383,6.858,17.521
	c1.882,7.988,3.323,27.14-10.667,19.144c-8.493-4.854-11.286-13.889-15.583-22.033c-2.512-4.761-5.842-9.079-9.056-13.381
	c-7.043-9.425-14.648-18.414-21.725-27.813c-17.599-23.37-35.393-47.162-52.757-70.924c-10.03-13.726-19.897-27.273-33.842-37.372
	c-18.842-13.645-39.753-23.029-61.633-30.476c-27.345-9.308-55.513-15.152-83.967-19.758c-6.13-0.992-12.302-1.738-18.42-2.798
	c-9.216-1.598-18.005,0.562-26.85,2.623c-5.732,1.335-11.668,1.941-17.267,3.67c-10.277,3.172-18.617,9.096-20.762,20.325
	c-0.943,4.934-0.304,10.391,0.64,15.418c1.859,9.901,6.32,18.916,11.428,27.509c12.243,20.597,17.737,43.159,20.887,66.659
	c5.062,37.76,10.64,75.453,16.337,113.123c1.558,10.303,4.712,20.211,9.723,29.575c4.048,7.565,6.539,15.959,10.535,23.557
	c3.234,6.15,6.865,12.51,11.793,17.243c6.186,5.942,13.525,10.627,23.153,10.241c8.473-0.34,16.995,0.529,25.495,0.89
	c0.969,0.041,1.93,0.25,3.437,0.454c-4.347,6.6-8.43,12.819-12.534,19.025c-8.51,12.869-17.155,25.651-25.44,38.663
	c-1.591,2.498-2.383,5.861-2.514,8.87c-0.53,12.088,3.503,23.445,6.101,35.036c0.423,1.885,0.421,4.076-0.096,5.927
	c-3.017,10.803-6.245,21.548-9.403,32.312c-2.128,7.255-0.101,12.217,7.1,14.488c8.669,2.733,15.436,7.646,21.032,14.648
	c2.896,3.623,6.444,6.719,9.428,10.279c0.917,1.093,1.484,3.008,1.288,4.419c-1.232,8.87-2.743,17.701-4.123,26.551
	c-0.604,3.87,0.498,7.199,3.478,9.798c2.138,1.865,4.23,3.815,6.546,5.436c12.037,8.426,20.101,20.521,29.208,31.635
	c0.699,0.853,0.477,2.995-0.043,4.233c-10.834,25.807-21.773,51.57-32.691,77.342c-0.486,1.148-1.087,2.26-1.449,3.445
	c-1.822,5.972-4.132,10.015-12.051,9.838c-8.002-0.18-13.739,6.921-15.504,16.131c-2.057,10.734-0.14,20.817,6.072,29.85
	c4.621,6.72,10.421,12.33,17.859,15.903c7.511,3.608,15.327,2.147,21.664-3.773c7.376-6.89,13.202-18.943,7.78-31.931
	c-1.703-4.078-3.434-8.15-4.946-12.299c-0.415-1.138-0.561-2.802-0.029-3.794c10.68-19.915,22.812-38.916,36.266-57.485
	c1.608,2.153,2.959,4.071,4.42,5.899c6.205,7.761,14.553,9.911,23.302,5.285c3.671-1.94,6.044-1.519,9.372,0.633
	c11.331,7.326,22.918,14.258,34.437,21.29c8.988,5.487,17.928,2.511,21.574-7.542c2.001-5.518,3.152-11.347,4.646-17.046
	c0.977-3.727,1.967-7.456,2.785-11.219c0.386-1.778,1.204-2.385,3.013-2.357c2.485,0.038,4.994-0.119,7.461-0.436
	c7.552-0.97,11.869-5.496,11.954-13.208c0.086-7.813-0.473-15.631-0.568-23.449c-0.024-1.981,0.354-4.073,1.029-5.94
	c17.129-47.406,34.314-94.792,51.543-142.162c0.561-1.542,1.702-2.869,2.538-4.316c0.73-1.263,1.686-2.478,2.07-3.847
	c4.248-15.141,8.41-30.307,12.575-45.472c0.39-1.419,0.651-2.874,0.949-4.316c0.822-3.977,2.931-6.123,6.602-6.696
	c4.029-0.629,9.609,1.314,10.768,4.299c0.785,2.021,0.733,4.436,0.744,6.676c0.048,10.141-1.134,20.086-4.075,29.87
	c-3.989,13.274-7.242,26.717-6.465,40.785c0.429,7.777,2.161,15.162,5.109,22.414c3.621,8.907,14.345,7.831,19.682,7.831
	c5.336,0,16.061,1.076,19.682-7.831c2.948-7.252,4.68-14.637,5.109-22.414c0.776-14.068-2.477-27.511-6.465-40.785
	c-2.94-9.785-4.122-19.729-4.075-29.87c0.011-2.24-0.041-4.656,0.744-6.676c1.16-2.984,6.739-4.928,10.768-4.299
	c3.671,0.573,5.78,2.719,6.602,6.696c0.298,1.443,0.56,2.898,0.949,4.316c4.165,15.165,8.327,30.33,12.575,45.472
	c0.384,1.369,1.34,2.583,2.07,3.847c0.836,1.447,1.977,2.774,2.538,4.316c17.229,47.37,34.414,94.756,51.543,142.162
	c0.675,1.867,1.053,3.96,1.029,5.94c-0.096,7.818-0.654,15.636-0.568,23.449c0.085,7.712,4.402,12.237,11.954,13.208
	c2.467,0.317,4.976,0.474,7.461,0.436c1.809-0.028,2.627,0.579,3.013,2.357c0.818,3.764,1.807,7.492,2.785,11.219
	c1.494,5.699,2.645,11.527,4.646,17.046c3.646,10.054,12.586,13.03,21.574,7.542c11.519-7.033,23.107-13.964,34.437-21.29
	c3.328-2.152,5.702-2.574,9.372-0.633c8.75,4.625,17.098,2.476,23.302-5.285c1.462-1.829,2.812-3.746,4.42-5.899
	c13.454,18.57,25.586,37.571,36.266,57.485c0.532,0.992,0.386,2.656-0.029,3.794c-1.513,4.15-3.244,8.221-4.946,12.299
	c-5.422,12.987,0.405,25.041,7.78,31.931c6.337,5.919,14.154,7.38,21.664,3.773c7.438-3.573,13.238-9.183,17.859-15.903
	c6.212-9.033,8.129-19.115,6.072-29.85c-1.765-9.21-7.503-16.311-15.504-16.131c-7.919,0.178-10.229-3.865-12.051-9.838
	c-0.362-1.185-0.963-2.297-1.449-3.445c-10.919-25.772-21.857-51.535-32.691-77.342c-0.52-1.238-0.742-3.38-0.043-4.233
	c9.108-11.114,17.171-23.209,29.208-31.635c2.316-1.621,4.408-3.572,6.546-5.436c2.98-2.599,4.082-5.928,3.478-9.798
	c-1.38-8.85-2.891-17.681-4.123-26.551c-0.196-1.411,0.371-3.326,1.288-4.419c2.984-3.56,6.532-6.656,9.428-10.279
	c5.597-7.002,12.363-11.915,21.032-14.648c7.201-2.27,9.228-7.233,7.1-14.488c-3.158-10.764-6.386-21.508-9.403-32.312
	c-0.517-1.851-0.518-4.042-0.096-5.927c2.598-11.59,6.631-22.948,6.101-35.036c-0.132-3.009-0.924-6.372-2.515-8.87
	c-8.285-13.012-16.93-25.794-25.44-38.663c-4.104-6.205-8.186-12.424-12.534-19.025c1.507-0.204,2.468-0.413,3.437-0.454
	c8.5-0.361,17.022-1.23,25.495-0.89c9.627,0.386,16.967-4.299,23.153-10.241c4.928-4.734,8.559-11.094,11.793-17.243
	c3.996-7.598,6.486-15.993,10.535-23.557c5.011-9.364,8.165-19.272,9.723-29.575c5.696-37.67,11.275-75.363,16.337-113.123
	c3.15-23.5,8.644-46.062,20.888-66.659c5.108-8.593,9.569-17.609,11.428-27.509C1044.557,301.458,1045.195,296.002,1044.252,291.068
	z M585.669,603.924c-2.203,8.732-12.152,8.692-19.262,10.379c-7.859,1.865-26.788,8.925-17.948,20.275
	c4.989,6.404,13.155,3.223,19.475,1.066c4.461-1.523,15.806-8.146,16.591,0.858c0.679,7.789-4.933,14.889-7.541,21.885
	c-8.593,23.057-15.106,46.834-23.506,69.969c-7.74,21.368-15.583,42.7-23.404,64.039c-2.435,6.644-4.909,13.275-7.303,19.934
	c-1.889,5.252-3.077,10.624-7.466,14.47c-5.214,4.568-9.754,9.835-14.785,14.592c-4.012,3.793-9.976,8.782-15.962,6.933
	c-3.897-1.204-6.294-5.196-8.512-8.326c-7.132-10.067-20.816-20.009-33.718-19.314c-5.294,0.285-10.075,2.562-15.256,3.279
	c-7.762,1.075-6.812-7.497-7.891-12.824c-3.089-15.245-10.94-28.988-26.465-33.938c-2.5-0.797-5.548-2.148-7.086-4.456
	c-0.269-0.403-0.491-0.835-0.657-1.299c-1.398-3.915,1.558-7.553,3.036-10.92c2.848-6.486,2.368-14.791-0.997-21.009
	c-1.976-3.652-4.81-6.64-8.111-9.133c-4.153-3.137-11.357-6.337-13.001-11.715c-2.109-6.9,8.433-12.051,11.743-16.505
	c2.471-3.325,4.454-7.332,5.149-11.442c0.822-4.857-0.463-9.766,0.045-14.643c0.946-9.076,14.441-5.28,20.325-5.587
	c8.639-0.451,18.883-1.021,25.222-7.793c7.017-7.497,1.514-16.327,1.309-24.969c-0.092-3.91,1.794-10.056,5.14-12.507
	c3.35-2.454,7.377-3.643,11.164-5.228c4.188-1.753,8.275-3.751,12.382-5.684c7.711-3.629,15.143-7.857,23.061-11.038
	c20.132-8.087,43.685-6.535,64.97-7.589c5.358-0.265,10.741-0.265,16.086-0.744c5.053-0.453,10.073-1.722,15.155-1.781
	C584.754,593.078,587.347,597.273,585.669,603.924z M594.943,536.936c-0.303,0.884-0.836,1.439-1.523,1.754
	c-2.744,1.262-7.927-1.305-10.516-1.959c-7.659-1.936-25.789-11.072-31.261-1.452c-5.815,10.225,5.258,17.175,13.836,19.005
	c6.748,1.44,15.307-1.646,21.688,1.364c8.623,4.068,4.783,18.775-4.674,18.91c-9.854,0.141-19.722-0.255-29.566,0.096
	c-21.191,0.756-42.366,1.936-63.555,2.761c-7.124,0.277-14.238,0.814-21.369,0.925c-6.937,0.108-13.8-0.744-20.725-0.78
	c-7.867-0.041-15.753,0.154-23.441-1.807c-3.434-0.876-6.785-1.992-10.149-3.102c-3.134-1.034-6.369-1.525-9.518-2.457
	c-3.665-1.085-4.439-4.639-2.915-7.746c2.82-5.751,11.195-5.336,13.417-11.358c3.074-8.334-2.734-16.002-9.727-19.854
	c-4.281-2.358-11.507-2.986-10.415-9.685c0.893-5.475,11.67-3.391,15.37-4.979c6.277-2.694,12.327-5.87,16.924-11.112
	c6.698-7.636,5.393-17.419-3.305-22.668c-9.983-6.025-21.575-8.379-32.979-9.988c-9.824-1.386-22.916,1.376-31.792-4.029
	c-9.887-6.025,8.201-17.21,11.906-20.062c4.446-3.421,6.65-7.83,7.882-13.235c1.912-8.389,3.027-17.205,1.731-25.773
	c-0.279-1.843-0.611-3.714-1.275-5.462c-0.672-1.768-1.626-3.434-2.067-5.285c-0.904-3.787,3.581-7.843,6.995-8.448
	c2.566-0.455,5.265,0.158,7.766,0.714c1.367,0.304,2.724,0.685,4.097,0.96c4.278,0.854,8.758,0.686,12.664-1.434
	c3.669-1.991,6.362-5.055,7.505-9.099c1.118-3.956,0.407-8.435,2.134-12.199c1.954-4.262,7.268-6.766,11.806-5.914
	c3.495,0.656,6.695,1.722,9.924,3.22c5.72,2.654,11.962,5.181,16.994,9.046c1.34,1.029,2.58,2.192,3.668,3.485
	c9.249,10.987,15.935,23.855,21.822,36.877c10.262,22.698,29.316,39.554,47.645,55.706c13.064,11.511,25.224,23.933,38.094,35.644
	c3.696,3.363,7.478,6.635,11.396,9.738c4.598,3.642,9.15,7.376,13.203,11.629C594.753,531.1,595.989,533.88,594.943,536.936z
	 M898.819,718.671c-1.644,5.378-8.847,8.578-13.001,11.715c-3.301,2.494-6.135,5.482-8.111,9.133
	c-3.365,6.217-3.846,14.522-0.997,21.009c1.478,3.367,4.434,7.004,3.036,10.92c-0.166,0.464-0.388,0.896-0.657,1.299
	c-1.538,2.307-4.586,3.659-7.086,4.456c-15.525,4.95-23.376,18.693-26.465,33.938c-1.079,5.327-0.129,13.899-7.891,12.824
	c-5.181-0.717-9.962-2.994-15.256-3.279c-12.902-0.695-26.585,9.247-33.718,19.314c-2.218,3.13-4.615,7.122-8.512,8.326
	c-5.986,1.85-11.95-3.14-15.962-6.933c-5.032-4.757-9.572-10.024-14.786-14.592c-4.39-3.846-5.577-9.218-7.466-14.47
	c-2.395-6.659-4.869-13.29-7.304-19.934c-7.82-21.339-15.664-42.671-23.404-64.039c-8.401-23.135-14.914-46.912-23.506-69.969
	c-2.608-6.997-8.219-14.097-7.541-21.885c0.785-9.004,12.13-2.38,16.591-0.858c6.32,2.157,14.487,5.338,19.475-1.066
	c8.84-11.349-10.089-18.41-17.948-20.275c-7.11-1.687-17.06-1.648-19.262-10.379c-1.678-6.652,0.915-10.847,8.018-10.764
	c5.082,0.059,10.102,1.329,15.155,1.781c5.345,0.479,10.728,0.478,16.086,0.744c21.285,1.054,44.838-0.498,64.97,7.589
	c7.919,3.181,15.351,7.409,23.061,11.038c4.106,1.933,8.194,3.931,12.382,5.684c3.787,1.585,7.814,2.773,11.164,5.228
	c3.346,2.451,5.232,8.596,5.14,12.507c-0.204,8.642-5.707,17.472,1.309,24.969c6.338,6.772,16.582,7.342,25.222,7.793
	c5.883,0.307,19.379-3.489,20.325,5.587c0.508,4.877-0.776,9.786,0.045,14.643c0.695,4.11,2.678,8.117,5.149,11.442
	C890.386,706.62,900.927,711.771,898.819,718.671z M905.97,468.774c-8.876,5.406-21.968,2.643-31.792,4.029
	c-11.405,1.61-22.996,3.963-32.979,9.988c-8.697,5.249-10.002,15.032-3.305,22.668c4.597,5.241,10.647,8.418,16.924,11.112
	c3.7,1.588,14.477-0.496,15.37,4.979c1.092,6.699-6.134,7.327-10.415,9.685c-6.993,3.852-12.801,11.52-9.727,19.854
	c2.221,6.022,10.596,5.607,13.417,11.358c1.523,3.107,0.75,6.661-2.915,7.746c-3.149,0.932-6.384,1.423-9.518,2.457
	c-3.363,1.11-6.714,2.227-10.149,3.102c-7.687,1.961-15.574,1.765-23.441,1.807c-6.925,0.036-13.788,0.888-20.725,0.78
	c-7.13-0.111-14.244-0.648-21.369-0.925c-21.189-0.825-42.364-2.005-63.555-2.761c-9.844-0.351-19.712,0.045-29.566-0.096
	c-9.457-0.136-13.297-14.842-4.674-18.91c6.381-3.01,14.94,0.076,21.688-1.364c8.578-1.831,19.652-8.78,13.836-19.005
	c-5.472-9.619-23.602-0.483-31.261,1.452c-2.589,0.654-7.772,3.221-10.516,1.959c-0.686-0.315-1.22-0.87-1.523-1.754
	c-1.046-3.056,0.189-5.836,2.303-8.055c4.052-4.253,8.605-7.987,13.203-11.629c3.918-3.103,7.7-6.375,11.396-9.738
	c12.87-11.711,25.03-24.133,38.094-35.644c18.33-16.152,37.383-33.007,47.645-55.706c5.887-13.022,12.574-25.89,21.822-36.877
	c1.089-1.293,2.328-2.456,3.669-3.485c5.032-3.865,11.273-6.392,16.994-9.046c3.229-1.498,6.429-2.564,9.924-3.22
	c4.537-0.852,9.851,1.652,11.806,5.914c1.726,3.764,1.016,8.243,2.134,12.199c1.143,4.045,3.836,7.108,7.505,9.099
	c3.906,2.12,8.386,2.288,12.664,1.434c1.373-0.274,2.73-0.656,4.097-0.96c2.501-0.556,5.201-1.169,7.766-0.714
	c3.414,0.605,7.899,4.661,6.995,8.448c-0.442,1.851-1.396,3.517-2.067,5.285c-0.664,1.748-0.996,3.619-1.275,5.462
	c-1.296,8.568-0.181,17.385,1.731,25.773c1.232,5.405,3.436,9.814,7.882,13.235C897.769,451.564,915.857,462.75,905.97,468.774z"/>
</svg>
