<?xml version="1.0" encoding="utf-8"?>
<!-- Generator: Adobe Illustrator 17.0.0, SVG Export Plug-In . SVG Version: 6.00 Build 0)  -->
<!DOCTYPE svg PUBLIC "-//W3C//DTD SVG 1.1//EN" "http://www.w3.org/Graphics/SVG/1.1/DTD/svg11.dtd">
<svg version="1.1" id="Layer_2" xmlns="http://www.w3.org/2000/svg" xmlns:xlink="http://www.w3.org/1999/xlink" x="0px" y="0px"
	 width="1264.719px" height="1095.279px" viewBox="0 0 1264.719 1095.279" enable-background="new 0 0 1264.719 1095.279"
	 xml:space="preserve">
<g>
	<path fill="#E9983C" d="M928.332,35l295.972,512.64l-295.972,512.639H336.387L40.415,547.639L336.387,35H928.332 M948.539,0H316.18
		L0,547.639l316.18,547.639h632.359l316.18-547.639L948.539,0L948.539,0z"/>
</g>
<path fill="#E9983C" d="M1138.901,483.246l-98.406-56.815V312.747L942.034,255.9V142.35L830.6,78.014l-98.434,56.831l-98.433-56.831
	l-98.434,56.831l-98.434-56.831l-111.433,64.337v113.581l-98.406,56.815V426.4l-98.461,56.847v128.672l98.461,56.845V782.43
	l98.406,56.815v113.682l111.434,64.335l98.434-56.83l98.434,56.83l98.433-56.83l98.434,56.83l111.434-64.336v-113.65l98.461-56.846
	V668.733l98.405-56.815V483.246z M817.628,767.409l-85.444,49.33l-85.423-49.32V668.77l85.434-49.325l85.434,49.325L817.628,767.409
	L817.628,767.409z M449.894,327.838l85.406-49.309l85.461,49.341v98.53l-85.441,49.33l-85.426-49.32V327.838z M548.3,498.266
	l85.441-49.33l85.427,49.32v98.649l-85.434,49.326L548.3,596.908V498.266z M745.167,596.907v-98.64l85.44-49.33l85.426,49.321
	l0.001,98.649L830.6,646.233L745.167,596.907z M817.627,426.4l-85.44,49.329l-85.426-49.32v-98.571l85.406-49.31l85.46,49.341V426.4
	z M522.3,596.908l-85.434,49.325l-85.433-49.325v-98.641l85.441-49.33l85.426,49.32V596.908z M449.894,767.419v-98.65l85.433-49.325
	l85.434,49.325v98.639l-85.443,49.331L449.894,767.419z M1014.494,426.4l-85.44,49.329l-85.426-49.321l-0.001-98.571l85.502-49.365
	l85.365,49.285V426.4z M916.033,157.362v98.571l-85.406,49.31l-85.46-49.34l-0.001-98.54l85.434-49.325L916.033,157.362z
	 M719.166,157.362v98.571l-85.406,49.309l-85.461-49.341v-98.54l85.434-49.325L719.166,157.362z M436.866,108.037l85.434,49.325
	v98.571l-85.406,49.309l-85.461-49.341v-98.539L436.866,108.037z M253.027,327.759l85.338-49.27l85.529,49.38v98.53l-85.441,49.329
	l-85.426-49.32L253.027,327.759L253.027,327.759z M154.566,498.258L240,448.933l85.433,49.324v98.651L240,646.233l-85.434-49.325
	L154.566,498.258L154.566,498.258z M253.027,668.77l85.434-49.325l85.433,49.325v98.639L338.45,816.74l-85.424-49.32v-98.65H253.027
	z M351.433,937.916v-98.639l85.444-49.331l85.423,49.32v98.649l-85.434,49.325L351.433,937.916z M548.3,937.916v-98.639
	l85.443-49.33l85.424,49.319v98.649l-85.433,49.326L548.3,937.916z M916.034,937.915L830.6,987.241l-85.434-49.326v-98.638
	l85.444-49.331l85.424,49.319V937.915z M1014.495,767.419l-85.434,49.326l-85.434-49.326V668.77l85.434-49.325l85.434,49.325
	V767.419z M1112.901,596.907l-85.433,49.326l-85.434-49.326v-98.641l85.44-49.329l85.427,49.321V596.907z"/>
</svg>
