<?xml version="1.0" encoding="utf-8"?>
<!-- Generator: Adobe Illustrator 17.0.0, SVG Export Plug-In . SVG Version: 6.00 Build 0)  -->
<!DOCTYPE svg PUBLIC "-//W3C//DTD SVG 1.1//EN" "http://www.w3.org/Graphics/SVG/1.1/DTD/svg11.dtd">
<svg version="1.1" id="Layer_1" xmlns="http://www.w3.org/2000/svg" xmlns:xlink="http://www.w3.org/1999/xlink" x="0px" y="0px"
	 width="1264.719px" height="1095.279px" viewBox="0 0 1264.719 1095.279" enable-background="new 0 0 1264.719 1095.279"
	 xml:space="preserve">
<g>
	<path fill="#3E5FFF" d="M354.451,623.665c-7.958-1.649-15.154-2.964-22.264-4.644c-37.513-8.868-71.537-24.706-100.285-50.842
		c-30.864-28.06-50.314-63.046-61.542-102.832c-5.314-18.832-9.653-37.902-9.28-57.679c0.258-13.653,3.538-26.36,12.715-36.88
		c9.385-10.759,21.824-15.521,35.667-17.027c21.592-2.349,42.374,2.083,62.854,8.159c35.13,10.423,68.123,25.885,100.362,43.098
		c28.282,15.1,54.32,33.687,80.652,51.796c39.873,27.421,79.545,55.135,119.303,82.723c0.877,0.608,1.77,1.194,2.354,1.588
		c5.645-7.377,11.193-14.628,17.043-22.274c-3.224-6.618-5.445-14.362-4.522-22.43c0.546-4.771-0.581-7.681-4.244-10.824
		c-17.791-15.261-35.28-30.873-52.898-46.337c-2.155-1.892-4.648-2.077-7.256-0.985c-3.981,1.666-7.833,3.847-11.971,4.874
		c-4.292,1.065-8.955,1.791-13.285,1.264c-5.616-0.684-9.455-4.538-11.049-10.132c-1.563-5.486-0.126-10.413,3.928-14.231
		c7.094-6.68,15.968-9.713,25.393-11.156c15.619-2.391,29.689,1.161,41.465,11.948c12.185,11.162,24.156,22.56,36.137,33.942
		c3.037,2.885,5.757,6.105,8.478,9.017c24.83-14.854,40.84-15.144,60.129-1.387c0.492-0.466,1.069-0.91,1.524-1.457
		c14.892-17.885,32.588-32.758,50.804-47.034c7.848-6.15,16.744-9.895,27.031-8.935c10.741,1.002,21.232,2.743,29.438,10.753
		c5.123,5.001,8.475,10.795,7.157,18.176c-1.653,9.257-11.708,14.053-20.707,10.141c-4.732-2.057-9.413-4.242-14.217-6.112
		c-0.808-0.314-2.354,0.411-3.172,1.11c-13.227,11.3-26.392,22.673-39.569,34.031c-6.547,5.643-13.148,11.228-19.576,17.004
		c-0.989,0.889-1.711,2.697-1.644,4.034c0.353,7.002-0.474,13.78-2.77,20.416c-0.334,0.965-0.242,2.587,0.365,3.288
		c5.838,6.744,11.828,13.356,18.034,20.295c5.931-4.133,12.626-8.844,19.368-13.488c46.701-32.168,93.087-64.809,140.215-96.339
		c44.28-29.624,91.974-52.539,143.204-67.645c16.944-4.996,34.265-8.193,52.057-7.42c13.884,0.604,26.959,3.865,37.736,13.311
		c10.781,9.449,15.478,21.854,16.672,35.766c1.653,19.256-2.489,37.846-7.157,56.287c-8.455,33.409-22.76,63.99-45.051,90.54
		c-24.669,29.383-55.726,49.379-91.697,62.067c-15.198,5.361-30.788,9.221-46.701,11.777c-0.607,0.098-1.195,0.317-2.263,0.608
		c3.902,2.302,7.653,4.017,10.813,6.487c6.097,4.766,12.567,9.338,17.62,15.098c11.945,13.614,12.307,30.675,1.335,45.151
		c-3.875,5.113-8.514,9.822-13.466,13.913c-19.909,16.446-39.999,32.677-60.174,48.797c-18.845,15.057-38.341,29.183-60.26,39.576
		c-13.569,6.434-27.692,11.03-42.806,11.804c-22.148,1.135-41.042-6.557-57.156-21.535c-0.62-0.576-1.236-1.155-2.324-2.171
		c-0.296,5.406-0.714,10.287-0.807,15.175c-0.989,52-15.111,100.25-41.297,145.072c-4.575,7.83-9.001,15.752-13.748,23.476
		c-4.928,8.018-15.865,8.275-20.726,0.32c-16.901-27.664-32.597-55.958-43.514-86.636c-8.381-23.553-12.821-47.931-15.09-72.75
		c-0.941-10.298-1.761-20.606-2.632-30.851c-1.681,1.51-3.423,2.892-4.954,4.477c-23.699,24.54-51.972,30.875-84.26,21.196
		c-19.366-5.805-36.94-15.382-52.992-27.35c-21.294-15.878-41.89-32.695-62.733-49.175c-9.659-7.637-19.338-15.261-28.736-23.212
		c-6.931-5.864-12.471-12.99-15.174-21.811c-4.383-14.303,0.203-26.308,10.136-36.736c6.714-7.048,14.82-12.187,23.283-16.822
		C352.406,624.724,353.066,624.391,354.451,623.665z M267.987,473.465c0.092,7.426,0.743,14.846,2.072,22.213
		c5.011,27.773,20.785,48.889,40.586,68.22c11.159,10.894,24.829,25.214,40.727,28.244c16.061,3.061,30.877-11.388,19.871-26.316
		c-10.238-13.886-29.642-15.752-38.537-32.266c-7.797-14.477-2.285-27.592,5.593-40.467c8.945-14.618,15.746-32.892,12.461-50.25
		c-2.044-10.799-10.044-16.31-19.415-20.929c-10.772-5.311-40.093-27.638-51.018-14.645c-6.336,7.536-6.827,18.913-8.491,28.189
		C269.575,448.068,267.828,460.616,267.987,473.465z M997.733,469.806c0.167-7.143,0.025-14.196-0.258-20.968
		c-0.444-10.625-1.986-23.782-7.22-33.282c-17.672-32.07-71.256,9.818-74.67,33.975c-3.129,22.138,14.899,39.389,19.791,59.508
		c4.373,17.986-6.013,35.77-21.575,44.468c-5.68,3.174-13.255,5.06-16.534,11.223c-5.693,10.702,5.538,23.051,16.608,21.469
		c16.562-2.369,30.935-15.598,43.168-26.124c12.791-11.007,25.285-23.652,31.698-39.567
		C995.216,504.441,997.331,487.015,997.733,469.806z M409.846,638.436c-4.72,0.524-8.712,0.789-12.638,1.45
		c-4.549,0.767-7.893,3.313-9.697,7.684c-3.454,8.371,1.106,18.675,9.904,20.64c7.955,1.777,16.17,2.419,24.284,3.454
		c5.22,0.666,10.544,0.743,15.681,1.778c9.939,2.001,19.754,4.616,29.669,6.747c15.41,3.312,35.951,10.33,40.081,27.59
		c3.983,16.643-6.985,35.376,1.213,51.768c6.739,13.475,28.312-1.271,34.108-8.779c14.003-18.136,2.325-42.001,9.841-62.169
		c4.197-11.261,17.769-19.015,18.133-31.714c0.602-21.007-35.321-11.722-47.305-12.054c-27.845-0.77-55.688-1.594-83.53-2.481
		c-3.532-0.112-7.06-0.626-10.568-1.107C422.404,640.334,415.801,639.313,409.846,638.436z M746.456,763.782
		c7.919-0.568,14.41-6.491,14.78-19.609c0.486-17.241-7.678-37.275,7.554-50.779c9.092-8.06,21.097-11.01,32.604-13.789
		c13.403-3.236,26.928-6.668,40.695-7.934c10.209-0.939,22.595,0.539,31.334-5.905c11.735-8.653,4.412-24.412-7.52-26.797
		c-20.969-4.19-43.941,4.226-65.046,4.726c-18.853,0.447-37.742,1.898-56.606,1.306c-12.279-0.385-28.979-6.989-40.336-0.369
		c-11.246,6.556-4.866,16.835,1.03,24.647c7.092,9.397,12.902,18.383,13.263,30.596c0.452,15.304-5.292,31.475,1.707,46.071
		C725.438,757.463,736.972,764.462,746.456,763.782z M410.934,567.208c-0.373,3.64-0.642,7.263-0.13,10.728
		c1.367,9.256,5.358,18.147,11.553,25.185c9.27,10.532,26.341,17.545,30.754,0.174c3.492-13.749-2.101-26.61-3.584-40.094
		c-1.778-16.164,1.95-32.509-2.264-48.469c-4.481-16.971-17.86-32.411-33.327-40.529c-18.993-9.968-44.728-0.242-43.876,24.48
		c0.846,24.55,32.955,29.599,40.465,50.784C412.478,554.978,411.559,561.116,410.934,567.208z M896.042,496.526
		c0.781-10.336-5.358-20.294-18.753-23.345c-14.355-3.269-28.755,6.329-39.78,14.353c-15.357,11.177-19.08,28.891-19.966,46.845
		c-0.794,16.097-2.914,31.353-6.128,47.08c-2.95,14.436,4.392,31.791,23.357,28.152c16.01-3.072,16.543-23.456,18.226-35.933
		c0.995-7.373,1.172-14.81,2.066-22.169c1.95-16.04,21.341-27.446,31.866-37.1C892.502,509.301,895.564,502.843,896.042,496.526z
		 M1030.035,454.259c-0.154,12.596-1.671,24.983-3.878,37.346c-1.205,6.749-4.161,19.27,5.338,21.693
		c13.965,3.562,24.196-23.479,28.539-32.721c10.875-23.143,33.45-81.995-3.006-94.672c-9.062-3.149-25.126-2.98-32.85,3.25
		c-13.85,11.175,3.069,34.011,4.821,46.834C1029.827,442.059,1030.109,448.157,1030.035,454.259z M220.92,384.082
		c-3.953,0.546-7.7,1.618-10.677,2.91c-36.953,16.044-19.828,64.476-6.285,90.396c4.455,8.527,7.834,17.674,13.633,25.454
		c4.615,6.191,17.052,15.31,22.245,5.274c4.779-9.236-1.582-24.475-2.242-34.234c-0.956-14.148-1.824-28.472-0.031-42.595
		c1.489-11.72,14.912-30.039,5.346-41.366C237.946,384.044,229.004,382.965,220.92,384.082z M671.847,604.964
		c15.462,0.033,23.156-17.766,15.87-29.575c-8.463-13.72-23.386-23.524-35.621-33.577c-16.394-13.469-34.768,0.265-47.151,12.087
		c-11.026,10.528-31.027,26.779-16.103,42.586c17.94,19.001,31.726-25.823,49.416-17.726c10.254,4.694,15.587,16.591,24.52,23.09
		C665.758,604.017,668.843,604.957,671.847,604.964z M789.17,563.036c0.441-4.718,0.24-9.54-0.479-14.287
		c-6.602-43.6-73.438,10.618-63.802,41.503c3,9.606,16.255,13.785,25.159,13.083c10.74-0.847,20.93-7.548,28.194-15.165
		C784.98,581.103,788.306,572.27,789.17,563.036z M475.556,562.812c1.772,18.176,17.838,37.115,36.131,39.892
		c14.52,2.204,33.745-6.53,30.143-23.109c-3.444-15.852-36.094-60.62-56.411-49.986c-9.316,4.877-10.327,21.8-10.026,30.722
		C475.422,561.169,475.476,561.996,475.556,562.812z M638.05,827.928c0-0.016,0-0.031-0.003-0.047
		c-11.083-0.001-30.977-4.883-34.239,10.424c-3.409,16.011,9.814,38.442,23.54,46.149c13.749,7.721,26.613,0.152,35.296-11.005
		c6.85-8.802,16.154-26.946,9.673-38.156C666.714,825.602,647.162,827.928,638.05,827.928z M670.704,768.665
		c-0.706-0.519-1.491-0.967-2.359-1.332c-6.679-2.809-16.274-0.982-23.265-0.764c-13.043,0.406-36.794-4.289-46.032,8.053
		c-7.27,9.712-1.119,22.078,10.253,24.416c12.6,2.59,26.015-1.237,38.805-0.8c7.29,0.249,17.084,1.747,22.98-3.579
		C677.663,788.72,678.345,774.283,670.704,768.665z M602.682,731.569c0-0.105,0-0.21-0.001-0.315
		c0.004,1.37,14.081-2.187,15.395-3.023c4.447-2.829,5.92-6.715,6.353-11.803c1.033-12.129-3.609-33.219-17.135-37.604
		c-6.478-2.1-13.738,0.876-19.202,6.934c-5.875,6.514-8.3,20.074-8.29,28.476C579.824,731.068,587.793,731.569,602.682,731.569z
		 M668.984,736.013c4.756,0.833,9.683-0.09,13.729-3.452c10.385-8.63,7.818-30.197,2.854-41.277
		c-2.247-5.013-6.453-8.377-11.761-9.768c-4.763-1.249-17.283-0.943-20.879,3.047c-7.128,7.911-2.267,22.698-1.98,31.897
		C651.252,726.245,659.797,734.405,668.984,736.013z M483.557,734.531c0.035-6.045-2.91-11.705-10.003-14.333
		c-1.988-0.737-4.185-1.347-5.769-2.646c-12.699-10.41-28.834-3.708-32.429,11.296c-3.542,14.786,19.583,29.545,32.525,26.551
		C476.786,753.34,483.504,743.47,483.557,734.531z M812.323,713.911c-12.179-0.541-26.16,6.441-28.595,18.705
		c-3.652,18.396,16.972,25.475,31.063,19.11c7.448-3.365,16.476-10.661,16.502-19.58
		C831.328,720.01,822.448,714.361,812.323,713.911z M390.855,684.992c-5.509,0.13-10.611,1.485-14.018,4.19
		c-17.993,14.283,13.982,33.858,26.868,33.117c10.161-0.584,18.085-12.531,15.623-22.037
		C416.726,690.22,402.829,684.71,390.855,684.992z M874.579,684.061c-12.051,0.433-25.864,8.791-27.459,19.165
		c-5.041,32.777,54.404,15.994,44.491-9.479C888.813,686.556,882.033,683.793,874.579,684.061z M634.737,651.792
		c8.985,0.001,15.198-6.339,15.465-15.184c0.372-12.354-10.036-18.126-18.158-18.21c-8.295-0.085-16.195,8.609-16.029,17.554
		C616.179,644.856,624.376,651.791,634.737,651.792z"/>
</g>
</svg>
