<?xml version="1.0" encoding="utf-8"?>
<!-- Generator: Adobe Illustrator 17.0.0, SVG Export Plug-In . SVG Version: 6.00 Build 0)  -->
<!DOCTYPE svg PUBLIC "-//W3C//DTD SVG 1.1//EN" "http://www.w3.org/Graphics/SVG/1.1/DTD/svg11.dtd">
<svg version="1.1" id="Layer_1" xmlns="http://www.w3.org/2000/svg" xmlns:xlink="http://www.w3.org/1999/xlink" x="0px" y="0px"
	 width="1264.719px" height="1095.279px" viewBox="0 0 1264.719 1095.279" enable-background="new 0 0 1264.719 1095.279"
	 xml:space="preserve">
<path fill="#E9983C" d="M962.446,325.191c-49.306,22.347-86.533,64.496-127.861,98.144c-22.591,18.393-45.615,37.163-65.906,58.785
	c-9.526,10.151-18.158,21.154-28.86,30.14c-1.327,1.114-3.243,2.4-5.426,3.753c-1.123,0.696-2.297,1.302-3.471,1.903
	c-0.282,0.144-0.489,0.254-0.666,0.348c-0.204,0.059-0.527,0.165-1.056,0.354c-1.175,0.422-2.39,0.715-3.602,1.004
	c-0.271,0.065-0.485,0.118-0.661,0.165c-0.211,0.005-0.509,0.02-0.931,0.05c-1.26,0.091-2.525,0.021-3.783-0.048
	c1.968,0.109-2.625-0.602-3.193-0.755c-2.864-0.772-5.928-2.31-8.813-4.226c3.471-19.323,14.454-35.204,25.325-51.879
	c2.183-3.349,4.309-6.699,6.359-10.067c2.528-3.32,4.892-6.795,7.064-10.473c7.548-12.781,15.167-26.767,18.746-41.24
	c2.854-11.544,3.42-23.474,5.326-35.179c0.973-3.186,2.018-6.352,3.169-9.49c1.64-4.474,1.75-4.69,4.044-9.301
	c1.91-3.839,4.146-7.503,6.645-10.984c-0.815,1.011-0.772,0.956,0.13-0.165c0.704-0.877,1.458-1.711,2.212-2.544
	c1.364-1.506,2.86-2.882,4.399-4.206c-0.437,0.45,2.736-1.918,3.319-2.279c0.952-0.59,1.948-1.105,2.942-1.618
	c0.294-0.152,0.496-0.26,0.66-0.35c0.148-0.055,0.323-0.121,0.533-0.203c6.349-2.456,10.675-8.306,8.73-15.376
	c-1.67-6.071-9.013-11.192-15.376-8.73c-14.897,5.763-25.175,16.02-32.688,28.475c-0.674,0.483-1.291,1.059-1.828,1.74
	c-9.377,11.875-14.197,25.251-17.557,39.87c-3.108,13.525-6.572,25.758-12.091,38.312c-5.533,12.586-11.566,24.986-19.41,36.315
	c-3.402,4.914-7.728,10.115-12.725,14.455c-1.945,1.495-3.91,2.966-5.874,4.436c-0.81,0.522-1.631,1.017-2.466,1.478
	c-5.432-10.613-12.234-19.944-20.947-27.293c-0.75-1.297-1.493-2.597-2.197-3.921c-1.251-2.353-2.071-4.781-1.101-7.002
	c0.692-1.586,1.152-3.228,1.354-4.856c12.948-26.125,26.659-51.869,43.646-75.644c3.969-5.555,0.99-13.896-4.484-17.102
	c-6.285-3.682-13.15-1.047-17.102,4.484c-18.337,25.664-32.857,53.623-46.72,81.879c-3.001,2.309-6.449,4.421-10.005,6.408
	c-5.409-0.599-10.922-0.617-16.375-0.098c-5.807-1.317-10.33-4.283-15.132-8.641c-1.978-4.994-3.906-9.951-5.924-14.674
	c-8.463-19.808-20.527-37.842-25.996-58.888c-4.052-15.593-28.166-8.972-24.107,6.646c5.878,22.62,18.558,42.233,27.89,63.415
	c2.347,5.328,4.562,10.722,6.816,16.098c0.576,3.124,0.022,5.614-0.9,8.836c-11.046,7.09-20.06,16.719-25.812,28.177
	c-7.208-4.65-14.558-11.515-19.178-17.64c-6.617-8.772-11.693-18.638-16.125-28.656c-7.839-17.717-14.104-40.122-22.084-59.375
	c-0.297-0.716-0.637-1.403-1.008-2.064c-1.355-3.993-2.854-7.952-4.545-11.869c-7.492-17.36-20.224-31.391-35.691-42.037
	c-5.622-3.869-13.851-1.066-17.102,4.484c-3.636,6.207-1.116,13.247,4.484,17.102c6.331,4.357,12.041,9.798,17.031,15.991
	c3.036,3.768,8.303,13.648,9.974,17.789c6.299,15.611,9.156,32.445,12.626,48.837c3.987,18.839,12.225,35.467,21.901,51.387
	c0.15,0.336,0.3,0.673,0.483,1.011c2.291,4.254,2.801,9.494,4.82,13.986c2.122,4.722,4.558,8.761,7.665,12.913
	c2.843,3.799,5.646,7.63,8.468,11.445c2.304,3.114,5.376,7.813,5.594,9.778c0.666,5.996-4.085,13.56-8.117,17.879
	c-1.032,0.296-2.027,0.744-2.944,1.396c-0.098,0.07-0.187,0.146-0.284,0.216c-0.41-0.083-0.886-0.221-1.507-0.384
	c-0.399-0.104-0.819-0.245-1.252-0.414c-25.953-44.611-64.072-82.048-101.376-117.002c-39.148-36.683-79.701-74.391-132.394-89.884
	c-22.181-6.522-48.364-12.058-70.129-1.67c-26.238,12.522-28.042,46.184-23.488,70.919c2.452,13.318,7.171,26.422,14.026,38.094
	c6.726,11.454,16.79,23.416,21,35.194c0.453,1.266,0.764,2.577,1.071,3.884c0.087,0.37,0.157,0.65,0.212,0.857
	c0.013,0.207,0.036,0.486,0.07,0.852c0.24,2.54,0.159,5.11,0.066,7.655c-0.233,6.446-1.027,12.895-0.527,19.346
	c0.995,12.837,6.063,24.775,13.546,35.151c7.275,10.088,16.14,18.727,25.128,27.259c9.596,9.108,18.438,18.746,30.046,25.394
	c11.524,6.6,24.557,10.01,37.24,13.574c10.919,3.068,24.393,7.367,31.678,13.826c8.885,7.878,13.866,18.761,24.237,26.392
	c11.956,8.798,28.07,4.623,41.643,3.861c21.578-1.211,43.796-3.929,64.418,1.351c-2.595,1.121-5.143,2.479-7.633,4.116
	c-10.809,7.105-19.593,17.021-29.596,25.153c-10.614,8.629-22.085,16.166-33.522,23.643c-9.751,6.375-19.976,12.324-28.683,20.129
	c-14.279,12.8-24.78,29.705-35.809,45.222c-6.3,8.864-9.506,13.331-16.472,21.143c-2.915,3.27-6.016,6.369-9.277,9.292
	c-0.793,0.71-1.609,1.393-2.427,2.075c-0.225,0.188-0.382,0.321-0.513,0.432c-0.086,0.064-0.162,0.12-0.268,0.2
	c-1.927,1.444-3.953,2.75-6.02,3.982c-1.424,0.849-2.904,1.596-4.4,2.309c-0.381,0.157-1.504,0.648-1.773,0.749
	c-1.268,0.471-2.567,0.853-3.867,1.22c-0.984,0.278-1.984,0.493-2.983,0.708c-0.54,0.11-1.083,0.204-1.626,0.296
	c-0.065,0.007-0.116,0.013-0.188,0.021c-2.51,0.263-5.041,0.249-7.559,0.133c-6.811-0.313-12.5,5.923-12.5,12.5
	c0,7.051,5.696,12.187,12.5,12.5c42.762,1.968,67.409-38.893,89.094-69.264c1.337-1.872,2.689-3.733,4.051-5.586
	c0.673-0.915,1.354-1.823,2.036-2.732c0.088-0.117,0.847-1.104,1.2-1.564c2.752-3.512,5.63-6.922,8.661-10.196
	c2.752-2.972,5.695-5.76,8.812-8.345c0.077-0.064,0.127-0.107,0.192-0.16c0.098-0.071,0.203-0.148,0.338-0.247
	c0.763-0.563,1.552-1.089,2.341-1.615c3.017-2.009,6.07-3.972,9.102-5.961c11.755-7.711,23.585-15.296,34.898-23.653
	c11.322-8.364,21.483-17.752,32.039-27.003c7.213-6.321,14.117-10.073,23.914-8.121c0.942,0.188,1.884,0.277,2.815,0.287
	c4.703,1.458,9.376,3.016,14.079,4.483c0.52,0.265,1.052,0.514,1.606,0.729c12.735,4.939,25.656,9.376,39.073,11.921
	c2.465,0.682,4.948,1.296,7.448,1.833c30.019,6.446,62.08,1.538,91.113-7.331c5.639-1.722,10.959-3.887,15.992-6.526
	c5.321-1.237,10.578-2.737,15.758-4.722c7.99,0.188,15.997,1.505,23.824,4.276c4.469,2.953,8.805,6.122,13.086,9.308
	c9.698,7.218,19.409,14.313,29.281,21.286c9.168,6.475,17.447,14.153,25.218,22.228c8.813,9.158,16.503,19.28,25.606,28.166
	c8.754,8.545,18.156,16.392,26.712,25.145c8.247,8.437,15.021,18.183,22.675,27.146c15.041,17.613,34.182,29.502,58.036,28.215
	c6.802-0.367,12.5-5.408,12.5-12.5c0-6.536-5.69-12.867-12.5-12.5c-9.706,0.523-16.682-1.042-24.323-5.79
	c-6.521-4.052-13.696-12.198-19.651-19.412c-7.418-8.987-14.234-18.126-22.586-26.381c-8.7-8.599-18.118-16.434-26.736-25.121
	c-8.512-8.58-15.821-18.272-24.27-26.931c-8.596-8.809-18.079-16.668-28.063-23.852c-9.805-7.055-19.606-14.041-29.281-21.286
	c-7.42-5.556-15.037-11.05-23.26-15.384c0.268-0.049,0.534-0.107,0.802-0.153c1.18-0.176,1.658-0.254,1.44-0.235
	c23.626-2.911,43.537,4.144,67.278,5.218c11.944,0.54,23.8-1.352,34.751-6.167c12.429-5.465,20.701-14.834,29.678-24.572
	c3.616-3.922,6.918-5.895,12.149-8.407c3.23-1.551,10.252-3.486,15.31-4.726c12.324-3.021,24.366-5.568,36.085-10.597
	c24.459-10.496,48.336-27.894,65.681-48.015c10.156-11.781,16.535-24.007,18.6-39.467c1.631-12.214-0.003-22.957,3.93-34.28
	c3.758-10.819,12.878-22.26,20.271-31.958c8.245-10.815,16.774-21.514,22.989-33.673c8.502-16.635,15.747-36.185,15.926-55.043
	C1074.035,288.853,994.156,310.819,962.446,325.191z M469.447,571.833c-8.255-1.473-16.702-2.019-25.069-2.418
	c-13.6-0.648-29.296-0.122-41.304-5.431c-12.105-5.352-20.791-16.52-29.412-26.582c-6.144-7.171-13.45-14.675-17.661-23.297
	c23.523,5.587,47.559,9.363,70.26,17.926c8.19,3.089,21.609,10.571,28.224,16.42c7.86,6.949,13.285,14.748,17.126,23.796
	C470.89,572.103,470.169,571.961,469.447,571.833z M703.699,559.982c-0.036,0.131-0.082,0.259-0.12,0.389
	c0.075-0.383-0.62,1.349-0.885,1.792c-0.087,0.145-0.152,0.259-0.215,0.369c-0.141,0.139-0.328,0.335-0.594,0.63
	c-2.94,3.264-7.383,5.752-11.738,5.064c-6.239-0.985-11.39-4.543-16.986-7.212c-7.331-3.497-15.016-6.084-22.937-7.839
	c-18.95-4.199-39.321-5.519-58.62-3.532c-14.469,1.49-26.997,5.356-40.249,10.896c-5.134,2.146-10.317,4.176-15.659,5.749
	c-0.393,0.116-0.789,0.217-1.185,0.323c-0.593-0.116-1.182-0.246-1.765-0.405c-0.22-0.054-1.386-0.542-1.898-0.737
	c-0.422-0.232-0.848-0.457-1.254-0.716c-0.103-0.062-0.177-0.105-0.261-0.155c-0.12-0.126-0.286-0.289-0.542-0.525
	c-0.237-0.228-0.449-0.479-0.675-0.717c0.177,0.126-0.979-1.317-1.187-1.66c-0.138-0.228-0.518-1.106-0.731-1.58
	c-0.223-0.711-0.415-1.432-0.589-2.155c-0.017-0.095-0.031-0.166-0.046-0.248c-0.06-0.867-0.06-1.738-0.042-2.606
	c0.016-0.201,0.029-0.366,0.04-0.508c0.042-0.199,0.093-0.395,0.139-0.593c6.416-6.858,13.808-13.325,20.171-18.195
	c9.065-6.939,18.642-13.884,29.349-17.816c12.84-4.714,25.953-6.298,39.543-5.717c0.931,0.04,1.838-0.052,2.716-0.239
	c19.242,1.141,38.765,5.064,55.07,15.342c3.394,2.14,6.713,4.396,9.969,6.74c0.675,0.486,1.339,0.987,2.004,1.486
	c-0.087-0.05,1.717,1.34,1.833,1.434c2.148,1.726,4.214,3.548,6.233,5.423c1.711,1.589,3.331,3.271,4.904,4.996
	c0.578,0.634,1.127,1.294,1.674,1.955c-0.484-0.552,1.045,1.429,1.194,1.646c0.955,1.386,1.78,2.851,2.527,4.356
	c-0.282-0.508,0.464,1.325,0.593,1.759c0.112,0.403,0.193,0.812,0.281,1.221c0.002,0.024,0.003,0.039,0.005,0.064
	C703.789,558.783,703.73,559.521,703.699,559.982z M884.607,517.722c-2.981,4.319-8.637,9.934-13.75,14.313
	c-9.419,8.067-22.883,15.537-35.121,21.576c-13.798,6.808-28.032,13.771-42.836,18.055c-8.711,2.521-17.368,3.082-26.377,2.183
	c-4.914-0.491-9.77-1.307-14.64-1.954c4.978-6.84,12.825-11.619,20.797-16.43c11.496-6.938,22.459-14.698,34.005-21.552
	c23.695-14.067,51.481-18.517,78.746-18.635c0.285-0.001,0.553-0.028,0.828-0.044C885.739,516.044,885.196,516.869,884.607,517.722z
	"/>
<path fill="#E9983C" d="M804.604,930.938c-12.362-14.255-19.062-29.443-23.622-47.216c-4.888-19.053-7.404-38.625-12.298-57.688
	c-9.123-35.538-18.803-72.536-37.286-104.618c-0.197-1.655-0.653-3.327-1.34-4.948c-1.37-3.234-3.588-10.265-6.5-14.5
	c-4.826-7.018-13.179-7.956-19.632-2.53c-20.805,17.493-48.193,26.145-74.665,30.261c-13.814,2.148-28.282,0.529-41.884-2.171
	c-7.218-1.433-14.511-3.065-21.536-5.266c-6.531-2.046-12.529-5.764-18.546-8.949c-6.301-3.334-12.299-6.424-18.061-10.679
	c-5.558-4.104-11.883-9.638-19.22-9.694c-14.697-0.111-15.416,16.242-18.74,26.7c-0.482,1.518-0.823,3.022-1.031,4.508
	c-0.577,1.478-1.223,2.918-1.918,4.344c-0.908,1.1-1.62,2.407-2.058,3.929c-1.411,2.534-2.958,5.07-4.585,7.719
	c-5.785,9.419-11.468,18.752-14.971,29.313c-3.719,11.212-5.461,23.139-8.222,34.607c-2.855,11.859-7.228,23.184-11.437,34.607
	c-3.691,10.018-6.992,20.13-9.123,30.605c-1.711,8.412-2.903,16.699-5.464,24.929c-2.536,8.149-4.664,13.056-9.376,20.595
	c-2.478,3.965-2.986,4.525-6.575,7.979c-0.396,0.371-0.809,0.722-1.219,1.076c0.551-0.522-1.558,1.112-1.742,1.231
	c-0.641,0.401-1.296,0.778-1.965,1.13c-0.216,0.119-0.384,0.215-0.526,0.297c-0.165,0.053-0.359,0.119-0.622,0.213
	c-6.411,2.289-10.639,8.437-8.73,15.376c1.705,6.2,8.955,11.023,15.376,8.73c19.263-6.877,29.798-24.584,36.934-42.71
	c2.923-7.425,5.028-15.197,6.464-23.041c2.098-11.464,4.573-22.451,8.411-33.483c3.902-11.213,8.504-22.183,11.793-33.603
	c1.18-4.099,2.192-8.24,3.146-12.396c6.608,30.575,19.245,59.66,41.908,81.804c20.542,20.072,47.377,30.638,75.567,33.959
	c13.436,1.583,27.78,1.966,40.777-2.249c2.364-0.767,4.671-1.658,6.928-2.652c18.651-4.447,36.109-13.894,50.012-27.248
	c20.255-19.456,30.889-47.776,41.272-72.997c1.713,6.491,3.383,12.978,5.036,19.42c4.87,18.985,7.245,38.514,12.251,57.466
	c5.477,20.736,15.294,39.32,29.34,55.516c4.467,5.151,13.118,4.56,17.678,0C809.675,943.544,809.063,936.08,804.604,930.938z
	 M540.614,838.385c-14.497-11.693-28.995-26.717-33.638-43.732c-0.474-2.557-0.891-5.122-1.279-7.688
	c-0.102-10.58,1.97-21.034,3.498-31.542c5.276,8.255,12.074,15.512,19.068,22.545c4.452,6.761,10.128,12.43,17.478,16.273
	c10.121,5.292,21.17,5.452,32.156,3.455c9.304-1.691,18.115-5.614,27.053-8.573c2.195-0.727,4.415-1.362,6.652-1.945
	c0.874-0.22,1.751-0.422,2.633-0.606c0.013-0.003,3.122-0.465,2.527-0.429c5.108-0.491,8.04,0.342,13.241,2.16
	c11.032,3.856,20.662,8.955,32.723,8.771c11.809-0.18,22.13-5.766,30.776-13.41c6.812-6.021,12.567-13.97,17.898-21.281
	c2.068-2.835,4.008-5.964,5.552-9.264c1.469,5.613,2.253,11.523,2.569,17.257c0.7,12.72-0.26,22.456-4.531,34.254
	c-1.106,3.055-2.461,6.037-3.982,8.958c-15.245,16.459-33.292,29.839-53.043,40.48c-9.953,5.362-19.921,9.403-31.121,11.264
	c-9.957,1.654-21.182,0.697-31.189-1.289C575.649,860.078,555.786,850.622,540.614,838.385z"/>
</svg>
