<?xml version="1.0" encoding="utf-8"?>
<!-- Generator: Adobe Illustrator 17.0.0, SVG Export Plug-In . SVG Version: 6.00 Build 0)  -->
<!DOCTYPE svg PUBLIC "-//W3C//DTD SVG 1.1//EN" "http://www.w3.org/Graphics/SVG/1.1/DTD/svg11.dtd">
<svg version="1.1" id="Layer_2" xmlns="http://www.w3.org/2000/svg" xmlns:xlink="http://www.w3.org/1999/xlink" x="0px" y="0px"
	 width="1264.719px" height="1095.279px" viewBox="0 0 1264.719 1095.279" enable-background="new 0 0 1264.719 1095.279"
	 xml:space="preserve">
<g>
	<path fill="#E9983C" d="M654.721,498.306c-9.232-15.077-25.238-41.101-32.221-19.376c-3.857,12-10.912,22.368-17.246,33.134
		c-5.432,9.233-13.091,20.941,1.897,26.039c10.819,3.68,23.704,3.423,34.979,3.172c8.976-0.2,24.488-2.354,27.158-12.844
		c1.985-7.801-4.424-16.254-9.018-21.619C659.062,505.402,657.12,502.224,654.721,498.306z"/>
	<path fill="#E9983C" d="M836.575,768.714C837.986,770.191,836.227,767.346,836.575,768.714L836.575,768.714z"/>
	<polygon fill="#E9983C" points="836.575,768.714 836.575,768.714 836.564,768.703 	"/>
	<path fill="#E9983C" d="M892.082,785.503c-9.251-7.972-23.227-4.776-34.328-5.554c-13.21-0.927-22.211-7.189-30.268-17.417
		c-15.294-19.416-29.971-40.437-43.107-61.382c-12.764-20.353-24.482-41.748-41.695-58.806c-13.188-13.069-25.29-29.799-45.4-31.166
		c-17.148-1.165-25.964,10.418-35.36,22.685c-12.75,16.646-37.058,19.988-53.633,6.354c-9.346-7.687-14.264-18.965-25.608-24.801
		c-9.26-4.764-19.059-4.17-28.397,0.066c-20.73,9.404-36.516,30.322-49.531,48.261c-6.83,9.415-12.933,19.278-19.411,28.927
		c-7.087,10.556-14.741,20.86-20.95,31.967c-6.055,10.832-11.138,22.3-19.596,31.565c-8.708,9.538-19.331,15.609-31.667,19.177
		c-14.712,4.255-43.77,6.428-41.863,28.196c2.341,26.723,35.303,19.354,49.88,9.231c28.431-19.743,46.447-52.995,65.305-81.147
		c10.101-15.079,20.632-29.84,31.54-44.346c5.501-7.315,11.065-14.582,16.635-21.849c7.986-10.42,14.507-27.442,30.335-26.627
		c14.73,0.759,9.237,16.224,4.379,24.239c-6.087,10.04-8.392,20.764,6.985,23.188c21.622,3.409,43.988,3.974,65.842,3.996
		c16.71,0.017,37.71,0.901,53.215-6.665c4.511-2.201,9.073-5.895,7.166-11.651c-2.499-7.541-19.198-13.408-16.848-22.549
		c4.833-18.793,26.531-5.93,33.947,1.713c12.083,12.452,22.047,27.205,31.224,41.855c22.394,35.747,42.781,72.67,75.256,101.061
		c14.066,12.297,48.415,42.683,67.144,21.779c5.908-6.594,7.086-17.3,2.934-25.101C895.17,788.751,893.798,786.981,892.082,785.503z
		"/>
	<path fill="#E9983C" d="M594.372,764.993c22.39,1.958,44.893,1.643,67.316,0.441c19.097-1.024,41.942-0.218,58.744-10.682
		c9.822-6.117,10.016-16.071,6.954-25.683c-1.506-4.727-3.799-9.371-6.121-13.437c-6.072-10.628-23.687-13.253-24.161,2.99
		c-0.304,10.408-13.953,17.818-22.128,11.194c-6.062-4.917-7.765-14.869-16.891-15.047c-8.565-0.167-14.065,9.256-22.41,10.368
		c-9.411,1.253-16.755-7.095-25.208-9.788c-9.075-2.891-15.455,7.695-21.307,12.577c-8.401,7.007-21.157,3.942-21.544-9.304
		c-0.237-8.107-6.258-13.1-14.047-11.061c-17.043,4.465-24.903,37.462-9.282,47.191
		C558.717,763.739,577.952,763.557,594.372,764.993z"/>
	<path fill="#E9983C" d="M735.785,793.684c-6.666-8.705-22.749-9.639-30.377-1.458c-5.948,6.379,0.588,15.936-4.048,22.784
		c-4.471,6.604-17.037,8.166-22.994,2.801c-6.09-5.485-1.231-16.5-7.662-21.496c-5.491-4.266-15.265-2.31-21.675-2.242
		c-12.306,0.131-24.82,1.326-37.108,0.686c-5.844-0.304-13.725-2.35-18.482,2.163c-5.878,5.575-0.954,15.363-7.083,20.888
		c-5.737,5.17-14.708,4.056-20.289-0.727c-7.983-6.842-2.219-16.566-7.506-24.472c-6.034-9.023-23.425-7.127-29.873,0.507
		c-0.063,0.074-0.124,0.149-0.185,0.224c-6.251,7.76-2.947,19.793,0.972,27.875c12.155,25.066,47.482,21.429,70.705,22.244
		c27.937,0.98,56.102,0.755,84.036-0.308c13.777-0.524,28.932-3.065,40.683-10.654c12.035-7.772,21.077-25.039,11.035-38.618
		C735.884,793.815,735.835,793.749,735.785,793.684z"/>
	<path fill="#E9983C" d="M677.429,870.104c-5.321-0.098-10.639-0.019-15.956,0.143c-22.182,0.675-44.289-2.016-66.463-1.2
		c-8.738,0.321-43.988-1.022-36.39,17.241c15.231,36.609,69.965,31.185,101.312,26.785c10.887-1.528,25.515-5.43,34.455-11.973
		c6.273-4.591,16.022-14.653,12.268-23.269C702.35,867.952,685.896,870.26,677.429,870.104z"/>
	<path fill="#E9983C" d="M652.895,938.211c-12.815,1.866-25.261,3.18-38.284,2.022c-8.199-0.729-17.998-4.486-26.033-1.176
		c-13.145,5.416-0.823,16.305,5.867,20.837c10.107,6.846,21.035,15.923,33.837,16.476c15.52,0.667,45.917-11.529,50.973-27.98
		c0.813-2.646,0.772-4.657,0.129-6.18C675.793,933.72,659.529,937.245,652.895,938.211z"/>
	<path fill="#E9983C" d="M1096.415,401.161c-17.465-4.591-36.231-0.877-53.672,1.816c-30.701,4.74-61.135,12.511-91.139,20.439
		c-30.042,7.938-59.743,17.014-89.618,25.537c-27.019,7.708-54.338,14.432-81.009,23.319c-7.007,2.335-24.95,14.802-31.021,7.098
		c-5.63-7.147,0.434-20.969,2.954-28.225c4.158-11.973,9.494-23.487,13.851-35.383c5.271-14.391,6.05-30.948,19.185-40.933
		c11.826-8.99,25.932-13.795,38.063-22.218c7.382-5.125,14.396-5.746,22.952-7.841c14.063-3.442,32.706-7.994,41.357-20.627
		c10.478-15.302-3.383-30.94-20.581-29.239c-22.532,2.229-38.845,23.839-55.781,36.579c-16.598,12.486-38.394,19.348-52.626,34.739
		c-7.313,7.908-11.657,17.839-15.54,27.75c-8.578,21.894-17.769,44.086-18.719,67.907c-0.253,6.345,0.528,24.459-8.116,26.11
		c-12.667,2.411-16.506-25.198-18.515-32.45c-1.14-4.115-1.799-9.747-4.024-13.457c-2.089-3.484-4.763-6.585-6.733-10.123
		c0.991,1.744,10.641-2.413,11.984-3.037c10.934-5.078,13.963-19.189,14.462-29.937c0.849-18.309-5.557-35.09-19.24-47.383
		c-4.815-4.325-17.493-7.611-16.573-15.736c0.449-3.965,2.332-7.842,4.438-11.172c6.428-10.169,15.616-17.341,26.943-21.364
		c3.093-1.098,6.285-1.932,9.508-2.548c14.476-2.768,29.253-2.863,43.747-0.122c6.965,1.317,13.804,3.174,20.448,5.65
		c6.184,2.305,13.248-2.515,14.88-8.448c1.866-6.782-2.276-12.579-8.448-14.88c-26.114-9.735-56.991-11.63-83.838-3.834
		c-13.533,3.93-26.618,11.078-36.018,21.724c-5.239,5.933-9.327,12.933-12.027,20.373c-1.911,5.267-1.97,12.71-8.151,14.845
		c-6.941,2.397-16.254,0.148-23.68,0.823c-4.962,0.451-13.925,1.498-16.303-4.341c-1.375-3.376-1.882-7.083-3.051-10.54
		c-2.618-7.744-6.594-15.015-12.019-21.16c-9.4-10.646-22.484-17.794-36.018-21.724c-26.847-7.796-57.724-5.9-83.838,3.834
		c-6.172,2.301-10.314,8.097-8.448,14.88c1.632,5.934,8.695,10.754,14.88,8.448c16.296-6.075,34.083-8.626,51.428-7.362
		c15.119,1.102,31.986,5.376,42.76,16.803c3.728,3.955,6.395,8.637,8.341,13.687c3.764,9.768,1.921,11.386-6.24,17.073
		c-18.239,12.71-28.069,29.822-27.018,52.474c0.499,10.747,3.527,24.859,14.462,29.937c3.873,1.799,7.95,2.707,12.095,2.987
		c-4.117-0.278-11.796,22.331-13.224,25.603c-4.146,9.5-7.046,26.44-17.416,31.415c-12.113,5.806-11.031-14.679-10.64-21.145
		c1.073-17.752-1.281-34.674-6.563-51.752c-2.335-7.548-4.895-15.025-7.645-22.432c-11.702-31.518-41.749-46.048-68.467-62.781
		c-9.305-5.828-17.616-13.094-26.876-18.984c-11.939-7.595-26.488-29.299-43.041-19.818c-8.835,5.06-19.996,20.41-16.318,31.121
		c4.201,12.224,18.239,15.201,29.374,13.165c4.617-0.844,7.844-3.715,11.067-6.918c3.033-3.015,22.291,13.817,24.718,15.678
		c15.4,11.811,33.012,20.227,49.047,31.082c8.517,5.766,11.196,15.097,13.478,24.574c2.688,11.162,7.283,21.469,10.754,32.379
		c1.182,3.714,9.544,50.17,4.44,49.239c-7.672-1.399-14.971-5.746-22.356-8.258c-28.501-9.696-55.767-16.857-84.746-25.124
		c-29.875-8.523-59.576-17.599-89.618-25.537c-30.005-7.928-60.438-15.699-91.139-20.439c-17.441-2.693-36.208-6.407-53.672-1.816
		c-21.932,5.766-32.978,25.823-29.623,47.79c3.611,23.649,22.317,45.574,41.087,59.257c32.13,23.421,72.201,30.232,111.577,32.077
		c-0.707,1.233-1.336,2.542-1.867,3.947c-8.063,21.34,17.11,38.561,33.901,44.654c11.925,4.327,24.893,3.861,37.404,3.703
		c14.738-0.186,29.621-0.461,44.239-2.4c28.127-3.73,55.829-8.689,80.746-22.947c11.91-6.815,23.21-17.22,37.069-19.692
		c1.174-0.209,9.817,20.404,10.696,22.073c-14.011,9.62-28.427,18.708-41.624,29.45c-15.989,13.015-28.63,30.063-43.046,44.733
		c-21.288,21.662-47.535,36.888-71.5,55.217c-4.503,3.444-9.334,8.522-15.195,9.426c-5.709,0.88-9.272-2.84-14.158-4.886
		c-15.463-6.474-35.641,5.436-33.088,23.353c2.839,19.931,21.766,21.698,36.908,14.745c8.675-3.984,17.615-7.434,25.999-12.029
		c8.227-4.509,14.128-11.163,21.793-16.307c20.846-13.989,40.82-29.197,60.63-44.604c22.299-17.344,34.148-44.855,57.16-61.389
		c12.789-9.188,26.638-19.253,42.202-22.94c10.273-2.434,21.803,1.995,31.929,3.83c22.089,4.001,43.203,5.677,65.439,2.312
		c18.669-2.825,38.165-6.566,56.934-2.409c17.681,3.915,30.677,17.357,42.868,29.876c13.553,13.919,26.049,28.823,39.614,42.732
		c14.932,15.311,31.34,29.275,48.713,41.745c16.938,12.158,34.311,24.281,52.552,34.434c10.544,5.868,25.461,13.227,37.904,11.167
		c20.355-3.37,18.87-32.359,0.924-37.939c-8.926-2.775-17.31,0.239-26.269-0.293c-8.893-0.528-16.794-4.787-24.011-9.696
		c-9.813-6.675-20.098-12.697-29.635-19.766c-32.566-24.14-56.226-54.655-83.836-83.829c-8.529-9.012-17.573-17.804-27.666-25.068
		c-3.376-2.43-7.135-3.99-10.902-5.63c-0.903-0.393,7.204-17.093,7.925-18.632c15.682,4.7,29.139,16.392,43.756,23.691
		c37.564,18.759,80.507,21.683,121.794,21.769c11.304,0.023,22.893,0.123,33.694-3.796c16.791-6.093,41.964-23.314,33.901-44.654
		c-0.531-1.404-1.16-2.714-1.867-3.947c39.376-1.845,79.447-8.656,111.577-32.077c18.77-13.683,37.476-35.608,41.087-59.257
		C1129.393,426.983,1118.347,406.927,1096.415,401.161z M479.606,533.986c-12.009,0.53-24.426,1.611-35.531,6.576
		c-11.336,5.068-18.133,16.403-29.424,21.049c-13.489,5.551-29.585,3.108-43.785,3.859c-9.288,0.491-51.934,1.196-37.107-20.205
		c10.089-14.558,37.031-4.592,51.498-5.102c11.912-0.42,37.086-2.395,28.943-20.844c-8.913-20.194-41.874-15.882-59.275-18.711
		c-48.506-7.886-93.861-30.853-143.297-33.571c-7.055-0.388-16.664,1.011-22.2-4.455c-7.347-7.254-2.331-20.41,8.045-20.362
		c53.747,0.246,103.331,23.38,155.341,33.563c22.493,4.404,46.974,3.662,68.559,11.911c13.312,5.087,22.884,18.262,36.864,21.219
		c12.798,2.707,25.979,1.601,38.716,0.239c8.033-0.859,19.146-4.158,23.698,4.237C532.609,535.443,489.813,533.536,479.606,533.986z
		 M640.547,364.735c0.317-7.446,8.559-6.471,13.85-6.003c9.948,0.882,19.731,5.936,26.54,13.182c1.362,1.449,2.6,2.979,3.683,4.565
		c1.399,2.049,2.521,4.355,3.329,6.702c1.021,2.964,1.559,6.083,1.769,9.205c0.311,4.626,0.496,9.402-1.015,13.857
		c-0.008-0.027-0.009-0.055-0.004-0.083c-1.965,4.269-10.07,1.053-13.208,0.291c-8.214-1.994-17.444-4.646-24.152-10.014
		c-5.484-4.388-8.063-11.477-9.487-18.142C640.922,373.94,640.357,369.196,640.547,364.735z M574.767,400.22
		c-0.276-3.962,0.151-7.945,0.573-11.882c1.116-10.42,9.109-19.355,18.005-24.223c6-3.283,12.634-5.31,19.488-5.57
		c3.883-0.147,9.638-0.502,11.172,4.066c0.826,2.459,0.787,5.168,0.449,7.856c-0.289,2.302-0.797,4.588-1.168,6.688
		c-0.78,4.407-2.07,8.7-4.274,12.622c-1.131,2.012-2.619,3.924-4.361,5.449c-1.83,1.602-3.985,2.881-6.13,4.013
		c-5.547,2.928-11.438,5.273-17.53,6.784c-2.657,0.659-5.367,1.409-8.101,1.629c-1.558,0.126-3.183,0.641-4.737,0.251
		C575.066,407.131,574.941,402.718,574.767,400.22z M702.186,532.324c-3.078,19.66-29.168,25.968-45.609,27.071
		c-23.795,1.597-49.593,2.978-72.76-3.648c-31.162-8.913-14.598-42.709-6.233-62.003c9.429-21.748,20.462-48.281,46.233-54.127
		c12.35-2.802,26.955,0.506,36.525,8.749c11.31,9.742,14.892,25.182,20.618,38.325C687.427,501.537,704.956,514.626,702.186,532.324
		z M1075.292,462.582c-5.536,5.465-15.145,4.067-22.2,4.455c-49.437,2.719-94.792,25.685-143.297,33.571
		c-17.402,2.829-50.362-1.483-59.275,18.711c-8.143,18.45,17.031,20.424,28.943,20.844c14.467,0.51,41.409-9.455,51.498,5.102
		c14.827,21.401-27.819,20.696-37.107,20.205c-14.2-0.751-30.296,1.692-43.785-3.859c-11.291-4.646-18.088-15.981-29.424-21.049
		c-11.105-4.965-23.522-6.046-35.531-6.576c-10.207-0.45-47.528-2.98-41.044-20.597c3.299-8.962,15.482-5.741,23.515-4.882
		c12.738,1.362,26.102,3.113,38.9,0.406c13.98-2.957,23.551-16.132,36.864-21.219c21.585-8.249,46.066-7.507,68.559-11.911
		c52.01-10.183,101.594-33.317,155.341-33.563C1077.623,442.172,1082.64,455.328,1075.292,462.582z"/>
</g>
</svg>
