<?xml version="1.0" encoding="utf-8"?>
<!-- Generator: Adobe Illustrator 17.0.0, SVG Export Plug-In . SVG Version: 6.00 Build 0)  -->
<!DOCTYPE svg PUBLIC "-//W3C//DTD SVG 1.1//EN" "http://www.w3.org/Graphics/SVG/1.1/DTD/svg11.dtd">
<svg version="1.1" id="Layer_1" xmlns="http://www.w3.org/2000/svg" xmlns:xlink="http://www.w3.org/1999/xlink" x="0px" y="0px"
	 width="1264.719px" height="1095.279px" viewBox="0 0 1264.719 1095.279" enable-background="new 0 0 1264.719 1095.279"
	 xml:space="preserve">
<g>
	<path fill="#704121" d="M580.813,418.571c1.486,1.571,3.154,2.951,4.872,3.95c13.314,7.74,29.126,11.175,44.209,13.588
		c14.153,2.264,29.532,3.823,43.379-0.817c16.743-5.612,29.717-17.249,32.465-35.269c2.23-14.623,1.072-27.38-6.69-40.273
		c-2.037-3.384-4.205-6.729-6.719-9.784c-2.661-3.229-8.489-5.222-7.946-9.86c0.452-3.858,2.113-7.593,2.681-11.468
		c0.564-3.848,0.686-7.842,0.271-11.714c-0.946-8.829-3.8-17.321-6.104-25.854c-3.941-14.599-26.587-8.396-22.636,6.24
		c1.252,4.637,2.535,9.266,3.658,13.936c1.342,5.584,3.708,12.131,1.691,17.839c-3.187-2.558-9.072-3.249-13.04-3.885
		c-6.325-1.013-13.569-1.266-19.853,0.192c-2.004,0.465-6.214,2.624-7.222-0.05c-0.702-1.864,1.224-5.686,1.584-7.621
		c0.586-3.16,1.331-6.283,2.067-9.41c1.238-5.258,3.084-11.42,1.235-16.754c-3.442-9.934-16.374-8.711-20.909-0.55
		c-2.523,4.54-3.354,9.696-4.297,14.734c-0.904,4.825-2.308,9.559-2.916,14.436c-0.494,3.962-0.384,8.105,0.719,11.959
		c0.623,2.176,1.622,3.945,0.393,6.092c-1.183,2.066-3.857,3.455-5.716,4.825c-4.572,3.371-7.996,8.401-10.899,13.207
		c-9.542,15.797-17.474,38.813-8.464,56.463C577.652,414.728,579.113,416.774,580.813,418.571z"/>
	<path fill="#704121" d="M738.852,381.555c15.163,10.378,38.349,3.889,54.447-0.618c10.985-3.075,21.718-6.966,32.771-9.824
		c10.241-2.649,20.293-5.898,29.951-10.241c15.117-6.799,29.038-16.829,40.064-29.217c5.623-6.318,9.993-13.403,14.107-20.756
		c3.337-5.964,8.004-13.618,6.372-20.766c-1.085-4.751-5.42-7.714-10.046-8.137c-4.974-0.456-7.968,2.362-10.879,5.477
		c-6.415,6.864-15.433,10.957-24.701,12.018c-7.635,0.874-19.282,2.234-25.834-2.822c-3.229-2.492-4.17-6.676-7.035-9.44
		c-3.496-3.373-9.365-3.727-13.515-1.296c-4.816,2.821-5.888,8.302-5.918,13.472c-0.017,2.943,0.505,6.003-2.211,7.881
		c-2.14,1.48-5.059,1.45-7.541,1.704c-5.39,0.552-10.801,0.834-16.215,0.985c-12.524,0.351-25.22,0.146-37.69,1.543
		c-9.277,1.039-20.108,3.133-27.391,9.425c-3.891,3.361-6.9,8.848-7.836,13.921c-1.677,9.085,2.033,18.214,5.103,26.591
		C727.737,369.314,731.788,376.721,738.852,381.555z"/>
	<path fill="#704121" d="M740.047,139.065c14.518,9.43,28.031,20.567,39.176,33.866c3.334,3.979,6.467,8.124,9.326,12.459
		c2.071,3.14,3.74,6.312,3.955,10.137c0.404,7.177-0.911,13.498,0.905,20.652c1.819,7.169,4.901,13.924,7.436,20.85
		c2.69,7.352,6.29,13.049,13.816,16.006c9.345,3.671,19.199,4.884,28.064,9.855c8.574,4.809,17.787,10.153,28.015,8.398
		c9.886-1.697,18.428-8.154,25.213-15.234c4.52-4.717,9.249-9.383,11.878-15.473c1.583-3.665,2.202-7.441,2.094-11.198
		c-0.234-8.151-3.891-16.216-8.56-22.88c-11.482-16.388-22.598-34.923-39.282-46.588c-10.52-7.354-24.174-9.558-29.95-22.214
		c-2.899-6.353-5.016-13.064-8.36-19.211c-14.976-27.525-40.732-46.972-69.985-57.215c-6.042-2.116-12.829,2.348-14.438,8.198
		c-1.784,6.487,2.165,12.326,8.198,14.438c6.064,2.123,10.797,4.213,16.828,7.502c5.559,3.031,11.716,7.253,15.468,10.351
		c7.481,6.177,13.935,13.264,19.327,21.332c3.379,5.056,7.608,10.391,7.562,16.801c-0.041,5.64-4.488,10.638-10.376,10.744
		c-4.915,0.089-8.524-4.004-11.758-7.169c-3.221-3.152-6.766-6.021-10.292-8.82c-7.171-5.693-14.735-10.87-22.41-15.855
		c-5.371-3.489-12.941-1.111-16.059,4.211C732.487,128.722,734.692,135.587,740.047,139.065z"/>
	<path fill="#704121" d="M554.471,548.41c17.853,5.309,36.352,6.609,54.892,6.649c26.491,0.057,53.012-0.59,79.473-1.84
		c7.672-0.362,15.342-0.792,23.005-1.309c7.888-0.532,18.863,1.585,25.988-2.491c5.501-3.148,2.254-11.932,0.808-16.45
		c-0.327-1.023-0.599-2.127-0.849-3.278c-1.201-5.532-0.864-8.814-4.728-12.497c-5.578-5.316-19.943,0.078-25.966,1.038
		c-6.869,1.094-13.817,1.554-20.73,2.277c-3.051,0.319-6.101,0.621-9.152,0.902c-20.178,1.858-40.368,2.779-60.643,1.37
		c-5.381-0.374-10.748-0.896-16.105-1.523c-7.89-0.924-15.768-1.937-23.644-2.976c-8.321-1.098-16.665-2.306-24.757-4.588
		c-2.459-0.693-5.357-1.781-7.19,0.62c-2.09,2.74-1.757,7.796-1.92,11.07c-0.233,4.674-0.019,9.361-0.33,14.033
		C542.141,546.662,548.952,546.769,554.471,548.41z"/>
	<path fill="#704121" d="M689.81,458.542c-9.929,3.388-20.282,5.68-30.712,6.797c-5.809,0.622-11.649,0.877-17.49,0.737
		c-6.128-0.147-12.239-0.691-18.309-1.543c-8.471-1.189-16.936-2.154-24.939-5.36c-5.399-2.163-10.571-4.909-16.227-6.384
		c-6.914-1.803-16.435-2.02-22.428,2.475c-3.491,2.618-6.429,7.602-7.618,11.768c-1.457,5.105-4.243,14.047,0.582,18.212
		c4.952,4.275,12.124,4.272,18.297,4.454c10.909,0.322,21.64,2.536,32.499,3.438c11.629,0.967,23.298,1.388,34.965,1.516
		c5.588,0.062,11.176,0.055,16.764,0.006c7.675-0.067,15.347-0.403,22.989-1.129c9.04-0.859,18.077-1.719,27.079-2.931
		c5.645-0.76,12.072-1.117,17.496-2.968c2.895-0.988,5.579-3.315,5.656-6.56c0.083-3.503-2.643-6.439-4.085-9.421
		c-2.42-5.004-4.345-10.053-5.871-15.393c-1.188-4.158-3.017-7.578-8.545-6.31c-2.683,0.615-5.098,2.012-7.501,3.308
		C698.326,455.457,694.203,457.042,689.81,458.542z"/>
	<path fill="#704121" d="M725.461,578.454c-2.584,0.37-5.181,0.632-7.781,0.867c-2.081,0.188-4.164,0.358-6.244,0.552
		c-12.367,1.151-24.768,1.838-37.169,2.496c-18.115,0.961-36.253,1.603-54.396,1.595c-17.596-0.008-34.734-1.944-51.97-5.416
		c-2.579-0.52-26.608-5.825-26.901-4.722c-1.509,5.68-0.198,15.193-0.148,20.987c0.071,8.247,10.861,8.821,16.634,10.411
		c19.339,5.326,38.935,7.323,58.944,7.482c14.406,0.115,28.755,0.301,43.154-0.36c19.311-0.887,38.622-1.783,57.818-4.139
		c3.63-0.446,7.262-0.888,10.902-1.245c2.906-0.284,6.286-0.125,9.159-0.978c0.452-6.271,1.289-12.521,2.606-18.649
		c0.475-2.21,0.79-3.768,0.963-5.357c-0.163-0.552-0.466-1.175-1.045-2.104C737.474,575.841,729.148,577.926,725.461,578.454z"/>
	<path fill="#704121" d="M709.014,637.512c-9.888,0.849-19.791,1.508-29.693,2.185c-5.457,0.373-10.92,0.715-16.387,0.998
		c-14.588,0.756-32.185,1.316-46.777,0.678c-16.88-0.739-30.473-1.448-46.861-5.544c-7.788-1.947-18.944-6.793-21.918-3.312
		c-2.962,3.468-0.388,9.566,0.442,13.375c1.497,6.869,3.559,13.603,4.906,20.507c0.922,4.728,1.495,10.143,6.441,12.343
		c5.394,2.4,11.58,0.842,17.256,1.11c19.738,0.932,39.405,1.46,59.159,0.573c19.397-0.871,38.78-2.039,58.118-3.8
		c5.69-0.518,11.375-1.099,17.046-1.798c5.007-0.616,10.109-1.063,15.088-1.842c3.018-0.472,4.785-1.923,5.874-3.88
		c0.094-1.499,0.163-2.997,0.179-4.494c0.029-2.735,0.854-5.302,2.24-7.482c0.022-0.128,0.043-0.257,0.067-0.383
		c0.601-3.205,0.915-6.482,1.374-9.71c0.612-4.308,1.291-6.336,0.31-10.829C734.897,631.714,718.584,636.69,709.014,637.512z"/>
	<path fill="#704121" d="M719.177,700.544c-4.795,0.357-9.325,2.43-14.057,3.017c-6.479,0.803-13.016,1.255-19.525,1.74
		c-3.775,0.281-7.552,0.541-11.33,0.795c-7.094,0.477-14.189,0.985-21.286,1.455c-9.836,0.652-19.677,1.231-29.529,1.557
		c-9.798,0.324-19.608,0.387-29.405-0.008c-8.411-0.34-16.569-0.939-24.869-2.346c-2.163-0.367-5.787-1.134-7.528,0.698
		c-1.828,1.924-1.029,5.658-0.634,7.965c0.557,3.25,1.277,6.436,1.488,9.743c0.588,9.219-2.753,21.617,7.33,27.021
		c6.466,3.466,14.14,3.299,21.248,3.968c7.685,0.723,15.373,1.359,23.084,1.743c22.909,1.143,46.06,0.738,68.927-1.04
		c7.244-0.563,14.48-0.767,21.62-2.234c7.536-1.548,11.442-2.715,12.663-10.475c1.809-11.502,2.964-23.242,6.34-34.429
		c0.653-2.164,1.83-4.238,0.94-6.559C723.754,700.811,721.437,700.376,719.177,700.544z"/>
	<path fill="#704121" d="M694.817,782.565c-21.267,1.742-42.281,3.72-63.858,3.698c-10.553-0.01-21.147,0.344-31.665-0.714
		c-9.179-0.923-23.178-3.738-25.312-2.158c-2.134,1.58,2.315,9.92,3.85,16.117c1.588,6.41,4.637,11.861,8.209,17.384
		c5.038,7.789,11.168,14.113,17.971,18.911c3.323,1.538,6.521,3.393,9.664,5.197c0.948,0.544,1.896,1.094,2.855,1.623
		c3.337,1.325,6.767,2.309,10.247,2.983c0.683,0.052,1.396,0.092,2.166,0.124c6.173,0.261,12.538,0.451,18.745-0.034
		c10.351-1.923,20.548-6.791,29.695-14.839c8.04-7.074,17.063-16.372,22.431-25.707c3.977-6.917,8.571-15.219,8.612-23.426
		C704.443,780.563,698.907,782.23,694.817,782.565z"/>
	<path fill="#704121" d="M680.897,868.222c-13.909,2.945-28.899,6.385-43.166,6.142c-5.261-0.09-10.526-0.578-15.724-1.393
		c-3.402-0.534-7.167-1.709-10.63-1.189c-7.721,1.159-6.569,11.102-6.222,16.66c0.509,8.158,1.802,16.303,6.971,22.956
		c5.361,6.9,14.471,11.23,22.871,12.931c9.244,1.872,19.948,2.901,29.209,0.775c9.911-2.276,12.354-9.708,16.975-17.583
		c3.279-5.588,6.622-11.193,9.349-17.078c2.808-6.06,4.639-13.12,3.07-17.751C692.274,868.785,688.526,866.607,680.897,868.222z"/>
	<path fill="#704121" d="M647.024,955.776c-6.686-4.322-18.267-4.517-24.288-6.248c-5.848-1.682-11.464-4.026-16.818-6.912
		c-4.912-2.648-11.727-6.463-17.427-3.909c-4.585,2.054-6.094,7.842-8.873,11.612c-3.058,4.148-7.641,6.851-12.442,8.522
		c-4.304,1.498-9.624,2.114-11.882,6.677c-4.3,8.689-7.939,21.838-2.058,30.409c5.977,8.711,15.881,15.604,24.874,20.948
		c21.319,12.669,36.78-12.486,49.263-25.589c7.008-7.356,25.85-15.613,24.695-27.615
		C651.721,960.063,649.792,957.565,647.024,955.776z"/>
	<path fill="#704121" d="M532.663,1013.544c-3.639-5.17-7.188-10.499-9.549-16.394c-2.459-6.141-1.389-12.09-2.48-18.358
		c-1.115-6.405-6.883-10.58-11.908-13.984c-5.313-3.599-10.908-8.49-17.326-9.767c-10.087-2.007-18.499,5.368-25.923,11.048
		c-7.918,6.056-16.392,11.16-26.149,13.583c-4.525,1.124-11.409,3.365-6.784,8.974c3.548,4.302,9.552,4.845,14.404,6.861
		c4.209,1.749,8.129,4.107,11.942,6.585c12.045,7.829,23.173,17.128,36.456,22.888c10.112,4.384,27.937,12.169,38.026,4.28
		c2.828-2.212,3.571-4.802,3.188-7.449C536.152,1018.991,534.466,1016.105,532.663,1013.544z"/>
	<path fill="#704121" d="M558.285,916.358c-0.713-2.193-1.972-4.421-3.508-6.45c-3.425-4.525-8.967-5.613-14.234-6.435
		c-4.01-0.626-9.401-1.418-8.292-6.831c0.646-3.152,3.186-5.553,4.97-8.076c9.978-14.108,11.831-38.987,0.514-52.958
		c-7.487-9.243-17.602-9.651-28.578-10.151c-5.939-0.271-27.67-6.196-30.029,2.481c-0.988,3.634,2.421,9.416,3.939,12.497
		c1.984,4.028,5.57,6.364,8.371,9.696c3.54,4.211,4.81,10.117,5.61,15.419c0.443,2.937-0.82,4.858-1.64,7.539
		c-1.299,4.249,1.312,8.724,3.057,12.444c2.69,5.734,5.697,11.313,8.452,17.015c2.448,5.065,5.165,10.014,8.984,14.19
		c2.141,2.341,4.736,4.325,7.561,5.78c8.547,4.402,19.258,8.354,28.899,5.299C558.801,925.778,559.843,921.149,558.285,916.358z"/>
	<path fill="#704121" d="M452.857,941.792c9.196-7.456,16.103-16.826,18.399-28.376c0.238-1.197,0.426-2.417,0.563-3.661
		c0.962-8.774-2.276-17.661-3.109-26.344c-0.863-8.995-3.288-22.824-14.809-24.031c-7.034-0.737-10.801,7.5-12.008,13.261
		c-2.398,11.442-4.243,22.817-7.968,33.941c-2.588,7.73-5.684,15.278-8.998,22.723c-2.483,5.579-8.314,13.884-6.392,20.25
		c1.543,5.111,9.228,4.757,13.471,3.935C439.999,951.942,446.683,946.798,452.857,941.792z"/>
	<path fill="#704121" d="M779.93,471.436c12.657,7.284,27.467,13.828,42.368,13.516c8.967-0.188,17.719,2.302,26.718,1.684
		c10.946-0.752,28.841-6.086,34.901-16.822c0.336-0.595,0.635-1.206,0.895-1.833c5.662-13.681-3.121-30.956,4.818-43.799
		c4.057-6.563,13.543-7.765,16.403-15.493c2.938-7.938-1.947-13.649-9.254-15.599c-10.679-2.85-22.02,1.637-27.052,11.484
		c-4.24,8.298-3.924,17.859-4.545,26.912c-0.449,6.553-1.976,7.854-7.732,10.82c-6.785,3.495-13.167,7.808-19.925,11.258
		c-6.937,3.541-12.842-0.349-18.015-5.094c-8.983-8.239-21.469-14.966-33.792-15.98c-2.918-0.24-6.192,0.111-8.875-1.303
		c-5.022-2.645-5.064-9.321-8.518-13.355c-7.493-8.751-28.898-12.317-30.745,3.35c-0.533,4.522,2.179,8.253,3.509,12.355
		c1.736,5.356,1.362,11.609,4.742,16.322c3.619,5.045,9.441,5.018,14.533,7.77C767.392,461.429,772.995,467.445,779.93,471.436z"/>
	<path fill="#704121" d="M883.627,536.985c-2.302,4.123-4.394,12.257-8.775,14.408c-3.254,1.598-10.019,0.465-13.86,1.306
		c-6.063,1.328-13.971,5.246-19.775,1.356c-5.393-3.614-7.693-10.3-11.827-15.111c-7.951-9.253-20.625-11.122-28.855-19.671
		c-7.674-7.971-17.635-19.865-30.132-13.907c-14.377,6.853-7.777,24.78,2.527,32.082c3.648,2.586,8.249,2.93,12.043,5.291
		c4.863,3.026,7.915,8.312,11.531,12.624c10.922,13.023,23.148,19.139,37.938,26.593c16.366,8.248,43.942,16.543,55.212-4.191
		c5.376-9.894,4.581-23.018,14.453-30.046c9.023-6.423,22.547-6.16,29.611-15.435c4.277-5.614-0.539-12.257-5.28-15.768
		c-3.618-2.679-8.222-4.543-12.082-5.278C900.586,508.237,890.184,525.241,883.627,536.985z"/>
	<path fill="#704121" d="M949.959,611.822c-4.501-2.609-10.309-3.782-14.492-3.184c-9.663,1.383-18.008,9.07-21.781,17.894
		c-3.34,7.812-2.677,18.882-9.458,24.86c-8.023,7.074-20.683,2.307-30.12,2.784c-6.691,0.339-13.815,1.62-20.385-0.277
		c-7.635-2.204-11.199-8.588-16.466-13.947c-9.867-10.039-21.644-17.637-32.272-26.766c-8.576-7.366-10.823-20.848-24.905-17.96
		c-10.708,2.196-11.159,15.065-12.376,23.881c-0.803,5.816-2.202,11.766,2.528,16.321c3.467,3.339,8.598,4.685,13.242,4.219
		c3.8-0.381,7.033-2.642,10.464-0.361c4.621,3.072,7.606,10.754,11.353,14.946c11.375,12.727,26.538,16.554,41.619,24.464
		c14.24,7.469,30.408,21.918,46.836,18c7.287-1.738,16.407-6.738,21.348-12.487c8.132-9.463,9.609-23.651,15.208-34.641
		c4.341-8.521,14.234-9.754,20.379-16.257C957.086,626.534,959.404,617.296,949.959,611.822z"/>
	<path fill="#704121" d="M871.594,724.441c-12.637,1.438-17.42,12.515-25.748,20.168c-5.2,4.778-25.068,3.475-28.606-3.13
		c-3.08-5.752-4.063-12.168-8.679-17.054c-6.532-6.915-14.09-9.559-17.436-19.02c-3.195-9.034-8.74-17.68-18.696-19.826
		c-9.6-2.069-13.461,2.405-15.524,11.01c-1.866,7.782-8.893,17.473-3.108,25.128c5.275,6.979,16.22,8.345,21.569,15.51
		c3.435,4.601,5.665,9.98,9.078,14.599c14.011,18.958,47.795,35.916,70.076,22.901c7.895-4.612,8.066-16.542,16.454-20.443
		c5.451-2.535,11.158,0.435,16.718-0.56c6.517-1.167,10.461-8.612,7.161-14.822C890.483,730.681,881.215,723.347,871.594,724.441z"
		/>
	<path fill="#704121" d="M386.797,331.655c11.026,12.388,24.948,22.419,40.064,29.217c9.658,4.344,19.709,7.592,29.951,10.241
		c11.053,2.859,21.786,6.749,32.771,9.824c16.097,4.507,39.284,10.995,54.447,0.618c7.063-4.834,11.115-12.241,13.996-20.101
		c3.07-8.377,6.781-17.506,5.103-26.591c-0.937-5.073-3.945-10.559-7.836-13.921c-7.283-6.292-18.115-8.385-27.391-9.425
		c-12.47-1.397-25.166-1.193-37.69-1.543c-5.414-0.152-10.825-0.434-16.215-0.985c-2.482-0.254-5.401-0.224-7.541-1.704
		c-2.716-1.878-2.193-4.938-2.211-7.881c-0.03-5.17-1.102-10.651-5.918-13.472c-4.149-2.431-10.018-2.077-13.515,1.296
		c-2.865,2.764-3.806,6.948-7.035,9.44c-6.552,5.056-18.199,3.696-25.834,2.822c-9.268-1.061-18.286-5.154-24.701-12.018
		c-2.911-3.115-5.905-5.933-10.879-5.477c-4.626,0.424-8.961,3.387-10.046,8.137c-1.632,7.148,3.035,14.802,6.372,20.766
		C376.804,318.252,381.174,325.337,386.797,331.655z"/>
	<path fill="#704121" d="M386.929,256.053c6.785,7.08,15.326,13.537,25.213,15.234c10.228,1.756,19.441-3.589,28.015-8.398
		c8.864-4.972,18.719-6.184,28.064-9.855c7.527-2.957,11.126-8.654,13.816-16.006c2.534-6.926,5.617-13.681,7.436-20.85
		c1.816-7.155,0.501-13.475,0.905-20.652c0.215-3.825,1.883-6.997,3.955-10.137c2.859-4.334,5.991-8.48,9.326-12.459
		c11.145-13.299,24.658-24.435,39.176-33.866c5.354-3.478,7.559-10.343,4.211-16.059c-3.117-5.322-10.687-7.7-16.059-4.211
		c-7.675,4.985-15.239,10.163-22.41,15.855c-3.526,2.799-7.072,5.668-10.292,8.82c-3.234,3.165-6.842,7.257-11.758,7.169
		c-5.888-0.106-10.335-5.103-10.376-10.744c-0.046-6.41,4.183-11.745,7.562-16.801c5.392-8.068,11.846-15.154,19.327-21.332
		c3.752-3.098,9.909-7.32,15.468-10.351c6.031-3.289,10.765-5.378,16.828-7.502c6.032-2.112,9.982-7.951,8.198-14.438
		c-1.609-5.85-8.396-10.313-14.438-8.198c-29.253,10.243-55.009,29.69-69.985,57.215c-3.345,6.148-5.461,12.859-8.36,19.211
		c-5.777,12.657-19.431,14.86-29.95,22.214c-16.684,11.665-27.8,30.2-39.282,46.588c-4.67,6.665-8.327,14.729-8.56,22.88
		c-0.108,3.757,0.512,7.532,2.094,11.198C377.681,246.671,382.409,251.336,386.929,256.053z"/>
	<path fill="#704121" d="M398.069,467.98c0.26,0.628,0.559,1.239,0.895,1.833c6.06,10.736,23.954,16.07,34.901,16.822
		c9,0.618,17.751-1.872,26.718-1.684c14.901,0.312,29.711-6.232,42.368-13.516c6.936-3.991,12.538-10.007,19.568-13.806
		c5.092-2.752,10.914-2.726,14.533-7.77c3.38-4.712,3.006-10.966,4.742-16.322c1.33-4.102,4.042-7.833,3.509-12.355
		c-1.847-15.667-23.253-12.101-30.745-3.35c-3.454,4.034-3.496,10.71-8.518,13.355c-2.684,1.414-5.957,1.063-8.875,1.303
		c-12.324,1.014-24.81,7.741-33.792,15.98c-5.173,4.745-11.078,8.634-18.015,5.094c-6.758-3.45-13.14-7.763-19.925-11.258
		c-5.756-2.965-7.283-4.267-7.732-10.82c-0.621-9.053-0.305-18.615-4.545-26.912c-5.032-9.848-16.373-14.334-27.052-11.484
		c-7.307,1.95-12.192,7.661-9.254,15.599c2.86,7.727,12.345,8.93,16.403,15.493C401.19,437.024,392.407,454.299,398.069,467.98z"/>
	<path fill="#704121" d="M378.774,547.721c9.873,7.028,9.077,20.152,14.453,30.046c11.27,20.734,38.847,12.439,55.212,4.191
		c14.791-7.455,27.017-13.57,37.938-26.593c3.616-4.312,6.667-9.598,11.531-12.624c3.794-2.361,8.394-2.706,12.043-5.291
		c10.304-7.302,16.904-25.229,2.527-32.082c-12.497-5.957-22.458,5.936-30.132,13.907c-8.231,8.549-20.904,10.418-28.855,19.671
		c-4.134,4.811-6.434,11.497-11.827,15.111c-5.804,3.889-13.712-0.028-19.775-1.356c-3.841-0.842-10.606,0.292-13.86-1.306
		c-4.38-2.151-6.473-10.286-8.775-14.408c-6.557-11.744-16.959-28.748-32.73-25.745c-3.86,0.735-8.464,2.6-12.082,5.278
		c-4.741,3.511-9.557,10.154-5.28,15.768C356.227,541.561,369.751,541.298,378.774,547.721z"/>
	<path fill="#704121" d="M435.971,678.697c15.081-7.91,30.243-11.737,41.619-24.464c3.746-4.191,6.732-11.874,11.353-14.946
		c3.431-2.281,6.664-0.02,10.464,0.361c4.644,0.466,9.774-0.88,13.242-4.219c4.73-4.555,3.331-10.505,2.528-16.321
		c-1.217-8.815-1.668-21.685-12.376-23.881c-14.082-2.887-16.329,10.594-24.905,17.96c-10.628,9.128-22.404,16.726-32.272,26.766
		c-5.267,5.359-8.831,11.742-16.466,13.947c-6.57,1.897-13.694,0.616-20.385,0.277c-9.437-0.478-22.097,4.29-30.12-2.784
		c-6.781-5.978-6.118-17.048-9.458-24.86c-3.773-8.825-12.117-16.512-21.78-17.894c-4.183-0.599-9.991,0.575-14.492,3.184
		c-9.444,5.474-7.126,14.712-0.722,21.49c6.145,6.503,16.039,7.737,20.379,16.257c5.599,10.99,7.076,25.178,15.208,34.641
		c4.941,5.749,14.061,10.75,21.348,12.487C405.563,700.614,421.731,686.166,435.971,678.697z"/>
	<path fill="#704121" d="M428.361,774.728c22.281,13.015,56.065-3.943,70.076-22.901c3.413-4.618,5.643-9.998,9.078-14.599
		c5.35-7.166,16.294-8.531,21.569-15.51c5.786-7.655-1.241-17.345-3.108-25.128c-2.064-8.605-5.924-13.08-15.524-11.01
		c-9.957,2.146-15.501,10.792-18.696,19.826c-3.346,9.461-10.904,12.105-17.436,19.02c-4.615,4.886-5.598,11.302-8.679,17.054
		c-3.538,6.605-23.406,7.908-28.606,3.13c-8.328-7.653-13.111-18.731-25.748-20.168c-9.621-1.094-18.889,6.239-23.26,14.461
		c-3.301,6.21,0.644,13.655,7.161,14.822c5.56,0.996,11.267-1.975,16.718,0.56C420.294,758.186,420.466,770.116,428.361,774.728z"/>
</g>
</svg>
