<?xml version="1.0" encoding="utf-8"?>
<!-- Generator: Adobe Illustrator 17.0.0, SVG Export Plug-In . SVG Version: 6.00 Build 0)  -->
<!DOCTYPE svg PUBLIC "-//W3C//DTD SVG 1.1//EN" "http://www.w3.org/Graphics/SVG/1.1/DTD/svg11.dtd">
<svg version="1.1" id="Layer_1" xmlns="http://www.w3.org/2000/svg" xmlns:xlink="http://www.w3.org/1999/xlink" x="0px" y="0px"
	 width="1264.719px" height="1095.279px" viewBox="0 0 1264.719 1095.279" enable-background="new 0 0 1264.719 1095.279"
	 xml:space="preserve">
<g>
	<path fill="#6B6B6B" d="M869.159,880.701c-3.629-1.665-6.979-3.235-10.355-4.746c-8.055-3.605-9.871-7.644-7.042-16.199
		c8.017-24.242,16.104-48.46,24.113-72.704c1.943-5.883,3.689-11.831,5.828-18.722c-4.385,0-7.658-0.057-10.929,0.011
		c-8.367,0.173-12.118-3.365-12.233-11.846c-0.267-19.637-0.52-39.275-0.67-58.914c-0.102-13.351-0.02-26.703-0.02-40.546
		c-2.171,0.307-3.285,0.388-4.363,0.63c-6.402,1.435-10.291-0.342-13.011-6.5c-8.13-18.404-16.126-36.868-24.187-55.303
		c-0.72-1.646-1.538-3.25-2.845-4.662c1.482,11.179,3.252,22.329,4.392,33.543c3.289,32.326,7.511,64.804-0.059,96.993
		c-15.416,65.545-55.796,109.998-118.162,133.638c-74.675,28.306-157.517,8.242-211.674-50.273
		c-31.37-33.894-47.186-74.46-47.572-120.696c-0.246-29.499,3.266-58.738,7.698-87.864c0.25-1.643,0.32-3.312-0.369-5.236
		c-3.043,6.877-6.116,13.74-9.12,20.634c-4.93,11.313-9.808,22.649-14.721,33.97c-4.955,11.418-6.092,12.066-19.316,10.382
		c0,8.125,0.068,16.144-0.013,24.162c-0.248,24.717-0.558,49.434-0.833,74.15c-0.108,9.718-3.42,12.927-13.296,12.849
		c-2.851-0.023-5.703-0.003-9.417-0.003c0.655,3.046,0.992,5.809,1.848,8.402c9.108,27.607,18.295,55.187,27.466,82.773
		c2.948,8.868,1.299,12.708-7.12,16.52c-10.166,4.603-9.714,4.481-6.792,15.384c8.862,33.063,24.255,63.378,39.013,93.963
		c0.766,1.587,3.142,3.208,4.902,3.37c9.646,0.891,16.73,5.401,21.936,13.52c2.386,3.72,3.57,7.369,1.8,11.426
		c-1.797,4.121-5.288,5.934-9.767,6.028c-8.799,0.185-17.6,0.373-26.395,0.703c-4.575,0.172-7.689-1.802-9.985-5.636
		c-15.994-26.706-32.384-53.185-47.788-80.226c-3.417-5.998-3.605-13.91-4.927-21.007c-1.668-8.957-3.025-17.974-4.406-26.982
		c-0.413-2.696-1.666-4.069-4.414-4.617c-4.137-0.826-8.218-1.978-12.275-3.156c-6.048-1.756-8.741-6.046-7.938-12.276
		c4.433-34.404,8.892-68.804,13.157-103.229c0.178-1.436-1.099-3.672-2.376-4.548c-3.189-2.188-6.776-3.792-10.189-5.656
		c-7.201-3.933-8.789-8.598-5.154-15.945c9.674-19.553,19.457-39.052,29.164-58.589c5.78-11.634,11.498-23.299,16.617-33.678
		c-6.36-8.256-12.304-15.751-18-23.429c-5.432-7.322-4.739-12.096,2.278-17.849c26.711-21.902,53.666-43.514,80.017-65.84
		c8.004-6.781,14.429-15.449,21.362-23.44c0.856-0.986,0.731-3.197,0.45-4.729c-0.973-5.305-2.215-10.56-3.518-16.59
		c-5.292,4.266-10.385,8.333-15.437,12.45c-12.207,9.949-24.371,19.949-36.599,29.872c-6.66,5.405-10.602,5.552-16.996-0.105
		c-3.823-3.382-6.502-3.887-11.076-0.633c-24.132,17.168-48.593,33.874-72.945,50.734c-6.245,4.324-9.869,4.795-15.573-0.06
		c-6.928-5.897-13.403-6.49-22.075-3.424c-21.824,7.715-44.03,14.373-66.216,21.011c-3.73,1.116-8.387,0.902-12.158-0.227
		c-10.19-3.051-20.145-6.893-30.169-10.487c-7.169-2.57-9.592-6.906-7.767-14.17c1.401-5.573,3.15-11.057,4.635-16.61
		c1.359-5.086,4.712-7.659,9.822-8.033c4.049-0.296,8.109-0.502,12.167-0.616c9.16-0.258,12.934,4.042,11.757,13.266
		c-0.106,0.834-0.132,1.678-0.25,3.246c6.859-0.854,13.51-1.629,20.146-2.52c11.905-1.598,23.95-2.587,35.645-5.155
		c7.103-1.56,13.683-5.556,20.43-8.609c0.691-0.313,1.005-1.628,1.338-2.535c1.223-3.333,2.582-6.635,3.518-10.051
		c1.5-5.473,4.967-8.381,10.397-9.878c27.055-7.459,54.031-15.204,81.094-22.633c3.978-1.092,6.093-2.548,5.748-7.042
		c-0.849-11.072,4.42-16.744,15.15-20.346c26.914-9.035,53.362-19.453,80.05-29.169c3.148-1.146,5.327-2.663,5.973-6.03
		c1.738-9.057,9.584-13.626,14.846-20.085c1.812-2.224,4.1-4.063,5.887-6.305c0.822-1.031,0.959-2.608,1.809-5.132
		c-14.688,5.49-27.953,10.446-41.216,15.408c-6.966,2.606-13.952,5.16-20.885,7.852c-4.738,1.84-9.007,1.333-12.654-2.27
		c-4.639-4.582-9.098-9.347-13.776-13.888c-0.817-0.793-2.309-1.159-3.52-1.237c-31.41-2.029-62.823-4.004-94.237-5.962
		c-8.351-0.52-11.912-2.899-11.888-11.196c0.029-10.463-4.89-14.93-14.318-17.715c-10.661-3.15-20.814-7.993-31.258-11.912
		c-4.671-1.753-7.383-4.723-8.765-9.606c-6.17-21.798-12.53-43.543-18.983-65.259c-1.564-5.263-0.921-9.61,3.327-13.296
		c2.043-1.773,3.964-3.695,5.856-5.632c3.201-3.278,7.06-4.005,11.199-2.575c3.842,1.327,5.873,4.309,6.404,8.385
		c0.897,6.873,1.453,13.839,3.052,20.552c0.885,3.718,2.917,7.676,5.594,10.371c16.342,16.451,33.018,32.571,49.9,49.114
		c1.927-1.598,3.832-2.975,5.498-4.598c4.451-4.335,9.269-4.701,14.895-2.324c19.618,8.287,39.264,16.515,59.032,24.436
		c6.665,2.671,13.724,4.361,20.907,6.594c0.601-2.273,1.02-3.701,1.355-5.147c1.31-5.669,5.048-8.786,10.812-8.666
		c23.012,0.477,46.022,1.247,69.036,1.397c6.163,0.04,12.343-1.702,18.501-2.718c0.741-0.122,1.6-0.668,2.042-1.279
		c2.953-4.084,5.808-8.239,9.15-13.021c-9.973-1.726-19.248-3.362-28.534-4.93c-14.511-2.451-29.037-4.817-43.543-7.297
		c-6.946-1.187-9.466-4.932-9.192-13.772c-11.841-3.445-23.796-6.946-35.765-10.398c-12.184-3.514-24.387-6.96-36.571-10.474
		c-7.828-2.258-10.789-5.625-9.331-13.666c1.36-7.501-1.089-12.757-5.687-18.167c-6.463-7.605-12.189-15.831-18.525-23.55
		c-4.05-4.935-4.638-9.675-1.655-15.385c7.283-13.939,13.875-28.253,21.55-41.965c3.127-5.587,7.925-10.451,12.67-14.887
		c26.463-24.736,53.198-49.18,79.694-73.881c4.435-4.134,8.878-5.427,14.746-3.758c10.24,2.914,20.603,5.404,30.947,7.939
		c4.782,1.172,7.902,3.793,8.492,8.811c0.613,5.21-1.78,8.707-6.466,10.892c-3.831,1.786-7.668,3.6-11.329,5.705
		c-5.388,3.098-10.934,3.959-17.077,2.858c-1.955-0.35-4.695,0.565-6.301,1.861c-20.689,16.694-41.252,33.543-61.791,50.421
		c-1.536,1.263-2.77,2.956-3.936,4.597c-7.06,9.934-14.061,19.91-21.077,29.875c-0.682,0.968-1.389,1.924-2,2.937
		c-4.847,8.03-4.65,12.013,0.899,19.414c3.039,4.052,6.062,8.116,9.216,12.34c1.064-0.626,1.955-1.053,2.739-1.627
		c5.006-3.659,9.827-3.501,14.955,0.04c17.27,11.925,34.65,23.689,51.993,35.508c1.239,0.844,2.515,1.634,3.909,2.537
		c2.494-1.633,5.015-3.049,7.27-4.807c5.681-4.429,10.985-4.385,17.171-0.399c17.207,11.088,34.669,21.785,52.175,32.399
		c2.401,1.456,5.584,1.824,8.47,2.236c7.528,1.074,15.085,1.961,22.645,2.787c4.693,0.512,9.625,1.048,13.14-2.953
		c1.136-1.293,1.804-3.959,1.31-5.578c-6.648-21.828-13.466-43.606-20.43-65.336c-1.441-4.495-1.183-8.315,1.099-12.552
		c9.059-16.818,17.857-33.777,26.632-50.746c2.633-5.092,7.895-7.507,13.154-5.59c4.85,1.768,7.569,6.991,5.946,12.479
		c-2.349,7.942-5.09,15.768-7.669,23.641c-4.207,12.847-8.528,25.659-12.517,38.573c-0.671,2.172-0.532,5.024,0.291,7.152
		c2.851,7.371,6.169,14.561,9.633,22.566c7.397-6.148,15.12-11.306,20.925-18.102c1.932-2.261,0.28-9.669-2.111-13.035
		c-3.363-4.736-4.693-8.739-2.34-13.917c3.988-8.773,7.942-17.563,12.036-26.287c2.787-5.938,6.152-7.037,12.667-6.768
		c8.298,0.343,12.791,4.328,15.6,11.846c2.834,7.585,6.554,14.842,9.968,22.205c2.356,5.082,1.608,9.402-2.481,13.338
		c-4.524,4.356-3.985,12.638,0.858,16.632c5.86,4.833,11.708,9.681,18.051,14.929c3.677-8.621,7.294-16.752,10.533-25.031
		c0.566-1.447-0.241-3.59-0.791-5.29c-6.553-20.266-13.14-40.521-19.811-60.748c-1.646-4.991-0.532-9.053,3.588-12.147
		c5.079-3.814,11.979-1.861,15.033,3.975c9.094,17.377,18.404,34.644,27.193,52.172c1.482,2.955,1.885,7.323,0.939,10.484
		c-6.592,22.017-13.682,43.885-20.584,65.809c-1.383,4.392,0.785,8.461,5.551,8.581c7.018,0.176,14.064-0.771,21.099-1.225
		c4.195-0.271,8.411-0.355,12.58-0.843c1.903-0.223,3.907-0.908,5.54-1.912c17.731-10.9,35.49-21.761,53.031-32.96
		c5.902-3.768,11.335-4.536,16.619,0.288c5.447,4.972,9.859,4.237,15.715-0.06c14.456-10.606,29.722-20.104,44.271-30.59
		c7.093-5.113,13.565-7.663,21.144-0.587c4.716-6.296,9.238-12.157,13.503-18.199c0.717-1.015,0.835-3.022,0.351-4.215
		c-1.823-4.499-3.577-9.124-6.154-13.198c-4.429-7-9.662-13.488-14.179-20.438c-5.41-8.324-12.054-15.275-19.861-21.448
		c-17.397-13.757-34.349-28.076-51.67-41.931c-1.956-1.565-5.296-2.619-7.682-2.187c-5.889,1.066-10.964-0.055-16.02-2.974
		c-3.945-2.276-8.197-4.013-12.266-6.082c-4.22-2.147-6.242-5.698-5.748-10.381c0.474-4.493,3.116-7.466,7.487-8.604
		c11.617-3.025,23.192-6.298,34.948-8.645c3.087-0.616,7.68,0.785,10.051,2.942c29.917,27.229,59.57,54.75,89.222,82.268
		c1.688,1.567,3.065,3.625,4.123,5.691c7.48,14.598,14.703,29.33,22.306,43.864c2.978,5.693,2.541,10.396-1.49,15.379
		c-7.666,9.475-15.102,19.142-22.385,28.915c-1.346,1.807-2.239,4.525-2.121,6.759c0.891,16.824,0.987,16.823-15.478,21.571
		c-19.981,5.762-39.965,11.509-59.943,17.28c-1.926,0.556-3.815,1.238-5.627,1.83c-0.687,10.569-2.474,12.502-12.842,14.249
		c-22.015,3.71-44.028,7.434-66.04,11.163c-0.647,0.11-1.272,0.346-2.655,0.733c5.223,6.853,8.164,13.925,18.383,16.244
		c18.376,4.171,36.373,1.089,54.528,0.777c6.593-0.113,13.183-0.666,19.766-1.139c12.666-0.911,14.7,0.468,17.999,13.22
		c6.095-1.741,12.392-2.975,18.247-5.314c19.782-7.904,39.527-15.926,59.032-24.481c7.651-3.356,13.892-3.345,19.661,3.005
		c0.896,0.987,2.084,1.709,3.434,2.792c7.178-6.963,14.342-13.872,21.461-20.827c8.479-8.284,16.534-17.055,25.497-24.776
		c7.417-6.389,9.398-14.449,10.257-23.358c0.341-3.536,0.127-7.312,1.355-10.525c1.225-3.204,3.402-6.6,6.136-8.532
		c3.445-2.435,7.55-1.136,10.739,1.653c2.8,2.448,6.119,4.711,7.889,7.809c1.681,2.942,2.995,7.228,2.159,10.293
		c-6.226,22.831-12.829,45.567-19.875,68.158c-0.979,3.138-4.569,6.393-7.741,7.755c-13.196,5.664-26.664,10.704-40.105,15.78
		c-2.891,1.092-4.437,2.462-4.461,5.739c-0.023,3.197-0.585,6.401-1.052,9.582c-0.985,6.702-4.434,9.727-11.176,10.146
		c-31.416,1.952-62.828,3.973-94.249,5.847c-2.81,0.168-3.98,1.485-5.843,3.476c-4.907,5.244-10.459,10.052-16.41,14.06
		c-2.081,1.402-6.296,0.639-9.162-0.29c-18.486-5.994-36.866-12.311-55.285-18.51c-1.722-0.58-3.474-1.07-5.837-0.805
		c4.56,4.834,9.424,9.424,13.584,14.581c3.314,4.109,6.222,8.701,8.444,13.48c1.427,3.069,3.144,4.727,6.219,5.853
		c28.097,10.283,56.077,20.893,84.258,30.938c7.208,2.569,10.425,6.838,10.442,14.174c0.007,3.038,0.364,6.074,0.594,9.624
		c10.481,2.993,21.171,6.072,31.878,9.096c18.384,5.192,36.756,10.428,55.183,15.468c5.065,1.385,8.764,4.124,9.643,9.267
		c1.751,10.249,7.617,16.52,17.456,19.064c6.656,1.72,13.391,3.257,20.177,4.32c13.37,2.095,26.8,3.816,40.21,5.653
		c1.125,0.154,2.289,0.02,3.557,0.02c-0.252-2.353-0.688-4.486-0.668-6.615c0.051-5.423,3.755-9.429,9.138-9.548
		c5.068-0.112,10.155,0.163,15.22,0.483c5.142,0.325,8.459,3.134,9.836,8.108c1.578,5.704,3.165,11.408,4.604,17.148
		c1.593,6.359-0.474,10.774-6.455,12.998c-11.249,4.182-22.528,8.317-33.956,11.964c-2.787,0.889-6.394,0.441-9.296-0.455
		c-24.711-7.627-49.364-15.446-73.984-23.364c-3.199-1.029-5.539-0.722-8.334,1.246c-14.123,9.945-14.181,9.86-28.594-0.141
		c-22.529-15.633-45.12-31.18-67.527-46.987c-3.443-2.429-5.496-2.239-8.642,0.415c-8.261,6.969-11.345,6.732-19.813-0.187
		c-15.472-12.641-30.965-25.258-46.458-37.873c-1.158-0.943-2.387-1.797-3.984-2.992c-1.396,6.356-2.98,12.23-3.807,18.209
		c-0.229,1.654,1.539,3.825,2.821,5.411c20.167,24.95,46.607,42.918,70.792,63.393c9.691,8.204,19.646,16.095,29.453,24.163
		c5.8,4.771,6.761,9.993,2.218,15.921c-5.72,7.463-12.052,14.455-17.828,21.878c-0.833,1.07-0.61,3.689,0.091,5.116
		c11.118,22.614,22.402,45.146,33.631,67.705c3.693,7.42,7.372,14.848,10.992,22.304c3.406,7.016,1.853,11.935-4.888,15.693
		c-2.363,1.317-4.654,2.905-7.185,3.75c-5.741,1.916-6.069,5.729-5.35,11.02c4.441,32.695,8.614,65.427,12.782,98.159
		c0.97,7.619-1.731,11.251-9.265,13.254c-2.45,0.651-4.873,1.76-7.349,1.89c-6.496,0.341-7.983,4.264-8.751,9.9
		c-1.755,12.873-3.846,25.717-6.392,38.455c-0.798,3.992-3.205,7.773-5.354,11.366c-14.59,24.395-29.365,48.681-43.938,73.086
		c-2.937,4.919-6.739,7.081-12.519,6.673c-8.265-0.584-16.565-0.727-24.853-0.919c-4.318-0.1-7.56-1.826-9.371-5.736
		c-1.791-3.867-0.954-7.401,1.357-10.986c5.141-7.976,11.757-13.25,21.621-13.945c1.862-0.131,4.542-1.44,5.268-2.959
		c9.543-19.978,19.454-39.823,27.914-60.263C860.313,911.188,864.236,895.877,869.159,880.701z M741.713,491.673
		c-0.203-4.22-0.293-7.434-0.521-10.638c-2.578-36.297-15.502-68.002-41.764-93.741c-36.09-35.371-89.443-39.907-130.035-10.927
		c-2.92,2.085-5.552,5.01-7.397,8.095c-15.596,19.754-31.143,42.061-38.803,60.239c-7.131,11.407-8.622,24.48-9.098,37.936
		c-1.391,39.353,8.895,74.685,34.947,104.682c39.611,45.609,102.47,50.036,147.361,9.905
		C727.99,568.989,740.72,532.197,741.713,491.673z"/>
</g>
</svg>
